%TF.GenerationSoftware,KiCad,Pcbnew,5.1.7*%
%TF.CreationDate,2020-11-15T02:13:01+01:00*%
%TF.ProjectId,ISA8019,49534138-3031-4392-9e6b-696361645f70,rev?*%
%TF.SameCoordinates,Original*%
%TF.FileFunction,Soldermask,Top*%
%TF.FilePolarity,Negative*%
%FSLAX46Y46*%
G04 Gerber Fmt 4.6, Leading zero omitted, Abs format (unit mm)*
G04 Created by KiCad (PCBNEW 5.1.7) date 2020-11-15 02:13:01*
%MOMM*%
%LPD*%
G01*
G04 APERTURE LIST*
%ADD10R,1.780000X7.620000*%
%ADD11C,1.400000*%
%ADD12C,2.500000*%
%ADD13C,3.200000*%
%ADD14O,1.600000X2.400000*%
%ADD15R,1.600000X2.400000*%
%ADD16C,0.800000*%
%ADD17C,6.400000*%
%ADD18R,1.700000X1.700000*%
%ADD19O,1.700000X1.700000*%
%ADD20C,1.152000*%
%ADD21R,1.200000X1.400000*%
%ADD22R,1.500000X0.600000*%
G04 APERTURE END LIST*
D10*
%TO.C,J1*%
X38160000Y-159300000D03*
X40700000Y-159300000D03*
X43240000Y-159300000D03*
X45780000Y-159300000D03*
X48320000Y-159300000D03*
X50860000Y-159300000D03*
X53400000Y-159300000D03*
X55940000Y-159300000D03*
X58480000Y-159300000D03*
X61020000Y-159300000D03*
X63560000Y-159300000D03*
X66100000Y-159300000D03*
X68640000Y-159300000D03*
X71180000Y-159300000D03*
X73720000Y-159300000D03*
X76260000Y-159300000D03*
X78800000Y-159300000D03*
X81340000Y-159300000D03*
X91500000Y-159300000D03*
X94040000Y-159300000D03*
X96580000Y-159300000D03*
X99120000Y-159300000D03*
X101660000Y-159300000D03*
X104200000Y-159300000D03*
X106740000Y-159300000D03*
X109280000Y-159300000D03*
X111820000Y-159300000D03*
X114360000Y-159300000D03*
X116900000Y-159300000D03*
X119440000Y-159300000D03*
X121980000Y-159300000D03*
X124520000Y-159300000D03*
X127060000Y-159300000D03*
X129600000Y-159300000D03*
X132140000Y-159300000D03*
X134680000Y-159300000D03*
X137220000Y-159300000D03*
X139760000Y-159300000D03*
X142300000Y-159300000D03*
X144840000Y-159300000D03*
X147380000Y-159300000D03*
X149920000Y-159300000D03*
X152460000Y-159300000D03*
X155000000Y-159300000D03*
X157540000Y-159300000D03*
X160080000Y-159300000D03*
X162620000Y-159300000D03*
X165160000Y-159300000D03*
X167700000Y-159300000D03*
%TD*%
D11*
%TO.C,J2*%
X177770000Y-117730000D03*
X177770000Y-120020000D03*
X177770000Y-108590000D03*
X177770000Y-106300000D03*
X182570000Y-116730000D03*
X184350000Y-115710000D03*
X182570000Y-114690000D03*
X184350000Y-113670000D03*
X182570000Y-112650000D03*
X184350000Y-111630000D03*
X182570000Y-110610000D03*
X184350000Y-109590000D03*
D12*
X183330000Y-121360000D03*
X183330000Y-104960000D03*
D13*
X186890000Y-119510000D03*
X186890000Y-106810000D03*
%TD*%
%TO.C,U1*%
G36*
G01*
X122873000Y-116685000D02*
X122673000Y-116685000D01*
G75*
G02*
X122573000Y-116585000I0J100000D01*
G01*
X122573000Y-115035000D01*
G75*
G02*
X122673000Y-114935000I100000J0D01*
G01*
X122873000Y-114935000D01*
G75*
G02*
X122973000Y-115035000I0J-100000D01*
G01*
X122973000Y-116585000D01*
G75*
G02*
X122873000Y-116685000I-100000J0D01*
G01*
G37*
G36*
G01*
X127548000Y-118860000D02*
X125998000Y-118860000D01*
G75*
G02*
X125898000Y-118760000I0J100000D01*
G01*
X125898000Y-118560000D01*
G75*
G02*
X125998000Y-118460000I100000J0D01*
G01*
X127548000Y-118460000D01*
G75*
G02*
X127648000Y-118560000I0J-100000D01*
G01*
X127648000Y-118760000D01*
G75*
G02*
X127548000Y-118860000I-100000J0D01*
G01*
G37*
G36*
G01*
X124173000Y-116685000D02*
X123973000Y-116685000D01*
G75*
G02*
X123873000Y-116585000I0J100000D01*
G01*
X123873000Y-115035000D01*
G75*
G02*
X123973000Y-114935000I100000J0D01*
G01*
X124173000Y-114935000D01*
G75*
G02*
X124273000Y-115035000I0J-100000D01*
G01*
X124273000Y-116585000D01*
G75*
G02*
X124173000Y-116685000I-100000J0D01*
G01*
G37*
G36*
G01*
X121573000Y-116685000D02*
X121373000Y-116685000D01*
G75*
G02*
X121273000Y-116585000I0J100000D01*
G01*
X121273000Y-115035000D01*
G75*
G02*
X121373000Y-114935000I100000J0D01*
G01*
X121573000Y-114935000D01*
G75*
G02*
X121673000Y-115035000I0J-100000D01*
G01*
X121673000Y-116585000D01*
G75*
G02*
X121573000Y-116685000I-100000J0D01*
G01*
G37*
G36*
G01*
X120273000Y-116685000D02*
X120073000Y-116685000D01*
G75*
G02*
X119973000Y-116585000I0J100000D01*
G01*
X119973000Y-115035000D01*
G75*
G02*
X120073000Y-114935000I100000J0D01*
G01*
X120273000Y-114935000D01*
G75*
G02*
X120373000Y-115035000I0J-100000D01*
G01*
X120373000Y-116585000D01*
G75*
G02*
X120273000Y-116685000I-100000J0D01*
G01*
G37*
G36*
G01*
X122223000Y-116685000D02*
X122023000Y-116685000D01*
G75*
G02*
X121923000Y-116585000I0J100000D01*
G01*
X121923000Y-115035000D01*
G75*
G02*
X122023000Y-114935000I100000J0D01*
G01*
X122223000Y-114935000D01*
G75*
G02*
X122323000Y-115035000I0J-100000D01*
G01*
X122323000Y-116585000D01*
G75*
G02*
X122223000Y-116685000I-100000J0D01*
G01*
G37*
G36*
G01*
X127548000Y-128610000D02*
X125998000Y-128610000D01*
G75*
G02*
X125898000Y-128510000I0J100000D01*
G01*
X125898000Y-128310000D01*
G75*
G02*
X125998000Y-128210000I100000J0D01*
G01*
X127548000Y-128210000D01*
G75*
G02*
X127648000Y-128310000I0J-100000D01*
G01*
X127648000Y-128510000D01*
G75*
G02*
X127548000Y-128610000I-100000J0D01*
G01*
G37*
G36*
G01*
X127548000Y-120810000D02*
X125998000Y-120810000D01*
G75*
G02*
X125898000Y-120710000I0J100000D01*
G01*
X125898000Y-120510000D01*
G75*
G02*
X125998000Y-120410000I100000J0D01*
G01*
X127548000Y-120410000D01*
G75*
G02*
X127648000Y-120510000I0J-100000D01*
G01*
X127648000Y-120710000D01*
G75*
G02*
X127548000Y-120810000I-100000J0D01*
G01*
G37*
G36*
G01*
X109223000Y-134735000D02*
X109023000Y-134735000D01*
G75*
G02*
X108923000Y-134635000I0J100000D01*
G01*
X108923000Y-133085000D01*
G75*
G02*
X109023000Y-132985000I100000J0D01*
G01*
X109223000Y-132985000D01*
G75*
G02*
X109323000Y-133085000I0J-100000D01*
G01*
X109323000Y-134635000D01*
G75*
G02*
X109223000Y-134735000I-100000J0D01*
G01*
G37*
G36*
G01*
X108573000Y-134735000D02*
X108373000Y-134735000D01*
G75*
G02*
X108273000Y-134635000I0J100000D01*
G01*
X108273000Y-133085000D01*
G75*
G02*
X108373000Y-132985000I100000J0D01*
G01*
X108573000Y-132985000D01*
G75*
G02*
X108673000Y-133085000I0J-100000D01*
G01*
X108673000Y-134635000D01*
G75*
G02*
X108573000Y-134735000I-100000J0D01*
G01*
G37*
G36*
G01*
X107923000Y-134735000D02*
X107723000Y-134735000D01*
G75*
G02*
X107623000Y-134635000I0J100000D01*
G01*
X107623000Y-133085000D01*
G75*
G02*
X107723000Y-132985000I100000J0D01*
G01*
X107923000Y-132985000D01*
G75*
G02*
X108023000Y-133085000I0J-100000D01*
G01*
X108023000Y-134635000D01*
G75*
G02*
X107923000Y-134735000I-100000J0D01*
G01*
G37*
G36*
G01*
X117023000Y-116685000D02*
X116823000Y-116685000D01*
G75*
G02*
X116723000Y-116585000I0J100000D01*
G01*
X116723000Y-115035000D01*
G75*
G02*
X116823000Y-114935000I100000J0D01*
G01*
X117023000Y-114935000D01*
G75*
G02*
X117123000Y-115035000I0J-100000D01*
G01*
X117123000Y-116585000D01*
G75*
G02*
X117023000Y-116685000I-100000J0D01*
G01*
G37*
G36*
G01*
X115073000Y-116685000D02*
X114873000Y-116685000D01*
G75*
G02*
X114773000Y-116585000I0J100000D01*
G01*
X114773000Y-115035000D01*
G75*
G02*
X114873000Y-114935000I100000J0D01*
G01*
X115073000Y-114935000D01*
G75*
G02*
X115173000Y-115035000I0J-100000D01*
G01*
X115173000Y-116585000D01*
G75*
G02*
X115073000Y-116685000I-100000J0D01*
G01*
G37*
G36*
G01*
X120923000Y-134735000D02*
X120723000Y-134735000D01*
G75*
G02*
X120623000Y-134635000I0J100000D01*
G01*
X120623000Y-133085000D01*
G75*
G02*
X120723000Y-132985000I100000J0D01*
G01*
X120923000Y-132985000D01*
G75*
G02*
X121023000Y-133085000I0J-100000D01*
G01*
X121023000Y-134635000D01*
G75*
G02*
X120923000Y-134735000I-100000J0D01*
G01*
G37*
G36*
G01*
X110523000Y-134735000D02*
X110323000Y-134735000D01*
G75*
G02*
X110223000Y-134635000I0J100000D01*
G01*
X110223000Y-133085000D01*
G75*
G02*
X110323000Y-132985000I100000J0D01*
G01*
X110523000Y-132985000D01*
G75*
G02*
X110623000Y-133085000I0J-100000D01*
G01*
X110623000Y-134635000D01*
G75*
G02*
X110523000Y-134735000I-100000J0D01*
G01*
G37*
G36*
G01*
X122223000Y-134735000D02*
X122023000Y-134735000D01*
G75*
G02*
X121923000Y-134635000I0J100000D01*
G01*
X121923000Y-133085000D01*
G75*
G02*
X122023000Y-132985000I100000J0D01*
G01*
X122223000Y-132985000D01*
G75*
G02*
X122323000Y-133085000I0J-100000D01*
G01*
X122323000Y-134635000D01*
G75*
G02*
X122223000Y-134735000I-100000J0D01*
G01*
G37*
G36*
G01*
X121573000Y-134735000D02*
X121373000Y-134735000D01*
G75*
G02*
X121273000Y-134635000I0J100000D01*
G01*
X121273000Y-133085000D01*
G75*
G02*
X121373000Y-132985000I100000J0D01*
G01*
X121573000Y-132985000D01*
G75*
G02*
X121673000Y-133085000I0J-100000D01*
G01*
X121673000Y-134635000D01*
G75*
G02*
X121573000Y-134735000I-100000J0D01*
G01*
G37*
G36*
G01*
X127548000Y-122760000D02*
X125998000Y-122760000D01*
G75*
G02*
X125898000Y-122660000I0J100000D01*
G01*
X125898000Y-122460000D01*
G75*
G02*
X125998000Y-122360000I100000J0D01*
G01*
X127548000Y-122360000D01*
G75*
G02*
X127648000Y-122460000I0J-100000D01*
G01*
X127648000Y-122660000D01*
G75*
G02*
X127548000Y-122760000I-100000J0D01*
G01*
G37*
G36*
G01*
X111823000Y-116685000D02*
X111623000Y-116685000D01*
G75*
G02*
X111523000Y-116585000I0J100000D01*
G01*
X111523000Y-115035000D01*
G75*
G02*
X111623000Y-114935000I100000J0D01*
G01*
X111823000Y-114935000D01*
G75*
G02*
X111923000Y-115035000I0J-100000D01*
G01*
X111923000Y-116585000D01*
G75*
G02*
X111823000Y-116685000I-100000J0D01*
G01*
G37*
G36*
G01*
X118323000Y-134735000D02*
X118123000Y-134735000D01*
G75*
G02*
X118023000Y-134635000I0J100000D01*
G01*
X118023000Y-133085000D01*
G75*
G02*
X118123000Y-132985000I100000J0D01*
G01*
X118323000Y-132985000D01*
G75*
G02*
X118423000Y-133085000I0J-100000D01*
G01*
X118423000Y-134635000D01*
G75*
G02*
X118323000Y-134735000I-100000J0D01*
G01*
G37*
G36*
G01*
X127548000Y-124060000D02*
X125998000Y-124060000D01*
G75*
G02*
X125898000Y-123960000I0J100000D01*
G01*
X125898000Y-123760000D01*
G75*
G02*
X125998000Y-123660000I100000J0D01*
G01*
X127548000Y-123660000D01*
G75*
G02*
X127648000Y-123760000I0J-100000D01*
G01*
X127648000Y-123960000D01*
G75*
G02*
X127548000Y-124060000I-100000J0D01*
G01*
G37*
G36*
G01*
X103398000Y-120160000D02*
X101848000Y-120160000D01*
G75*
G02*
X101748000Y-120060000I0J100000D01*
G01*
X101748000Y-119860000D01*
G75*
G02*
X101848000Y-119760000I100000J0D01*
G01*
X103398000Y-119760000D01*
G75*
G02*
X103498000Y-119860000I0J-100000D01*
G01*
X103498000Y-120060000D01*
G75*
G02*
X103398000Y-120160000I-100000J0D01*
G01*
G37*
G36*
G01*
X105973000Y-134735000D02*
X105773000Y-134735000D01*
G75*
G02*
X105673000Y-134635000I0J100000D01*
G01*
X105673000Y-133085000D01*
G75*
G02*
X105773000Y-132985000I100000J0D01*
G01*
X105973000Y-132985000D01*
G75*
G02*
X106073000Y-133085000I0J-100000D01*
G01*
X106073000Y-134635000D01*
G75*
G02*
X105973000Y-134735000I-100000J0D01*
G01*
G37*
G36*
G01*
X111823000Y-134735000D02*
X111623000Y-134735000D01*
G75*
G02*
X111523000Y-134635000I0J100000D01*
G01*
X111523000Y-133085000D01*
G75*
G02*
X111623000Y-132985000I100000J0D01*
G01*
X111823000Y-132985000D01*
G75*
G02*
X111923000Y-133085000I0J-100000D01*
G01*
X111923000Y-134635000D01*
G75*
G02*
X111823000Y-134735000I-100000J0D01*
G01*
G37*
G36*
G01*
X119623000Y-116685000D02*
X119423000Y-116685000D01*
G75*
G02*
X119323000Y-116585000I0J100000D01*
G01*
X119323000Y-115035000D01*
G75*
G02*
X119423000Y-114935000I100000J0D01*
G01*
X119623000Y-114935000D01*
G75*
G02*
X119723000Y-115035000I0J-100000D01*
G01*
X119723000Y-116585000D01*
G75*
G02*
X119623000Y-116685000I-100000J0D01*
G01*
G37*
G36*
G01*
X127548000Y-122110000D02*
X125998000Y-122110000D01*
G75*
G02*
X125898000Y-122010000I0J100000D01*
G01*
X125898000Y-121810000D01*
G75*
G02*
X125998000Y-121710000I100000J0D01*
G01*
X127548000Y-121710000D01*
G75*
G02*
X127648000Y-121810000I0J-100000D01*
G01*
X127648000Y-122010000D01*
G75*
G02*
X127548000Y-122110000I-100000J0D01*
G01*
G37*
G36*
G01*
X107273000Y-134735000D02*
X107073000Y-134735000D01*
G75*
G02*
X106973000Y-134635000I0J100000D01*
G01*
X106973000Y-133085000D01*
G75*
G02*
X107073000Y-132985000I100000J0D01*
G01*
X107273000Y-132985000D01*
G75*
G02*
X107373000Y-133085000I0J-100000D01*
G01*
X107373000Y-134635000D01*
G75*
G02*
X107273000Y-134735000I-100000J0D01*
G01*
G37*
G36*
G01*
X127548000Y-127310000D02*
X125998000Y-127310000D01*
G75*
G02*
X125898000Y-127210000I0J100000D01*
G01*
X125898000Y-127010000D01*
G75*
G02*
X125998000Y-126910000I100000J0D01*
G01*
X127548000Y-126910000D01*
G75*
G02*
X127648000Y-127010000I0J-100000D01*
G01*
X127648000Y-127210000D01*
G75*
G02*
X127548000Y-127310000I-100000J0D01*
G01*
G37*
G36*
G01*
X112473000Y-134735000D02*
X112273000Y-134735000D01*
G75*
G02*
X112173000Y-134635000I0J100000D01*
G01*
X112173000Y-133085000D01*
G75*
G02*
X112273000Y-132985000I100000J0D01*
G01*
X112473000Y-132985000D01*
G75*
G02*
X112573000Y-133085000I0J-100000D01*
G01*
X112573000Y-134635000D01*
G75*
G02*
X112473000Y-134735000I-100000J0D01*
G01*
G37*
G36*
G01*
X127548000Y-126660000D02*
X125998000Y-126660000D01*
G75*
G02*
X125898000Y-126560000I0J100000D01*
G01*
X125898000Y-126360000D01*
G75*
G02*
X125998000Y-126260000I100000J0D01*
G01*
X127548000Y-126260000D01*
G75*
G02*
X127648000Y-126360000I0J-100000D01*
G01*
X127648000Y-126560000D01*
G75*
G02*
X127548000Y-126660000I-100000J0D01*
G01*
G37*
G36*
G01*
X127548000Y-126010000D02*
X125998000Y-126010000D01*
G75*
G02*
X125898000Y-125910000I0J100000D01*
G01*
X125898000Y-125710000D01*
G75*
G02*
X125998000Y-125610000I100000J0D01*
G01*
X127548000Y-125610000D01*
G75*
G02*
X127648000Y-125710000I0J-100000D01*
G01*
X127648000Y-125910000D01*
G75*
G02*
X127548000Y-126010000I-100000J0D01*
G01*
G37*
G36*
G01*
X127548000Y-125360000D02*
X125998000Y-125360000D01*
G75*
G02*
X125898000Y-125260000I0J100000D01*
G01*
X125898000Y-125060000D01*
G75*
G02*
X125998000Y-124960000I100000J0D01*
G01*
X127548000Y-124960000D01*
G75*
G02*
X127648000Y-125060000I0J-100000D01*
G01*
X127648000Y-125260000D01*
G75*
G02*
X127548000Y-125360000I-100000J0D01*
G01*
G37*
G36*
G01*
X127548000Y-124710000D02*
X125998000Y-124710000D01*
G75*
G02*
X125898000Y-124610000I0J100000D01*
G01*
X125898000Y-124410000D01*
G75*
G02*
X125998000Y-124310000I100000J0D01*
G01*
X127548000Y-124310000D01*
G75*
G02*
X127648000Y-124410000I0J-100000D01*
G01*
X127648000Y-124610000D01*
G75*
G02*
X127548000Y-124710000I-100000J0D01*
G01*
G37*
G36*
G01*
X117673000Y-116685000D02*
X117473000Y-116685000D01*
G75*
G02*
X117373000Y-116585000I0J100000D01*
G01*
X117373000Y-115035000D01*
G75*
G02*
X117473000Y-114935000I100000J0D01*
G01*
X117673000Y-114935000D01*
G75*
G02*
X117773000Y-115035000I0J-100000D01*
G01*
X117773000Y-116585000D01*
G75*
G02*
X117673000Y-116685000I-100000J0D01*
G01*
G37*
G36*
G01*
X103398000Y-118860000D02*
X101848000Y-118860000D01*
G75*
G02*
X101748000Y-118760000I0J100000D01*
G01*
X101748000Y-118560000D01*
G75*
G02*
X101848000Y-118460000I100000J0D01*
G01*
X103398000Y-118460000D01*
G75*
G02*
X103498000Y-118560000I0J-100000D01*
G01*
X103498000Y-118760000D01*
G75*
G02*
X103398000Y-118860000I-100000J0D01*
G01*
G37*
G36*
G01*
X115723000Y-116685000D02*
X115523000Y-116685000D01*
G75*
G02*
X115423000Y-116585000I0J100000D01*
G01*
X115423000Y-115035000D01*
G75*
G02*
X115523000Y-114935000I100000J0D01*
G01*
X115723000Y-114935000D01*
G75*
G02*
X115823000Y-115035000I0J-100000D01*
G01*
X115823000Y-116585000D01*
G75*
G02*
X115723000Y-116685000I-100000J0D01*
G01*
G37*
G36*
G01*
X116373000Y-116685000D02*
X116173000Y-116685000D01*
G75*
G02*
X116073000Y-116585000I0J100000D01*
G01*
X116073000Y-115035000D01*
G75*
G02*
X116173000Y-114935000I100000J0D01*
G01*
X116373000Y-114935000D01*
G75*
G02*
X116473000Y-115035000I0J-100000D01*
G01*
X116473000Y-116585000D01*
G75*
G02*
X116373000Y-116685000I-100000J0D01*
G01*
G37*
G36*
G01*
X122873000Y-134735000D02*
X122673000Y-134735000D01*
G75*
G02*
X122573000Y-134635000I0J100000D01*
G01*
X122573000Y-133085000D01*
G75*
G02*
X122673000Y-132985000I100000J0D01*
G01*
X122873000Y-132985000D01*
G75*
G02*
X122973000Y-133085000I0J-100000D01*
G01*
X122973000Y-134635000D01*
G75*
G02*
X122873000Y-134735000I-100000J0D01*
G01*
G37*
G36*
G01*
X110523000Y-116685000D02*
X110323000Y-116685000D01*
G75*
G02*
X110223000Y-116585000I0J100000D01*
G01*
X110223000Y-115035000D01*
G75*
G02*
X110323000Y-114935000I100000J0D01*
G01*
X110523000Y-114935000D01*
G75*
G02*
X110623000Y-115035000I0J-100000D01*
G01*
X110623000Y-116585000D01*
G75*
G02*
X110523000Y-116685000I-100000J0D01*
G01*
G37*
G36*
G01*
X112473000Y-116685000D02*
X112273000Y-116685000D01*
G75*
G02*
X112173000Y-116585000I0J100000D01*
G01*
X112173000Y-115035000D01*
G75*
G02*
X112273000Y-114935000I100000J0D01*
G01*
X112473000Y-114935000D01*
G75*
G02*
X112573000Y-115035000I0J-100000D01*
G01*
X112573000Y-116585000D01*
G75*
G02*
X112473000Y-116685000I-100000J0D01*
G01*
G37*
G36*
G01*
X111173000Y-134735000D02*
X110973000Y-134735000D01*
G75*
G02*
X110873000Y-134635000I0J100000D01*
G01*
X110873000Y-133085000D01*
G75*
G02*
X110973000Y-132985000I100000J0D01*
G01*
X111173000Y-132985000D01*
G75*
G02*
X111273000Y-133085000I0J-100000D01*
G01*
X111273000Y-134635000D01*
G75*
G02*
X111173000Y-134735000I-100000J0D01*
G01*
G37*
G36*
G01*
X120273000Y-134735000D02*
X120073000Y-134735000D01*
G75*
G02*
X119973000Y-134635000I0J100000D01*
G01*
X119973000Y-133085000D01*
G75*
G02*
X120073000Y-132985000I100000J0D01*
G01*
X120273000Y-132985000D01*
G75*
G02*
X120373000Y-133085000I0J-100000D01*
G01*
X120373000Y-134635000D01*
G75*
G02*
X120273000Y-134735000I-100000J0D01*
G01*
G37*
G36*
G01*
X103398000Y-119510000D02*
X101848000Y-119510000D01*
G75*
G02*
X101748000Y-119410000I0J100000D01*
G01*
X101748000Y-119210000D01*
G75*
G02*
X101848000Y-119110000I100000J0D01*
G01*
X103398000Y-119110000D01*
G75*
G02*
X103498000Y-119210000I0J-100000D01*
G01*
X103498000Y-119410000D01*
G75*
G02*
X103398000Y-119510000I-100000J0D01*
G01*
G37*
G36*
G01*
X119623000Y-134735000D02*
X119423000Y-134735000D01*
G75*
G02*
X119323000Y-134635000I0J100000D01*
G01*
X119323000Y-133085000D01*
G75*
G02*
X119423000Y-132985000I100000J0D01*
G01*
X119623000Y-132985000D01*
G75*
G02*
X119723000Y-133085000I0J-100000D01*
G01*
X119723000Y-134635000D01*
G75*
G02*
X119623000Y-134735000I-100000J0D01*
G01*
G37*
G36*
G01*
X118973000Y-134735000D02*
X118773000Y-134735000D01*
G75*
G02*
X118673000Y-134635000I0J100000D01*
G01*
X118673000Y-133085000D01*
G75*
G02*
X118773000Y-132985000I100000J0D01*
G01*
X118973000Y-132985000D01*
G75*
G02*
X119073000Y-133085000I0J-100000D01*
G01*
X119073000Y-134635000D01*
G75*
G02*
X118973000Y-134735000I-100000J0D01*
G01*
G37*
G36*
G01*
X105323000Y-134735000D02*
X105123000Y-134735000D01*
G75*
G02*
X105023000Y-134635000I0J100000D01*
G01*
X105023000Y-133085000D01*
G75*
G02*
X105123000Y-132985000I100000J0D01*
G01*
X105323000Y-132985000D01*
G75*
G02*
X105423000Y-133085000I0J-100000D01*
G01*
X105423000Y-134635000D01*
G75*
G02*
X105323000Y-134735000I-100000J0D01*
G01*
G37*
G36*
G01*
X109873000Y-134735000D02*
X109673000Y-134735000D01*
G75*
G02*
X109573000Y-134635000I0J100000D01*
G01*
X109573000Y-133085000D01*
G75*
G02*
X109673000Y-132985000I100000J0D01*
G01*
X109873000Y-132985000D01*
G75*
G02*
X109973000Y-133085000I0J-100000D01*
G01*
X109973000Y-134635000D01*
G75*
G02*
X109873000Y-134735000I-100000J0D01*
G01*
G37*
G36*
G01*
X109873000Y-116685000D02*
X109673000Y-116685000D01*
G75*
G02*
X109573000Y-116585000I0J100000D01*
G01*
X109573000Y-115035000D01*
G75*
G02*
X109673000Y-114935000I100000J0D01*
G01*
X109873000Y-114935000D01*
G75*
G02*
X109973000Y-115035000I0J-100000D01*
G01*
X109973000Y-116585000D01*
G75*
G02*
X109873000Y-116685000I-100000J0D01*
G01*
G37*
G36*
G01*
X111173000Y-116685000D02*
X110973000Y-116685000D01*
G75*
G02*
X110873000Y-116585000I0J100000D01*
G01*
X110873000Y-115035000D01*
G75*
G02*
X110973000Y-114935000I100000J0D01*
G01*
X111173000Y-114935000D01*
G75*
G02*
X111273000Y-115035000I0J-100000D01*
G01*
X111273000Y-116585000D01*
G75*
G02*
X111173000Y-116685000I-100000J0D01*
G01*
G37*
G36*
G01*
X127548000Y-123410000D02*
X125998000Y-123410000D01*
G75*
G02*
X125898000Y-123310000I0J100000D01*
G01*
X125898000Y-123110000D01*
G75*
G02*
X125998000Y-123010000I100000J0D01*
G01*
X127548000Y-123010000D01*
G75*
G02*
X127648000Y-123110000I0J-100000D01*
G01*
X127648000Y-123310000D01*
G75*
G02*
X127548000Y-123410000I-100000J0D01*
G01*
G37*
G36*
G01*
X120923000Y-116685000D02*
X120723000Y-116685000D01*
G75*
G02*
X120623000Y-116585000I0J100000D01*
G01*
X120623000Y-115035000D01*
G75*
G02*
X120723000Y-114935000I100000J0D01*
G01*
X120923000Y-114935000D01*
G75*
G02*
X121023000Y-115035000I0J-100000D01*
G01*
X121023000Y-116585000D01*
G75*
G02*
X120923000Y-116685000I-100000J0D01*
G01*
G37*
G36*
G01*
X103398000Y-120810000D02*
X101848000Y-120810000D01*
G75*
G02*
X101748000Y-120710000I0J100000D01*
G01*
X101748000Y-120510000D01*
G75*
G02*
X101848000Y-120410000I100000J0D01*
G01*
X103398000Y-120410000D01*
G75*
G02*
X103498000Y-120510000I0J-100000D01*
G01*
X103498000Y-120710000D01*
G75*
G02*
X103398000Y-120810000I-100000J0D01*
G01*
G37*
G36*
G01*
X117673000Y-134735000D02*
X117473000Y-134735000D01*
G75*
G02*
X117373000Y-134635000I0J100000D01*
G01*
X117373000Y-133085000D01*
G75*
G02*
X117473000Y-132985000I100000J0D01*
G01*
X117673000Y-132985000D01*
G75*
G02*
X117773000Y-133085000I0J-100000D01*
G01*
X117773000Y-134635000D01*
G75*
G02*
X117673000Y-134735000I-100000J0D01*
G01*
G37*
G36*
G01*
X109223000Y-116685000D02*
X109023000Y-116685000D01*
G75*
G02*
X108923000Y-116585000I0J100000D01*
G01*
X108923000Y-115035000D01*
G75*
G02*
X109023000Y-114935000I100000J0D01*
G01*
X109223000Y-114935000D01*
G75*
G02*
X109323000Y-115035000I0J-100000D01*
G01*
X109323000Y-116585000D01*
G75*
G02*
X109223000Y-116685000I-100000J0D01*
G01*
G37*
G36*
G01*
X117023000Y-134735000D02*
X116823000Y-134735000D01*
G75*
G02*
X116723000Y-134635000I0J100000D01*
G01*
X116723000Y-133085000D01*
G75*
G02*
X116823000Y-132985000I100000J0D01*
G01*
X117023000Y-132985000D01*
G75*
G02*
X117123000Y-133085000I0J-100000D01*
G01*
X117123000Y-134635000D01*
G75*
G02*
X117023000Y-134735000I-100000J0D01*
G01*
G37*
G36*
G01*
X127548000Y-121460000D02*
X125998000Y-121460000D01*
G75*
G02*
X125898000Y-121360000I0J100000D01*
G01*
X125898000Y-121160000D01*
G75*
G02*
X125998000Y-121060000I100000J0D01*
G01*
X127548000Y-121060000D01*
G75*
G02*
X127648000Y-121160000I0J-100000D01*
G01*
X127648000Y-121360000D01*
G75*
G02*
X127548000Y-121460000I-100000J0D01*
G01*
G37*
G36*
G01*
X114423000Y-116685000D02*
X114223000Y-116685000D01*
G75*
G02*
X114123000Y-116585000I0J100000D01*
G01*
X114123000Y-115035000D01*
G75*
G02*
X114223000Y-114935000I100000J0D01*
G01*
X114423000Y-114935000D01*
G75*
G02*
X114523000Y-115035000I0J-100000D01*
G01*
X114523000Y-116585000D01*
G75*
G02*
X114423000Y-116685000I-100000J0D01*
G01*
G37*
G36*
G01*
X113773000Y-116685000D02*
X113573000Y-116685000D01*
G75*
G02*
X113473000Y-116585000I0J100000D01*
G01*
X113473000Y-115035000D01*
G75*
G02*
X113573000Y-114935000I100000J0D01*
G01*
X113773000Y-114935000D01*
G75*
G02*
X113873000Y-115035000I0J-100000D01*
G01*
X113873000Y-116585000D01*
G75*
G02*
X113773000Y-116685000I-100000J0D01*
G01*
G37*
G36*
G01*
X113123000Y-116685000D02*
X112923000Y-116685000D01*
G75*
G02*
X112823000Y-116585000I0J100000D01*
G01*
X112823000Y-115035000D01*
G75*
G02*
X112923000Y-114935000I100000J0D01*
G01*
X113123000Y-114935000D01*
G75*
G02*
X113223000Y-115035000I0J-100000D01*
G01*
X113223000Y-116585000D01*
G75*
G02*
X113123000Y-116685000I-100000J0D01*
G01*
G37*
G36*
G01*
X108573000Y-116685000D02*
X108373000Y-116685000D01*
G75*
G02*
X108273000Y-116585000I0J100000D01*
G01*
X108273000Y-115035000D01*
G75*
G02*
X108373000Y-114935000I100000J0D01*
G01*
X108573000Y-114935000D01*
G75*
G02*
X108673000Y-115035000I0J-100000D01*
G01*
X108673000Y-116585000D01*
G75*
G02*
X108573000Y-116685000I-100000J0D01*
G01*
G37*
G36*
G01*
X107923000Y-116685000D02*
X107723000Y-116685000D01*
G75*
G02*
X107623000Y-116585000I0J100000D01*
G01*
X107623000Y-115035000D01*
G75*
G02*
X107723000Y-114935000I100000J0D01*
G01*
X107923000Y-114935000D01*
G75*
G02*
X108023000Y-115035000I0J-100000D01*
G01*
X108023000Y-116585000D01*
G75*
G02*
X107923000Y-116685000I-100000J0D01*
G01*
G37*
G36*
G01*
X107273000Y-116685000D02*
X107073000Y-116685000D01*
G75*
G02*
X106973000Y-116585000I0J100000D01*
G01*
X106973000Y-115035000D01*
G75*
G02*
X107073000Y-114935000I100000J0D01*
G01*
X107273000Y-114935000D01*
G75*
G02*
X107373000Y-115035000I0J-100000D01*
G01*
X107373000Y-116585000D01*
G75*
G02*
X107273000Y-116685000I-100000J0D01*
G01*
G37*
G36*
G01*
X106623000Y-116685000D02*
X106423000Y-116685000D01*
G75*
G02*
X106323000Y-116585000I0J100000D01*
G01*
X106323000Y-115035000D01*
G75*
G02*
X106423000Y-114935000I100000J0D01*
G01*
X106623000Y-114935000D01*
G75*
G02*
X106723000Y-115035000I0J-100000D01*
G01*
X106723000Y-116585000D01*
G75*
G02*
X106623000Y-116685000I-100000J0D01*
G01*
G37*
G36*
G01*
X116373000Y-134735000D02*
X116173000Y-134735000D01*
G75*
G02*
X116073000Y-134635000I0J100000D01*
G01*
X116073000Y-133085000D01*
G75*
G02*
X116173000Y-132985000I100000J0D01*
G01*
X116373000Y-132985000D01*
G75*
G02*
X116473000Y-133085000I0J-100000D01*
G01*
X116473000Y-134635000D01*
G75*
G02*
X116373000Y-134735000I-100000J0D01*
G01*
G37*
G36*
G01*
X118323000Y-116685000D02*
X118123000Y-116685000D01*
G75*
G02*
X118023000Y-116585000I0J100000D01*
G01*
X118023000Y-115035000D01*
G75*
G02*
X118123000Y-114935000I100000J0D01*
G01*
X118323000Y-114935000D01*
G75*
G02*
X118423000Y-115035000I0J-100000D01*
G01*
X118423000Y-116585000D01*
G75*
G02*
X118323000Y-116685000I-100000J0D01*
G01*
G37*
G36*
G01*
X106623000Y-134735000D02*
X106423000Y-134735000D01*
G75*
G02*
X106323000Y-134635000I0J100000D01*
G01*
X106323000Y-133085000D01*
G75*
G02*
X106423000Y-132985000I100000J0D01*
G01*
X106623000Y-132985000D01*
G75*
G02*
X106723000Y-133085000I0J-100000D01*
G01*
X106723000Y-134635000D01*
G75*
G02*
X106623000Y-134735000I-100000J0D01*
G01*
G37*
G36*
G01*
X115723000Y-134735000D02*
X115523000Y-134735000D01*
G75*
G02*
X115423000Y-134635000I0J100000D01*
G01*
X115423000Y-133085000D01*
G75*
G02*
X115523000Y-132985000I100000J0D01*
G01*
X115723000Y-132985000D01*
G75*
G02*
X115823000Y-133085000I0J-100000D01*
G01*
X115823000Y-134635000D01*
G75*
G02*
X115723000Y-134735000I-100000J0D01*
G01*
G37*
G36*
G01*
X115073000Y-134735000D02*
X114873000Y-134735000D01*
G75*
G02*
X114773000Y-134635000I0J100000D01*
G01*
X114773000Y-133085000D01*
G75*
G02*
X114873000Y-132985000I100000J0D01*
G01*
X115073000Y-132985000D01*
G75*
G02*
X115173000Y-133085000I0J-100000D01*
G01*
X115173000Y-134635000D01*
G75*
G02*
X115073000Y-134735000I-100000J0D01*
G01*
G37*
G36*
G01*
X114423000Y-134735000D02*
X114223000Y-134735000D01*
G75*
G02*
X114123000Y-134635000I0J100000D01*
G01*
X114123000Y-133085000D01*
G75*
G02*
X114223000Y-132985000I100000J0D01*
G01*
X114423000Y-132985000D01*
G75*
G02*
X114523000Y-133085000I0J-100000D01*
G01*
X114523000Y-134635000D01*
G75*
G02*
X114423000Y-134735000I-100000J0D01*
G01*
G37*
G36*
G01*
X113773000Y-134735000D02*
X113573000Y-134735000D01*
G75*
G02*
X113473000Y-134635000I0J100000D01*
G01*
X113473000Y-133085000D01*
G75*
G02*
X113573000Y-132985000I100000J0D01*
G01*
X113773000Y-132985000D01*
G75*
G02*
X113873000Y-133085000I0J-100000D01*
G01*
X113873000Y-134635000D01*
G75*
G02*
X113773000Y-134735000I-100000J0D01*
G01*
G37*
G36*
G01*
X113123000Y-134735000D02*
X112923000Y-134735000D01*
G75*
G02*
X112823000Y-134635000I0J100000D01*
G01*
X112823000Y-133085000D01*
G75*
G02*
X112923000Y-132985000I100000J0D01*
G01*
X113123000Y-132985000D01*
G75*
G02*
X113223000Y-133085000I0J-100000D01*
G01*
X113223000Y-134635000D01*
G75*
G02*
X113123000Y-134735000I-100000J0D01*
G01*
G37*
G36*
G01*
X118973000Y-116685000D02*
X118773000Y-116685000D01*
G75*
G02*
X118673000Y-116585000I0J100000D01*
G01*
X118673000Y-115035000D01*
G75*
G02*
X118773000Y-114935000I100000J0D01*
G01*
X118973000Y-114935000D01*
G75*
G02*
X119073000Y-115035000I0J-100000D01*
G01*
X119073000Y-116585000D01*
G75*
G02*
X118973000Y-116685000I-100000J0D01*
G01*
G37*
G36*
G01*
X127548000Y-131210000D02*
X125998000Y-131210000D01*
G75*
G02*
X125898000Y-131110000I0J100000D01*
G01*
X125898000Y-130910000D01*
G75*
G02*
X125998000Y-130810000I100000J0D01*
G01*
X127548000Y-130810000D01*
G75*
G02*
X127648000Y-130910000I0J-100000D01*
G01*
X127648000Y-131110000D01*
G75*
G02*
X127548000Y-131210000I-100000J0D01*
G01*
G37*
G36*
G01*
X123523000Y-134735000D02*
X123323000Y-134735000D01*
G75*
G02*
X123223000Y-134635000I0J100000D01*
G01*
X123223000Y-133085000D01*
G75*
G02*
X123323000Y-132985000I100000J0D01*
G01*
X123523000Y-132985000D01*
G75*
G02*
X123623000Y-133085000I0J-100000D01*
G01*
X123623000Y-134635000D01*
G75*
G02*
X123523000Y-134735000I-100000J0D01*
G01*
G37*
G36*
G01*
X124173000Y-134735000D02*
X123973000Y-134735000D01*
G75*
G02*
X123873000Y-134635000I0J100000D01*
G01*
X123873000Y-133085000D01*
G75*
G02*
X123973000Y-132985000I100000J0D01*
G01*
X124173000Y-132985000D01*
G75*
G02*
X124273000Y-133085000I0J-100000D01*
G01*
X124273000Y-134635000D01*
G75*
G02*
X124173000Y-134735000I-100000J0D01*
G01*
G37*
G36*
G01*
X103398000Y-128610000D02*
X101848000Y-128610000D01*
G75*
G02*
X101748000Y-128510000I0J100000D01*
G01*
X101748000Y-128310000D01*
G75*
G02*
X101848000Y-128210000I100000J0D01*
G01*
X103398000Y-128210000D01*
G75*
G02*
X103498000Y-128310000I0J-100000D01*
G01*
X103498000Y-128510000D01*
G75*
G02*
X103398000Y-128610000I-100000J0D01*
G01*
G37*
G36*
G01*
X103398000Y-129260000D02*
X101848000Y-129260000D01*
G75*
G02*
X101748000Y-129160000I0J100000D01*
G01*
X101748000Y-128960000D01*
G75*
G02*
X101848000Y-128860000I100000J0D01*
G01*
X103398000Y-128860000D01*
G75*
G02*
X103498000Y-128960000I0J-100000D01*
G01*
X103498000Y-129160000D01*
G75*
G02*
X103398000Y-129260000I-100000J0D01*
G01*
G37*
G36*
G01*
X103398000Y-129910000D02*
X101848000Y-129910000D01*
G75*
G02*
X101748000Y-129810000I0J100000D01*
G01*
X101748000Y-129610000D01*
G75*
G02*
X101848000Y-129510000I100000J0D01*
G01*
X103398000Y-129510000D01*
G75*
G02*
X103498000Y-129610000I0J-100000D01*
G01*
X103498000Y-129810000D01*
G75*
G02*
X103398000Y-129910000I-100000J0D01*
G01*
G37*
G36*
G01*
X103398000Y-130560000D02*
X101848000Y-130560000D01*
G75*
G02*
X101748000Y-130460000I0J100000D01*
G01*
X101748000Y-130260000D01*
G75*
G02*
X101848000Y-130160000I100000J0D01*
G01*
X103398000Y-130160000D01*
G75*
G02*
X103498000Y-130260000I0J-100000D01*
G01*
X103498000Y-130460000D01*
G75*
G02*
X103398000Y-130560000I-100000J0D01*
G01*
G37*
G36*
G01*
X103398000Y-131210000D02*
X101848000Y-131210000D01*
G75*
G02*
X101748000Y-131110000I0J100000D01*
G01*
X101748000Y-130910000D01*
G75*
G02*
X101848000Y-130810000I100000J0D01*
G01*
X103398000Y-130810000D01*
G75*
G02*
X103498000Y-130910000I0J-100000D01*
G01*
X103498000Y-131110000D01*
G75*
G02*
X103398000Y-131210000I-100000J0D01*
G01*
G37*
G36*
G01*
X103398000Y-124710000D02*
X101848000Y-124710000D01*
G75*
G02*
X101748000Y-124610000I0J100000D01*
G01*
X101748000Y-124410000D01*
G75*
G02*
X101848000Y-124310000I100000J0D01*
G01*
X103398000Y-124310000D01*
G75*
G02*
X103498000Y-124410000I0J-100000D01*
G01*
X103498000Y-124610000D01*
G75*
G02*
X103398000Y-124710000I-100000J0D01*
G01*
G37*
G36*
G01*
X103398000Y-125360000D02*
X101848000Y-125360000D01*
G75*
G02*
X101748000Y-125260000I0J100000D01*
G01*
X101748000Y-125060000D01*
G75*
G02*
X101848000Y-124960000I100000J0D01*
G01*
X103398000Y-124960000D01*
G75*
G02*
X103498000Y-125060000I0J-100000D01*
G01*
X103498000Y-125260000D01*
G75*
G02*
X103398000Y-125360000I-100000J0D01*
G01*
G37*
G36*
G01*
X103398000Y-126010000D02*
X101848000Y-126010000D01*
G75*
G02*
X101748000Y-125910000I0J100000D01*
G01*
X101748000Y-125710000D01*
G75*
G02*
X101848000Y-125610000I100000J0D01*
G01*
X103398000Y-125610000D01*
G75*
G02*
X103498000Y-125710000I0J-100000D01*
G01*
X103498000Y-125910000D01*
G75*
G02*
X103398000Y-126010000I-100000J0D01*
G01*
G37*
G36*
G01*
X103398000Y-126660000D02*
X101848000Y-126660000D01*
G75*
G02*
X101748000Y-126560000I0J100000D01*
G01*
X101748000Y-126360000D01*
G75*
G02*
X101848000Y-126260000I100000J0D01*
G01*
X103398000Y-126260000D01*
G75*
G02*
X103498000Y-126360000I0J-100000D01*
G01*
X103498000Y-126560000D01*
G75*
G02*
X103398000Y-126660000I-100000J0D01*
G01*
G37*
G36*
G01*
X103398000Y-127310000D02*
X101848000Y-127310000D01*
G75*
G02*
X101748000Y-127210000I0J100000D01*
G01*
X101748000Y-127010000D01*
G75*
G02*
X101848000Y-126910000I100000J0D01*
G01*
X103398000Y-126910000D01*
G75*
G02*
X103498000Y-127010000I0J-100000D01*
G01*
X103498000Y-127210000D01*
G75*
G02*
X103398000Y-127310000I-100000J0D01*
G01*
G37*
G36*
G01*
X103398000Y-127960000D02*
X101848000Y-127960000D01*
G75*
G02*
X101748000Y-127860000I0J100000D01*
G01*
X101748000Y-127660000D01*
G75*
G02*
X101848000Y-127560000I100000J0D01*
G01*
X103398000Y-127560000D01*
G75*
G02*
X103498000Y-127660000I0J-100000D01*
G01*
X103498000Y-127860000D01*
G75*
G02*
X103398000Y-127960000I-100000J0D01*
G01*
G37*
G36*
G01*
X103398000Y-121460000D02*
X101848000Y-121460000D01*
G75*
G02*
X101748000Y-121360000I0J100000D01*
G01*
X101748000Y-121160000D01*
G75*
G02*
X101848000Y-121060000I100000J0D01*
G01*
X103398000Y-121060000D01*
G75*
G02*
X103498000Y-121160000I0J-100000D01*
G01*
X103498000Y-121360000D01*
G75*
G02*
X103398000Y-121460000I-100000J0D01*
G01*
G37*
G36*
G01*
X103398000Y-122110000D02*
X101848000Y-122110000D01*
G75*
G02*
X101748000Y-122010000I0J100000D01*
G01*
X101748000Y-121810000D01*
G75*
G02*
X101848000Y-121710000I100000J0D01*
G01*
X103398000Y-121710000D01*
G75*
G02*
X103498000Y-121810000I0J-100000D01*
G01*
X103498000Y-122010000D01*
G75*
G02*
X103398000Y-122110000I-100000J0D01*
G01*
G37*
G36*
G01*
X103398000Y-122760000D02*
X101848000Y-122760000D01*
G75*
G02*
X101748000Y-122660000I0J100000D01*
G01*
X101748000Y-122460000D01*
G75*
G02*
X101848000Y-122360000I100000J0D01*
G01*
X103398000Y-122360000D01*
G75*
G02*
X103498000Y-122460000I0J-100000D01*
G01*
X103498000Y-122660000D01*
G75*
G02*
X103398000Y-122760000I-100000J0D01*
G01*
G37*
G36*
G01*
X103398000Y-123410000D02*
X101848000Y-123410000D01*
G75*
G02*
X101748000Y-123310000I0J100000D01*
G01*
X101748000Y-123110000D01*
G75*
G02*
X101848000Y-123010000I100000J0D01*
G01*
X103398000Y-123010000D01*
G75*
G02*
X103498000Y-123110000I0J-100000D01*
G01*
X103498000Y-123310000D01*
G75*
G02*
X103398000Y-123410000I-100000J0D01*
G01*
G37*
G36*
G01*
X103398000Y-124060000D02*
X101848000Y-124060000D01*
G75*
G02*
X101748000Y-123960000I0J100000D01*
G01*
X101748000Y-123760000D01*
G75*
G02*
X101848000Y-123660000I100000J0D01*
G01*
X103398000Y-123660000D01*
G75*
G02*
X103498000Y-123760000I0J-100000D01*
G01*
X103498000Y-123960000D01*
G75*
G02*
X103398000Y-124060000I-100000J0D01*
G01*
G37*
G36*
G01*
X105973000Y-116685000D02*
X105773000Y-116685000D01*
G75*
G02*
X105673000Y-116585000I0J100000D01*
G01*
X105673000Y-115035000D01*
G75*
G02*
X105773000Y-114935000I100000J0D01*
G01*
X105973000Y-114935000D01*
G75*
G02*
X106073000Y-115035000I0J-100000D01*
G01*
X106073000Y-116585000D01*
G75*
G02*
X105973000Y-116685000I-100000J0D01*
G01*
G37*
G36*
G01*
X105323000Y-116685000D02*
X105123000Y-116685000D01*
G75*
G02*
X105023000Y-116585000I0J100000D01*
G01*
X105023000Y-115035000D01*
G75*
G02*
X105123000Y-114935000I100000J0D01*
G01*
X105323000Y-114935000D01*
G75*
G02*
X105423000Y-115035000I0J-100000D01*
G01*
X105423000Y-116585000D01*
G75*
G02*
X105323000Y-116685000I-100000J0D01*
G01*
G37*
G36*
G01*
X127548000Y-129260000D02*
X125998000Y-129260000D01*
G75*
G02*
X125898000Y-129160000I0J100000D01*
G01*
X125898000Y-128960000D01*
G75*
G02*
X125998000Y-128860000I100000J0D01*
G01*
X127548000Y-128860000D01*
G75*
G02*
X127648000Y-128960000I0J-100000D01*
G01*
X127648000Y-129160000D01*
G75*
G02*
X127548000Y-129260000I-100000J0D01*
G01*
G37*
G36*
G01*
X127548000Y-129910000D02*
X125998000Y-129910000D01*
G75*
G02*
X125898000Y-129810000I0J100000D01*
G01*
X125898000Y-129610000D01*
G75*
G02*
X125998000Y-129510000I100000J0D01*
G01*
X127548000Y-129510000D01*
G75*
G02*
X127648000Y-129610000I0J-100000D01*
G01*
X127648000Y-129810000D01*
G75*
G02*
X127548000Y-129910000I-100000J0D01*
G01*
G37*
G36*
G01*
X127548000Y-130560000D02*
X125998000Y-130560000D01*
G75*
G02*
X125898000Y-130460000I0J100000D01*
G01*
X125898000Y-130260000D01*
G75*
G02*
X125998000Y-130160000I100000J0D01*
G01*
X127548000Y-130160000D01*
G75*
G02*
X127648000Y-130260000I0J-100000D01*
G01*
X127648000Y-130460000D01*
G75*
G02*
X127548000Y-130560000I-100000J0D01*
G01*
G37*
G36*
G01*
X127548000Y-127960000D02*
X125998000Y-127960000D01*
G75*
G02*
X125898000Y-127860000I0J100000D01*
G01*
X125898000Y-127660000D01*
G75*
G02*
X125998000Y-127560000I100000J0D01*
G01*
X127548000Y-127560000D01*
G75*
G02*
X127648000Y-127660000I0J-100000D01*
G01*
X127648000Y-127860000D01*
G75*
G02*
X127548000Y-127960000I-100000J0D01*
G01*
G37*
G36*
G01*
X127548000Y-120160000D02*
X125998000Y-120160000D01*
G75*
G02*
X125898000Y-120060000I0J100000D01*
G01*
X125898000Y-119860000D01*
G75*
G02*
X125998000Y-119760000I100000J0D01*
G01*
X127548000Y-119760000D01*
G75*
G02*
X127648000Y-119860000I0J-100000D01*
G01*
X127648000Y-120060000D01*
G75*
G02*
X127548000Y-120160000I-100000J0D01*
G01*
G37*
G36*
G01*
X123523000Y-116685000D02*
X123323000Y-116685000D01*
G75*
G02*
X123223000Y-116585000I0J100000D01*
G01*
X123223000Y-115035000D01*
G75*
G02*
X123323000Y-114935000I100000J0D01*
G01*
X123523000Y-114935000D01*
G75*
G02*
X123623000Y-115035000I0J-100000D01*
G01*
X123623000Y-116585000D01*
G75*
G02*
X123523000Y-116685000I-100000J0D01*
G01*
G37*
G36*
G01*
X127548000Y-119510000D02*
X125998000Y-119510000D01*
G75*
G02*
X125898000Y-119410000I0J100000D01*
G01*
X125898000Y-119210000D01*
G75*
G02*
X125998000Y-119110000I100000J0D01*
G01*
X127548000Y-119110000D01*
G75*
G02*
X127648000Y-119210000I0J-100000D01*
G01*
X127648000Y-119410000D01*
G75*
G02*
X127548000Y-119510000I-100000J0D01*
G01*
G37*
%TD*%
D14*
%TO.C,U3*%
X40700000Y-102150000D03*
X78800000Y-117390000D03*
X43240000Y-102150000D03*
X76260000Y-117390000D03*
X45780000Y-102150000D03*
X73720000Y-117390000D03*
X48320000Y-102150000D03*
X71180000Y-117390000D03*
X50860000Y-102150000D03*
X68640000Y-117390000D03*
X53400000Y-102150000D03*
X66100000Y-117390000D03*
X55940000Y-102150000D03*
X63560000Y-117390000D03*
X58480000Y-102150000D03*
X61020000Y-117390000D03*
X61020000Y-102150000D03*
X58480000Y-117390000D03*
X63560000Y-102150000D03*
X55940000Y-117390000D03*
X66100000Y-102150000D03*
X53400000Y-117390000D03*
X68640000Y-102150000D03*
X50860000Y-117390000D03*
X71180000Y-102150000D03*
X48320000Y-117390000D03*
X73720000Y-102150000D03*
X45780000Y-117390000D03*
X76260000Y-102150000D03*
X43240000Y-117390000D03*
X78800000Y-102150000D03*
D15*
X40700000Y-117390000D03*
%TD*%
%TO.C,C12*%
G36*
G01*
X111888400Y-113253000D02*
X111548400Y-113253000D01*
G75*
G02*
X111408400Y-113113000I0J140000D01*
G01*
X111408400Y-112833000D01*
G75*
G02*
X111548400Y-112693000I140000J0D01*
G01*
X111888400Y-112693000D01*
G75*
G02*
X112028400Y-112833000I0J-140000D01*
G01*
X112028400Y-113113000D01*
G75*
G02*
X111888400Y-113253000I-140000J0D01*
G01*
G37*
G36*
G01*
X111888400Y-114213000D02*
X111548400Y-114213000D01*
G75*
G02*
X111408400Y-114073000I0J140000D01*
G01*
X111408400Y-113793000D01*
G75*
G02*
X111548400Y-113653000I140000J0D01*
G01*
X111888400Y-113653000D01*
G75*
G02*
X112028400Y-113793000I0J-140000D01*
G01*
X112028400Y-114073000D01*
G75*
G02*
X111888400Y-114213000I-140000J0D01*
G01*
G37*
%TD*%
%TO.C,FB1*%
G36*
G01*
X180339750Y-126482000D02*
X181102250Y-126482000D01*
G75*
G02*
X181321000Y-126700750I0J-218750D01*
G01*
X181321000Y-127138250D01*
G75*
G02*
X181102250Y-127357000I-218750J0D01*
G01*
X180339750Y-127357000D01*
G75*
G02*
X180121000Y-127138250I0J218750D01*
G01*
X180121000Y-126700750D01*
G75*
G02*
X180339750Y-126482000I218750J0D01*
G01*
G37*
G36*
G01*
X180339750Y-124357000D02*
X181102250Y-124357000D01*
G75*
G02*
X181321000Y-124575750I0J-218750D01*
G01*
X181321000Y-125013250D01*
G75*
G02*
X181102250Y-125232000I-218750J0D01*
G01*
X180339750Y-125232000D01*
G75*
G02*
X180121000Y-125013250I0J218750D01*
G01*
X180121000Y-124575750D01*
G75*
G02*
X180339750Y-124357000I218750J0D01*
G01*
G37*
%TD*%
D16*
%TO.C,H4*%
X189848056Y-93402944D03*
X188151000Y-92700000D03*
X186453944Y-93402944D03*
X185751000Y-95100000D03*
X186453944Y-96797056D03*
X188151000Y-97500000D03*
X189848056Y-96797056D03*
X190551000Y-95100000D03*
D17*
X188151000Y-95100000D03*
%TD*%
D16*
%TO.C,H3*%
X189848056Y-149917944D03*
X188151000Y-149215000D03*
X186453944Y-149917944D03*
X185751000Y-151615000D03*
X186453944Y-153312056D03*
X188151000Y-154015000D03*
X189848056Y-153312056D03*
X190551000Y-151615000D03*
D17*
X188151000Y-151615000D03*
%TD*%
%TO.C,R22*%
G36*
G01*
X128515000Y-105555000D02*
X128145000Y-105555000D01*
G75*
G02*
X128010000Y-105420000I0J135000D01*
G01*
X128010000Y-105150000D01*
G75*
G02*
X128145000Y-105015000I135000J0D01*
G01*
X128515000Y-105015000D01*
G75*
G02*
X128650000Y-105150000I0J-135000D01*
G01*
X128650000Y-105420000D01*
G75*
G02*
X128515000Y-105555000I-135000J0D01*
G01*
G37*
G36*
G01*
X128515000Y-104535000D02*
X128145000Y-104535000D01*
G75*
G02*
X128010000Y-104400000I0J135000D01*
G01*
X128010000Y-104130000D01*
G75*
G02*
X128145000Y-103995000I135000J0D01*
G01*
X128515000Y-103995000D01*
G75*
G02*
X128650000Y-104130000I0J-135000D01*
G01*
X128650000Y-104400000D01*
G75*
G02*
X128515000Y-104535000I-135000J0D01*
G01*
G37*
%TD*%
%TO.C,R21*%
G36*
G01*
X130995000Y-105555000D02*
X130625000Y-105555000D01*
G75*
G02*
X130490000Y-105420000I0J135000D01*
G01*
X130490000Y-105150000D01*
G75*
G02*
X130625000Y-105015000I135000J0D01*
G01*
X130995000Y-105015000D01*
G75*
G02*
X131130000Y-105150000I0J-135000D01*
G01*
X131130000Y-105420000D01*
G75*
G02*
X130995000Y-105555000I-135000J0D01*
G01*
G37*
G36*
G01*
X130995000Y-104535000D02*
X130625000Y-104535000D01*
G75*
G02*
X130490000Y-104400000I0J135000D01*
G01*
X130490000Y-104130000D01*
G75*
G02*
X130625000Y-103995000I135000J0D01*
G01*
X130995000Y-103995000D01*
G75*
G02*
X131130000Y-104130000I0J-135000D01*
G01*
X131130000Y-104400000D01*
G75*
G02*
X130995000Y-104535000I-135000J0D01*
G01*
G37*
%TD*%
%TO.C,R20*%
G36*
G01*
X133595000Y-105470000D02*
X133225000Y-105470000D01*
G75*
G02*
X133090000Y-105335000I0J135000D01*
G01*
X133090000Y-105065000D01*
G75*
G02*
X133225000Y-104930000I135000J0D01*
G01*
X133595000Y-104930000D01*
G75*
G02*
X133730000Y-105065000I0J-135000D01*
G01*
X133730000Y-105335000D01*
G75*
G02*
X133595000Y-105470000I-135000J0D01*
G01*
G37*
G36*
G01*
X133595000Y-104450000D02*
X133225000Y-104450000D01*
G75*
G02*
X133090000Y-104315000I0J135000D01*
G01*
X133090000Y-104045000D01*
G75*
G02*
X133225000Y-103910000I135000J0D01*
G01*
X133595000Y-103910000D01*
G75*
G02*
X133730000Y-104045000I0J-135000D01*
G01*
X133730000Y-104315000D01*
G75*
G02*
X133595000Y-104450000I-135000J0D01*
G01*
G37*
%TD*%
%TO.C,R19*%
G36*
G01*
X141215000Y-105470000D02*
X140845000Y-105470000D01*
G75*
G02*
X140710000Y-105335000I0J135000D01*
G01*
X140710000Y-105065000D01*
G75*
G02*
X140845000Y-104930000I135000J0D01*
G01*
X141215000Y-104930000D01*
G75*
G02*
X141350000Y-105065000I0J-135000D01*
G01*
X141350000Y-105335000D01*
G75*
G02*
X141215000Y-105470000I-135000J0D01*
G01*
G37*
G36*
G01*
X141215000Y-104450000D02*
X140845000Y-104450000D01*
G75*
G02*
X140710000Y-104315000I0J135000D01*
G01*
X140710000Y-104045000D01*
G75*
G02*
X140845000Y-103910000I135000J0D01*
G01*
X141215000Y-103910000D01*
G75*
G02*
X141350000Y-104045000I0J-135000D01*
G01*
X141350000Y-104315000D01*
G75*
G02*
X141215000Y-104450000I-135000J0D01*
G01*
G37*
%TD*%
%TO.C,R18*%
G36*
G01*
X143755000Y-105470000D02*
X143385000Y-105470000D01*
G75*
G02*
X143250000Y-105335000I0J135000D01*
G01*
X143250000Y-105065000D01*
G75*
G02*
X143385000Y-104930000I135000J0D01*
G01*
X143755000Y-104930000D01*
G75*
G02*
X143890000Y-105065000I0J-135000D01*
G01*
X143890000Y-105335000D01*
G75*
G02*
X143755000Y-105470000I-135000J0D01*
G01*
G37*
G36*
G01*
X143755000Y-104450000D02*
X143385000Y-104450000D01*
G75*
G02*
X143250000Y-104315000I0J135000D01*
G01*
X143250000Y-104045000D01*
G75*
G02*
X143385000Y-103910000I135000J0D01*
G01*
X143755000Y-103910000D01*
G75*
G02*
X143890000Y-104045000I0J-135000D01*
G01*
X143890000Y-104315000D01*
G75*
G02*
X143755000Y-104450000I-135000J0D01*
G01*
G37*
%TD*%
%TO.C,R17*%
G36*
G01*
X90415000Y-105470000D02*
X90045000Y-105470000D01*
G75*
G02*
X89910000Y-105335000I0J135000D01*
G01*
X89910000Y-105065000D01*
G75*
G02*
X90045000Y-104930000I135000J0D01*
G01*
X90415000Y-104930000D01*
G75*
G02*
X90550000Y-105065000I0J-135000D01*
G01*
X90550000Y-105335000D01*
G75*
G02*
X90415000Y-105470000I-135000J0D01*
G01*
G37*
G36*
G01*
X90415000Y-104450000D02*
X90045000Y-104450000D01*
G75*
G02*
X89910000Y-104315000I0J135000D01*
G01*
X89910000Y-104045000D01*
G75*
G02*
X90045000Y-103910000I135000J0D01*
G01*
X90415000Y-103910000D01*
G75*
G02*
X90550000Y-104045000I0J-135000D01*
G01*
X90550000Y-104315000D01*
G75*
G02*
X90415000Y-104450000I-135000J0D01*
G01*
G37*
%TD*%
%TO.C,R16*%
G36*
G01*
X92955000Y-105470000D02*
X92585000Y-105470000D01*
G75*
G02*
X92450000Y-105335000I0J135000D01*
G01*
X92450000Y-105065000D01*
G75*
G02*
X92585000Y-104930000I135000J0D01*
G01*
X92955000Y-104930000D01*
G75*
G02*
X93090000Y-105065000I0J-135000D01*
G01*
X93090000Y-105335000D01*
G75*
G02*
X92955000Y-105470000I-135000J0D01*
G01*
G37*
G36*
G01*
X92955000Y-104450000D02*
X92585000Y-104450000D01*
G75*
G02*
X92450000Y-104315000I0J135000D01*
G01*
X92450000Y-104045000D01*
G75*
G02*
X92585000Y-103910000I135000J0D01*
G01*
X92955000Y-103910000D01*
G75*
G02*
X93090000Y-104045000I0J-135000D01*
G01*
X93090000Y-104315000D01*
G75*
G02*
X92955000Y-104450000I-135000J0D01*
G01*
G37*
%TD*%
%TO.C,R15*%
G36*
G01*
X95495000Y-105470000D02*
X95125000Y-105470000D01*
G75*
G02*
X94990000Y-105335000I0J135000D01*
G01*
X94990000Y-105065000D01*
G75*
G02*
X95125000Y-104930000I135000J0D01*
G01*
X95495000Y-104930000D01*
G75*
G02*
X95630000Y-105065000I0J-135000D01*
G01*
X95630000Y-105335000D01*
G75*
G02*
X95495000Y-105470000I-135000J0D01*
G01*
G37*
G36*
G01*
X95495000Y-104450000D02*
X95125000Y-104450000D01*
G75*
G02*
X94990000Y-104315000I0J135000D01*
G01*
X94990000Y-104045000D01*
G75*
G02*
X95125000Y-103910000I135000J0D01*
G01*
X95495000Y-103910000D01*
G75*
G02*
X95630000Y-104045000I0J-135000D01*
G01*
X95630000Y-104315000D01*
G75*
G02*
X95495000Y-104450000I-135000J0D01*
G01*
G37*
%TD*%
%TO.C,R14*%
G36*
G01*
X98035000Y-105470000D02*
X97665000Y-105470000D01*
G75*
G02*
X97530000Y-105335000I0J135000D01*
G01*
X97530000Y-105065000D01*
G75*
G02*
X97665000Y-104930000I135000J0D01*
G01*
X98035000Y-104930000D01*
G75*
G02*
X98170000Y-105065000I0J-135000D01*
G01*
X98170000Y-105335000D01*
G75*
G02*
X98035000Y-105470000I-135000J0D01*
G01*
G37*
G36*
G01*
X98035000Y-104450000D02*
X97665000Y-104450000D01*
G75*
G02*
X97530000Y-104315000I0J135000D01*
G01*
X97530000Y-104045000D01*
G75*
G02*
X97665000Y-103910000I135000J0D01*
G01*
X98035000Y-103910000D01*
G75*
G02*
X98170000Y-104045000I0J-135000D01*
G01*
X98170000Y-104315000D01*
G75*
G02*
X98035000Y-104450000I-135000J0D01*
G01*
G37*
%TD*%
%TO.C,R13*%
G36*
G01*
X108135000Y-105472000D02*
X107765000Y-105472000D01*
G75*
G02*
X107630000Y-105337000I0J135000D01*
G01*
X107630000Y-105067000D01*
G75*
G02*
X107765000Y-104932000I135000J0D01*
G01*
X108135000Y-104932000D01*
G75*
G02*
X108270000Y-105067000I0J-135000D01*
G01*
X108270000Y-105337000D01*
G75*
G02*
X108135000Y-105472000I-135000J0D01*
G01*
G37*
G36*
G01*
X108135000Y-104452000D02*
X107765000Y-104452000D01*
G75*
G02*
X107630000Y-104317000I0J135000D01*
G01*
X107630000Y-104047000D01*
G75*
G02*
X107765000Y-103912000I135000J0D01*
G01*
X108135000Y-103912000D01*
G75*
G02*
X108270000Y-104047000I0J-135000D01*
G01*
X108270000Y-104317000D01*
G75*
G02*
X108135000Y-104452000I-135000J0D01*
G01*
G37*
%TD*%
%TO.C,R12*%
G36*
G01*
X110675000Y-105470000D02*
X110305000Y-105470000D01*
G75*
G02*
X110170000Y-105335000I0J135000D01*
G01*
X110170000Y-105065000D01*
G75*
G02*
X110305000Y-104930000I135000J0D01*
G01*
X110675000Y-104930000D01*
G75*
G02*
X110810000Y-105065000I0J-135000D01*
G01*
X110810000Y-105335000D01*
G75*
G02*
X110675000Y-105470000I-135000J0D01*
G01*
G37*
G36*
G01*
X110675000Y-104450000D02*
X110305000Y-104450000D01*
G75*
G02*
X110170000Y-104315000I0J135000D01*
G01*
X110170000Y-104045000D01*
G75*
G02*
X110305000Y-103910000I135000J0D01*
G01*
X110675000Y-103910000D01*
G75*
G02*
X110810000Y-104045000I0J-135000D01*
G01*
X110810000Y-104315000D01*
G75*
G02*
X110675000Y-104450000I-135000J0D01*
G01*
G37*
%TD*%
%TO.C,R11*%
G36*
G01*
X113215000Y-105470000D02*
X112845000Y-105470000D01*
G75*
G02*
X112710000Y-105335000I0J135000D01*
G01*
X112710000Y-105065000D01*
G75*
G02*
X112845000Y-104930000I135000J0D01*
G01*
X113215000Y-104930000D01*
G75*
G02*
X113350000Y-105065000I0J-135000D01*
G01*
X113350000Y-105335000D01*
G75*
G02*
X113215000Y-105470000I-135000J0D01*
G01*
G37*
G36*
G01*
X113215000Y-104450000D02*
X112845000Y-104450000D01*
G75*
G02*
X112710000Y-104315000I0J135000D01*
G01*
X112710000Y-104045000D01*
G75*
G02*
X112845000Y-103910000I135000J0D01*
G01*
X113215000Y-103910000D01*
G75*
G02*
X113350000Y-104045000I0J-135000D01*
G01*
X113350000Y-104315000D01*
G75*
G02*
X113215000Y-104450000I-135000J0D01*
G01*
G37*
%TD*%
%TO.C,R10*%
G36*
G01*
X115755000Y-105428000D02*
X115385000Y-105428000D01*
G75*
G02*
X115250000Y-105293000I0J135000D01*
G01*
X115250000Y-105023000D01*
G75*
G02*
X115385000Y-104888000I135000J0D01*
G01*
X115755000Y-104888000D01*
G75*
G02*
X115890000Y-105023000I0J-135000D01*
G01*
X115890000Y-105293000D01*
G75*
G02*
X115755000Y-105428000I-135000J0D01*
G01*
G37*
G36*
G01*
X115755000Y-104408000D02*
X115385000Y-104408000D01*
G75*
G02*
X115250000Y-104273000I0J135000D01*
G01*
X115250000Y-104003000D01*
G75*
G02*
X115385000Y-103868000I135000J0D01*
G01*
X115755000Y-103868000D01*
G75*
G02*
X115890000Y-104003000I0J-135000D01*
G01*
X115890000Y-104273000D01*
G75*
G02*
X115755000Y-104408000I-135000J0D01*
G01*
G37*
%TD*%
%TO.C,R9*%
G36*
G01*
X118295000Y-105470000D02*
X117925000Y-105470000D01*
G75*
G02*
X117790000Y-105335000I0J135000D01*
G01*
X117790000Y-105065000D01*
G75*
G02*
X117925000Y-104930000I135000J0D01*
G01*
X118295000Y-104930000D01*
G75*
G02*
X118430000Y-105065000I0J-135000D01*
G01*
X118430000Y-105335000D01*
G75*
G02*
X118295000Y-105470000I-135000J0D01*
G01*
G37*
G36*
G01*
X118295000Y-104450000D02*
X117925000Y-104450000D01*
G75*
G02*
X117790000Y-104315000I0J135000D01*
G01*
X117790000Y-104045000D01*
G75*
G02*
X117925000Y-103910000I135000J0D01*
G01*
X118295000Y-103910000D01*
G75*
G02*
X118430000Y-104045000I0J-135000D01*
G01*
X118430000Y-104315000D01*
G75*
G02*
X118295000Y-104450000I-135000J0D01*
G01*
G37*
%TD*%
%TO.C,R8*%
G36*
G01*
X156395000Y-105555000D02*
X156025000Y-105555000D01*
G75*
G02*
X155890000Y-105420000I0J135000D01*
G01*
X155890000Y-105150000D01*
G75*
G02*
X156025000Y-105015000I135000J0D01*
G01*
X156395000Y-105015000D01*
G75*
G02*
X156530000Y-105150000I0J-135000D01*
G01*
X156530000Y-105420000D01*
G75*
G02*
X156395000Y-105555000I-135000J0D01*
G01*
G37*
G36*
G01*
X156395000Y-104535000D02*
X156025000Y-104535000D01*
G75*
G02*
X155890000Y-104400000I0J135000D01*
G01*
X155890000Y-104130000D01*
G75*
G02*
X156025000Y-103995000I135000J0D01*
G01*
X156395000Y-103995000D01*
G75*
G02*
X156530000Y-104130000I0J-135000D01*
G01*
X156530000Y-104400000D01*
G75*
G02*
X156395000Y-104535000I-135000J0D01*
G01*
G37*
%TD*%
%TO.C,R7*%
G36*
G01*
X150045000Y-105555000D02*
X149675000Y-105555000D01*
G75*
G02*
X149540000Y-105420000I0J135000D01*
G01*
X149540000Y-105150000D01*
G75*
G02*
X149675000Y-105015000I135000J0D01*
G01*
X150045000Y-105015000D01*
G75*
G02*
X150180000Y-105150000I0J-135000D01*
G01*
X150180000Y-105420000D01*
G75*
G02*
X150045000Y-105555000I-135000J0D01*
G01*
G37*
G36*
G01*
X150045000Y-104535000D02*
X149675000Y-104535000D01*
G75*
G02*
X149540000Y-104400000I0J135000D01*
G01*
X149540000Y-104130000D01*
G75*
G02*
X149675000Y-103995000I135000J0D01*
G01*
X150045000Y-103995000D01*
G75*
G02*
X150180000Y-104130000I0J-135000D01*
G01*
X150180000Y-104400000D01*
G75*
G02*
X150045000Y-104535000I-135000J0D01*
G01*
G37*
%TD*%
%TO.C,R6*%
G36*
G01*
X115815000Y-114244999D02*
X115445000Y-114244999D01*
G75*
G02*
X115310000Y-114109999I0J135000D01*
G01*
X115310000Y-113839999D01*
G75*
G02*
X115445000Y-113704999I135000J0D01*
G01*
X115815000Y-113704999D01*
G75*
G02*
X115950000Y-113839999I0J-135000D01*
G01*
X115950000Y-114109999D01*
G75*
G02*
X115815000Y-114244999I-135000J0D01*
G01*
G37*
G36*
G01*
X115815000Y-113224999D02*
X115445000Y-113224999D01*
G75*
G02*
X115310000Y-113089999I0J135000D01*
G01*
X115310000Y-112819999D01*
G75*
G02*
X115445000Y-112684999I135000J0D01*
G01*
X115815000Y-112684999D01*
G75*
G02*
X115950000Y-112819999I0J-135000D01*
G01*
X115950000Y-113089999D01*
G75*
G02*
X115815000Y-113224999I-135000J0D01*
G01*
G37*
%TD*%
D18*
%TO.C,J9*%
X128270000Y-99060000D03*
D19*
X128270000Y-96520000D03*
X130810000Y-99060000D03*
X130810000Y-96520000D03*
X133350000Y-99060000D03*
X133350000Y-96520000D03*
%TD*%
D18*
%TO.C,J8*%
X140970000Y-99060000D03*
D19*
X140970000Y-96520000D03*
X143510000Y-99060000D03*
X143510000Y-96520000D03*
%TD*%
D18*
%TO.C,J7*%
X90170000Y-99060000D03*
D19*
X90170000Y-96520000D03*
X92710000Y-99060000D03*
X92710000Y-96520000D03*
X95250000Y-99060000D03*
X95250000Y-96520000D03*
X97790000Y-99060000D03*
X97790000Y-96520000D03*
%TD*%
D18*
%TO.C,J6*%
X107950000Y-99060000D03*
D19*
X107950000Y-96520000D03*
X110490000Y-99060000D03*
X110490000Y-96520000D03*
X113030000Y-99060000D03*
X113030000Y-96520000D03*
X115570000Y-99060000D03*
X115570000Y-96520000D03*
X118110000Y-99060000D03*
X118110000Y-96520000D03*
%TD*%
D18*
%TO.C,J5*%
X156210000Y-99060000D03*
D19*
X156210000Y-96520000D03*
%TD*%
D18*
%TO.C,J4*%
X149860000Y-99060000D03*
D19*
X149860000Y-96520000D03*
%TD*%
%TO.C,C15*%
G36*
G01*
X128203000Y-120815000D02*
X128203000Y-120475000D01*
G75*
G02*
X128343000Y-120335000I140000J0D01*
G01*
X128623000Y-120335000D01*
G75*
G02*
X128763000Y-120475000I0J-140000D01*
G01*
X128763000Y-120815000D01*
G75*
G02*
X128623000Y-120955000I-140000J0D01*
G01*
X128343000Y-120955000D01*
G75*
G02*
X128203000Y-120815000I0J140000D01*
G01*
G37*
G36*
G01*
X129163000Y-120815000D02*
X129163000Y-120475000D01*
G75*
G02*
X129303000Y-120335000I140000J0D01*
G01*
X129583000Y-120335000D01*
G75*
G02*
X129723000Y-120475000I0J-140000D01*
G01*
X129723000Y-120815000D01*
G75*
G02*
X129583000Y-120955000I-140000J0D01*
G01*
X129303000Y-120955000D01*
G75*
G02*
X129163000Y-120815000I0J140000D01*
G01*
G37*
%TD*%
%TO.C,C6*%
G36*
G01*
X101018000Y-123675400D02*
X101018000Y-124015400D01*
G75*
G02*
X100878000Y-124155400I-140000J0D01*
G01*
X100598000Y-124155400D01*
G75*
G02*
X100458000Y-124015400I0J140000D01*
G01*
X100458000Y-123675400D01*
G75*
G02*
X100598000Y-123535400I140000J0D01*
G01*
X100878000Y-123535400D01*
G75*
G02*
X101018000Y-123675400I0J-140000D01*
G01*
G37*
G36*
G01*
X100058000Y-123675400D02*
X100058000Y-124015400D01*
G75*
G02*
X99918000Y-124155400I-140000J0D01*
G01*
X99638000Y-124155400D01*
G75*
G02*
X99498000Y-124015400I0J140000D01*
G01*
X99498000Y-123675400D01*
G75*
G02*
X99638000Y-123535400I140000J0D01*
G01*
X99918000Y-123535400D01*
G75*
G02*
X100058000Y-123675400I0J-140000D01*
G01*
G37*
%TD*%
%TO.C,C5*%
G36*
G01*
X40870000Y-99862000D02*
X40530000Y-99862000D01*
G75*
G02*
X40390000Y-99722000I0J140000D01*
G01*
X40390000Y-99442000D01*
G75*
G02*
X40530000Y-99302000I140000J0D01*
G01*
X40870000Y-99302000D01*
G75*
G02*
X41010000Y-99442000I0J-140000D01*
G01*
X41010000Y-99722000D01*
G75*
G02*
X40870000Y-99862000I-140000J0D01*
G01*
G37*
G36*
G01*
X40870000Y-98902000D02*
X40530000Y-98902000D01*
G75*
G02*
X40390000Y-98762000I0J140000D01*
G01*
X40390000Y-98482000D01*
G75*
G02*
X40530000Y-98342000I140000J0D01*
G01*
X40870000Y-98342000D01*
G75*
G02*
X41010000Y-98482000I0J-140000D01*
G01*
X41010000Y-98762000D01*
G75*
G02*
X40870000Y-98902000I-140000J0D01*
G01*
G37*
%TD*%
%TO.C,C4*%
G36*
G01*
X108303000Y-135460000D02*
X108643000Y-135460000D01*
G75*
G02*
X108783000Y-135600000I0J-140000D01*
G01*
X108783000Y-135880000D01*
G75*
G02*
X108643000Y-136020000I-140000J0D01*
G01*
X108303000Y-136020000D01*
G75*
G02*
X108163000Y-135880000I0J140000D01*
G01*
X108163000Y-135600000D01*
G75*
G02*
X108303000Y-135460000I140000J0D01*
G01*
G37*
G36*
G01*
X108303000Y-136420000D02*
X108643000Y-136420000D01*
G75*
G02*
X108783000Y-136560000I0J-140000D01*
G01*
X108783000Y-136840000D01*
G75*
G02*
X108643000Y-136980000I-140000J0D01*
G01*
X108303000Y-136980000D01*
G75*
G02*
X108163000Y-136840000I0J140000D01*
G01*
X108163000Y-136560000D01*
G75*
G02*
X108303000Y-136420000I140000J0D01*
G01*
G37*
%TD*%
%TO.C,C3*%
G36*
G01*
X115469000Y-135460000D02*
X115809000Y-135460000D01*
G75*
G02*
X115949000Y-135600000I0J-140000D01*
G01*
X115949000Y-135880000D01*
G75*
G02*
X115809000Y-136020000I-140000J0D01*
G01*
X115469000Y-136020000D01*
G75*
G02*
X115329000Y-135880000I0J140000D01*
G01*
X115329000Y-135600000D01*
G75*
G02*
X115469000Y-135460000I140000J0D01*
G01*
G37*
G36*
G01*
X115469000Y-136420000D02*
X115809000Y-136420000D01*
G75*
G02*
X115949000Y-136560000I0J-140000D01*
G01*
X115949000Y-136840000D01*
G75*
G02*
X115809000Y-136980000I-140000J0D01*
G01*
X115469000Y-136980000D01*
G75*
G02*
X115329000Y-136840000I0J140000D01*
G01*
X115329000Y-136560000D01*
G75*
G02*
X115469000Y-136420000I140000J0D01*
G01*
G37*
%TD*%
%TO.C,C2*%
G36*
G01*
X127120000Y-135820001D02*
X127120000Y-134519999D01*
G75*
G02*
X127369999Y-134270000I249999J0D01*
G01*
X128020001Y-134270000D01*
G75*
G02*
X128270000Y-134519999I0J-249999D01*
G01*
X128270000Y-135820001D01*
G75*
G02*
X128020001Y-136070000I-249999J0D01*
G01*
X127369999Y-136070000D01*
G75*
G02*
X127120000Y-135820001I0J249999D01*
G01*
G37*
G36*
G01*
X130070000Y-135820001D02*
X130070000Y-134519999D01*
G75*
G02*
X130319999Y-134270000I249999J0D01*
G01*
X130970001Y-134270000D01*
G75*
G02*
X131220000Y-134519999I0J-249999D01*
G01*
X131220000Y-135820001D01*
G75*
G02*
X130970001Y-136070000I-249999J0D01*
G01*
X130319999Y-136070000D01*
G75*
G02*
X130070000Y-135820001I0J249999D01*
G01*
G37*
%TD*%
D20*
%TO.C,H2*%
X191770000Y-162179000D03*
%TD*%
%TO.C,H1*%
X36703000Y-90551000D03*
%TD*%
D21*
%TO.C,Y1*%
X130967000Y-112433000D03*
X130967000Y-114633000D03*
X129267000Y-114633000D03*
X129267000Y-112433000D03*
%TD*%
%TO.C,U2*%
G36*
G01*
X73595000Y-111300000D02*
X73895000Y-111300000D01*
G75*
G02*
X74045000Y-111450000I0J-150000D01*
G01*
X74045000Y-113100000D01*
G75*
G02*
X73895000Y-113250000I-150000J0D01*
G01*
X73595000Y-113250000D01*
G75*
G02*
X73445000Y-113100000I0J150000D01*
G01*
X73445000Y-111450000D01*
G75*
G02*
X73595000Y-111300000I150000J0D01*
G01*
G37*
G36*
G01*
X72325000Y-111300000D02*
X72625000Y-111300000D01*
G75*
G02*
X72775000Y-111450000I0J-150000D01*
G01*
X72775000Y-113100000D01*
G75*
G02*
X72625000Y-113250000I-150000J0D01*
G01*
X72325000Y-113250000D01*
G75*
G02*
X72175000Y-113100000I0J150000D01*
G01*
X72175000Y-111450000D01*
G75*
G02*
X72325000Y-111300000I150000J0D01*
G01*
G37*
G36*
G01*
X71055000Y-111300000D02*
X71355000Y-111300000D01*
G75*
G02*
X71505000Y-111450000I0J-150000D01*
G01*
X71505000Y-113100000D01*
G75*
G02*
X71355000Y-113250000I-150000J0D01*
G01*
X71055000Y-113250000D01*
G75*
G02*
X70905000Y-113100000I0J150000D01*
G01*
X70905000Y-111450000D01*
G75*
G02*
X71055000Y-111300000I150000J0D01*
G01*
G37*
G36*
G01*
X69785000Y-111300000D02*
X70085000Y-111300000D01*
G75*
G02*
X70235000Y-111450000I0J-150000D01*
G01*
X70235000Y-113100000D01*
G75*
G02*
X70085000Y-113250000I-150000J0D01*
G01*
X69785000Y-113250000D01*
G75*
G02*
X69635000Y-113100000I0J150000D01*
G01*
X69635000Y-111450000D01*
G75*
G02*
X69785000Y-111300000I150000J0D01*
G01*
G37*
G36*
G01*
X69785000Y-106350000D02*
X70085000Y-106350000D01*
G75*
G02*
X70235000Y-106500000I0J-150000D01*
G01*
X70235000Y-108150000D01*
G75*
G02*
X70085000Y-108300000I-150000J0D01*
G01*
X69785000Y-108300000D01*
G75*
G02*
X69635000Y-108150000I0J150000D01*
G01*
X69635000Y-106500000D01*
G75*
G02*
X69785000Y-106350000I150000J0D01*
G01*
G37*
G36*
G01*
X71055000Y-106350000D02*
X71355000Y-106350000D01*
G75*
G02*
X71505000Y-106500000I0J-150000D01*
G01*
X71505000Y-108150000D01*
G75*
G02*
X71355000Y-108300000I-150000J0D01*
G01*
X71055000Y-108300000D01*
G75*
G02*
X70905000Y-108150000I0J150000D01*
G01*
X70905000Y-106500000D01*
G75*
G02*
X71055000Y-106350000I150000J0D01*
G01*
G37*
G36*
G01*
X72325000Y-106350000D02*
X72625000Y-106350000D01*
G75*
G02*
X72775000Y-106500000I0J-150000D01*
G01*
X72775000Y-108150000D01*
G75*
G02*
X72625000Y-108300000I-150000J0D01*
G01*
X72325000Y-108300000D01*
G75*
G02*
X72175000Y-108150000I0J150000D01*
G01*
X72175000Y-106500000D01*
G75*
G02*
X72325000Y-106350000I150000J0D01*
G01*
G37*
G36*
G01*
X73595000Y-106350000D02*
X73895000Y-106350000D01*
G75*
G02*
X74045000Y-106500000I0J-150000D01*
G01*
X74045000Y-108150000D01*
G75*
G02*
X73895000Y-108300000I-150000J0D01*
G01*
X73595000Y-108300000D01*
G75*
G02*
X73445000Y-108150000I0J150000D01*
G01*
X73445000Y-106500000D01*
G75*
G02*
X73595000Y-106350000I150000J0D01*
G01*
G37*
%TD*%
D22*
%TO.C,T1*%
X169750000Y-108839000D03*
X169750000Y-110109000D03*
X169750000Y-111379000D03*
X169750000Y-115189000D03*
X169750000Y-116459000D03*
X169750000Y-117729000D03*
X160450000Y-117729000D03*
X160450000Y-116459000D03*
X160450000Y-115189000D03*
X160450000Y-111379000D03*
X160450000Y-110109000D03*
X160450000Y-108839000D03*
%TD*%
%TO.C,R5*%
G36*
G01*
X179431500Y-96166500D02*
X179801500Y-96166500D01*
G75*
G02*
X179936500Y-96301500I0J-135000D01*
G01*
X179936500Y-96571500D01*
G75*
G02*
X179801500Y-96706500I-135000J0D01*
G01*
X179431500Y-96706500D01*
G75*
G02*
X179296500Y-96571500I0J135000D01*
G01*
X179296500Y-96301500D01*
G75*
G02*
X179431500Y-96166500I135000J0D01*
G01*
G37*
G36*
G01*
X179431500Y-97186500D02*
X179801500Y-97186500D01*
G75*
G02*
X179936500Y-97321500I0J-135000D01*
G01*
X179936500Y-97591500D01*
G75*
G02*
X179801500Y-97726500I-135000J0D01*
G01*
X179431500Y-97726500D01*
G75*
G02*
X179296500Y-97591500I0J135000D01*
G01*
X179296500Y-97321500D01*
G75*
G02*
X179431500Y-97186500I135000J0D01*
G01*
G37*
%TD*%
%TO.C,R4*%
G36*
G01*
X180786500Y-97183000D02*
X181156500Y-97183000D01*
G75*
G02*
X181291500Y-97318000I0J-135000D01*
G01*
X181291500Y-97588000D01*
G75*
G02*
X181156500Y-97723000I-135000J0D01*
G01*
X180786500Y-97723000D01*
G75*
G02*
X180651500Y-97588000I0J135000D01*
G01*
X180651500Y-97318000D01*
G75*
G02*
X180786500Y-97183000I135000J0D01*
G01*
G37*
G36*
G01*
X180786500Y-96163000D02*
X181156500Y-96163000D01*
G75*
G02*
X181291500Y-96298000I0J-135000D01*
G01*
X181291500Y-96568000D01*
G75*
G02*
X181156500Y-96703000I-135000J0D01*
G01*
X180786500Y-96703000D01*
G75*
G02*
X180651500Y-96568000I0J135000D01*
G01*
X180651500Y-96298000D01*
G75*
G02*
X180786500Y-96163000I135000J0D01*
G01*
G37*
%TD*%
%TO.C,R3*%
G36*
G01*
X157676000Y-116699000D02*
X158046000Y-116699000D01*
G75*
G02*
X158181000Y-116834000I0J-135000D01*
G01*
X158181000Y-117104000D01*
G75*
G02*
X158046000Y-117239000I-135000J0D01*
G01*
X157676000Y-117239000D01*
G75*
G02*
X157541000Y-117104000I0J135000D01*
G01*
X157541000Y-116834000D01*
G75*
G02*
X157676000Y-116699000I135000J0D01*
G01*
G37*
G36*
G01*
X157676000Y-115679000D02*
X158046000Y-115679000D01*
G75*
G02*
X158181000Y-115814000I0J-135000D01*
G01*
X158181000Y-116084000D01*
G75*
G02*
X158046000Y-116219000I-135000J0D01*
G01*
X157676000Y-116219000D01*
G75*
G02*
X157541000Y-116084000I0J135000D01*
G01*
X157541000Y-115814000D01*
G75*
G02*
X157676000Y-115679000I135000J0D01*
G01*
G37*
%TD*%
%TO.C,R2*%
G36*
G01*
X126014109Y-115010480D02*
X125752480Y-115272109D01*
G75*
G02*
X125561562Y-115272109I-95459J95459D01*
G01*
X125370643Y-115081190D01*
G75*
G02*
X125370643Y-114890272I95459J95459D01*
G01*
X125632272Y-114628643D01*
G75*
G02*
X125823190Y-114628643I95459J-95459D01*
G01*
X126014109Y-114819562D01*
G75*
G02*
X126014109Y-115010480I-95459J-95459D01*
G01*
G37*
G36*
G01*
X126735357Y-115731728D02*
X126473728Y-115993357D01*
G75*
G02*
X126282810Y-115993357I-95459J95459D01*
G01*
X126091891Y-115802438D01*
G75*
G02*
X126091891Y-115611520I95459J95459D01*
G01*
X126353520Y-115349891D01*
G75*
G02*
X126544438Y-115349891I95459J-95459D01*
G01*
X126735357Y-115540810D01*
G75*
G02*
X126735357Y-115731728I-95459J-95459D01*
G01*
G37*
%TD*%
%TO.C,R1*%
G36*
G01*
X100498000Y-128602400D02*
X100498000Y-128232400D01*
G75*
G02*
X100633000Y-128097400I135000J0D01*
G01*
X100903000Y-128097400D01*
G75*
G02*
X101038000Y-128232400I0J-135000D01*
G01*
X101038000Y-128602400D01*
G75*
G02*
X100903000Y-128737400I-135000J0D01*
G01*
X100633000Y-128737400D01*
G75*
G02*
X100498000Y-128602400I0J135000D01*
G01*
G37*
G36*
G01*
X99478000Y-128602400D02*
X99478000Y-128232400D01*
G75*
G02*
X99613000Y-128097400I135000J0D01*
G01*
X99883000Y-128097400D01*
G75*
G02*
X100018000Y-128232400I0J-135000D01*
G01*
X100018000Y-128602400D01*
G75*
G02*
X99883000Y-128737400I-135000J0D01*
G01*
X99613000Y-128737400D01*
G75*
G02*
X99478000Y-128602400I0J135000D01*
G01*
G37*
%TD*%
%TO.C,C14*%
G36*
G01*
X172577999Y-109612000D02*
X173878001Y-109612000D01*
G75*
G02*
X174128000Y-109861999I0J-249999D01*
G01*
X174128000Y-110512001D01*
G75*
G02*
X173878001Y-110762000I-249999J0D01*
G01*
X172577999Y-110762000D01*
G75*
G02*
X172328000Y-110512001I0J249999D01*
G01*
X172328000Y-109861999D01*
G75*
G02*
X172577999Y-109612000I249999J0D01*
G01*
G37*
G36*
G01*
X172577999Y-106662000D02*
X173878001Y-106662000D01*
G75*
G02*
X174128000Y-106911999I0J-249999D01*
G01*
X174128000Y-107562001D01*
G75*
G02*
X173878001Y-107812000I-249999J0D01*
G01*
X172577999Y-107812000D01*
G75*
G02*
X172328000Y-107562001I0J249999D01*
G01*
X172328000Y-106911999D01*
G75*
G02*
X172577999Y-106662000I249999J0D01*
G01*
G37*
%TD*%
%TO.C,C13*%
G36*
G01*
X172577999Y-118756000D02*
X173878001Y-118756000D01*
G75*
G02*
X174128000Y-119005999I0J-249999D01*
G01*
X174128000Y-119656001D01*
G75*
G02*
X173878001Y-119906000I-249999J0D01*
G01*
X172577999Y-119906000D01*
G75*
G02*
X172328000Y-119656001I0J249999D01*
G01*
X172328000Y-119005999D01*
G75*
G02*
X172577999Y-118756000I249999J0D01*
G01*
G37*
G36*
G01*
X172577999Y-115806000D02*
X173878001Y-115806000D01*
G75*
G02*
X174128000Y-116055999I0J-249999D01*
G01*
X174128000Y-116706001D01*
G75*
G02*
X173878001Y-116956000I-249999J0D01*
G01*
X172577999Y-116956000D01*
G75*
G02*
X172328000Y-116706001I0J249999D01*
G01*
X172328000Y-116055999D01*
G75*
G02*
X172577999Y-115806000I249999J0D01*
G01*
G37*
%TD*%
%TO.C,C11*%
G36*
G01*
X153147500Y-112294999D02*
X153147500Y-113595001D01*
G75*
G02*
X152897501Y-113845000I-249999J0D01*
G01*
X152247499Y-113845000D01*
G75*
G02*
X151997500Y-113595001I0J249999D01*
G01*
X151997500Y-112294999D01*
G75*
G02*
X152247499Y-112045000I249999J0D01*
G01*
X152897501Y-112045000D01*
G75*
G02*
X153147500Y-112294999I0J-249999D01*
G01*
G37*
G36*
G01*
X156097500Y-112294999D02*
X156097500Y-113595001D01*
G75*
G02*
X155847501Y-113845000I-249999J0D01*
G01*
X155197499Y-113845000D01*
G75*
G02*
X154947500Y-113595001I0J249999D01*
G01*
X154947500Y-112294999D01*
G75*
G02*
X155197499Y-112045000I249999J0D01*
G01*
X155847501Y-112045000D01*
G75*
G02*
X156097500Y-112294999I0J-249999D01*
G01*
G37*
%TD*%
%TO.C,C10*%
G36*
G01*
X161909999Y-104278000D02*
X163210001Y-104278000D01*
G75*
G02*
X163460000Y-104527999I0J-249999D01*
G01*
X163460000Y-105178001D01*
G75*
G02*
X163210001Y-105428000I-249999J0D01*
G01*
X161909999Y-105428000D01*
G75*
G02*
X161660000Y-105178001I0J249999D01*
G01*
X161660000Y-104527999D01*
G75*
G02*
X161909999Y-104278000I249999J0D01*
G01*
G37*
G36*
G01*
X161909999Y-101328000D02*
X163210001Y-101328000D01*
G75*
G02*
X163460000Y-101577999I0J-249999D01*
G01*
X163460000Y-102228001D01*
G75*
G02*
X163210001Y-102478000I-249999J0D01*
G01*
X161909999Y-102478000D01*
G75*
G02*
X161660000Y-102228001I0J249999D01*
G01*
X161660000Y-101577999D01*
G75*
G02*
X161909999Y-101328000I249999J0D01*
G01*
G37*
%TD*%
%TO.C,C9*%
G36*
G01*
X127112000Y-113178000D02*
X126772000Y-113178000D01*
G75*
G02*
X126632000Y-113038000I0J140000D01*
G01*
X126632000Y-112758000D01*
G75*
G02*
X126772000Y-112618000I140000J0D01*
G01*
X127112000Y-112618000D01*
G75*
G02*
X127252000Y-112758000I0J-140000D01*
G01*
X127252000Y-113038000D01*
G75*
G02*
X127112000Y-113178000I-140000J0D01*
G01*
G37*
G36*
G01*
X127112000Y-114138000D02*
X126772000Y-114138000D01*
G75*
G02*
X126632000Y-113998000I0J140000D01*
G01*
X126632000Y-113718000D01*
G75*
G02*
X126772000Y-113578000I140000J0D01*
G01*
X127112000Y-113578000D01*
G75*
G02*
X127252000Y-113718000I0J-140000D01*
G01*
X127252000Y-113998000D01*
G75*
G02*
X127112000Y-114138000I-140000J0D01*
G01*
G37*
%TD*%
%TO.C,C8*%
G36*
G01*
X132995000Y-113606000D02*
X133335000Y-113606000D01*
G75*
G02*
X133475000Y-113746000I0J-140000D01*
G01*
X133475000Y-114026000D01*
G75*
G02*
X133335000Y-114166000I-140000J0D01*
G01*
X132995000Y-114166000D01*
G75*
G02*
X132855000Y-114026000I0J140000D01*
G01*
X132855000Y-113746000D01*
G75*
G02*
X132995000Y-113606000I140000J0D01*
G01*
G37*
G36*
G01*
X132995000Y-112646000D02*
X133335000Y-112646000D01*
G75*
G02*
X133475000Y-112786000I0J-140000D01*
G01*
X133475000Y-113066000D01*
G75*
G02*
X133335000Y-113206000I-140000J0D01*
G01*
X132995000Y-113206000D01*
G75*
G02*
X132855000Y-113066000I0J140000D01*
G01*
X132855000Y-112786000D01*
G75*
G02*
X132995000Y-112646000I140000J0D01*
G01*
G37*
%TD*%
%TO.C,C7*%
G36*
G01*
X120346600Y-113255600D02*
X120006600Y-113255600D01*
G75*
G02*
X119866600Y-113115600I0J140000D01*
G01*
X119866600Y-112835600D01*
G75*
G02*
X120006600Y-112695600I140000J0D01*
G01*
X120346600Y-112695600D01*
G75*
G02*
X120486600Y-112835600I0J-140000D01*
G01*
X120486600Y-113115600D01*
G75*
G02*
X120346600Y-113255600I-140000J0D01*
G01*
G37*
G36*
G01*
X120346600Y-114215600D02*
X120006600Y-114215600D01*
G75*
G02*
X119866600Y-114075600I0J140000D01*
G01*
X119866600Y-113795600D01*
G75*
G02*
X120006600Y-113655600I140000J0D01*
G01*
X120346600Y-113655600D01*
G75*
G02*
X120486600Y-113795600I0J-140000D01*
G01*
X120486600Y-114075600D01*
G75*
G02*
X120346600Y-114215600I-140000J0D01*
G01*
G37*
%TD*%
%TO.C,C1*%
G36*
G01*
X76940000Y-112480000D02*
X76940000Y-112140000D01*
G75*
G02*
X77080000Y-112000000I140000J0D01*
G01*
X77360000Y-112000000D01*
G75*
G02*
X77500000Y-112140000I0J-140000D01*
G01*
X77500000Y-112480000D01*
G75*
G02*
X77360000Y-112620000I-140000J0D01*
G01*
X77080000Y-112620000D01*
G75*
G02*
X76940000Y-112480000I0J140000D01*
G01*
G37*
G36*
G01*
X75980000Y-112480000D02*
X75980000Y-112140000D01*
G75*
G02*
X76120000Y-112000000I140000J0D01*
G01*
X76400000Y-112000000D01*
G75*
G02*
X76540000Y-112140000I0J-140000D01*
G01*
X76540000Y-112480000D01*
G75*
G02*
X76400000Y-112620000I-140000J0D01*
G01*
X76120000Y-112620000D01*
G75*
G02*
X75980000Y-112480000I0J140000D01*
G01*
G37*
%TD*%
M02*
