M48
; DRILL file {KiCad 5.1.7} date Sun Nov 15 02:13:02 2020
; FORMAT={-:-/ absolute / metric / decimal}
; #@! TF.CreationDate,2020-11-15T02:13:02+01:00
; #@! TF.GenerationSoftware,Kicad,Pcbnew,5.1.7
; #@! TF.FileFunction,Plated,1,2,PTH
FMAT,2
METRIC
T1C0.300
T2C0.500
T3C0.800
T4C0.900
T5C1.000
T6C1.800
T7C3.200
%
G90
G05
T1
X36.128Y-92.478
X36.128Y-94.998
X36.128Y-97.518
X36.128Y-100.038
X36.128Y-102.558
X36.128Y-105.078
X36.128Y-107.598
X36.128Y-110.118
X36.128Y-112.638
X36.128Y-115.158
X36.128Y-117.678
X36.128Y-120.198
X36.128Y-122.718
X36.128Y-125.238
X36.128Y-127.758
X36.128Y-130.278
X36.128Y-132.798
X36.128Y-135.318
X36.128Y-137.838
X36.128Y-140.358
X36.128Y-142.878
X36.128Y-145.398
X36.128Y-147.918
X36.128Y-150.438
X36.128Y-152.958
X36.89Y-145.965
X36.89Y-146.6
X36.89Y-147.235
X38.648Y-89.958
X39.43Y-154.22
X40.7Y-97.832
X41.168Y-89.958
X41.97Y-154.22
X43.688Y-89.958
X43.875Y-113.58
X43.875Y-115.485
X44.51Y-154.22
X45.145Y-114.723
X46.208Y-89.958
X46.415Y-113.58
X46.415Y-115.485
X47.05Y-154.22
X48.32Y-113.58
X48.32Y-115.485
X48.728Y-89.958
X49.59Y-120.565
X49.59Y-154.22
X51.248Y-89.958
X51.368Y-114.723
X52.13Y-154.22
X53.768Y-89.958
X54.67Y-154.22
X56.288Y-89.958
X57.21Y-154.22
X58.808Y-89.958
X59.75Y-154.22
X61.328Y-89.958
X62.29Y-154.22
X63.848Y-89.958
X64.83Y-154.22
X66.368Y-89.958
X67.37Y-154.22
X68.64Y-154.855
X68.888Y-89.958
X69.91Y-113.961
X69.91Y-154.22
X71.18Y-154.855
X71.408Y-89.958
X72.45Y-154.22
X73.72Y-105.325
X73.72Y-154.855
X73.928Y-89.958
X74.99Y-154.22
X76.26Y-154.855
X76.448Y-89.958
X77.276Y-113.072
X77.53Y-154.22
X78.8Y-115.485
X78.8Y-154.855
X78.968Y-89.958
X80.07Y-154.22
X80.388Y-117.39
X81.488Y-89.958
X82.61Y-154.22
X83.245Y-105.325
X84.008Y-89.958
X85.15Y-154.22
X86.42Y-149.775
X86.42Y-150.41
X86.42Y-151.045
X86.528Y-89.958
X87.436Y-150.664
X87.69Y-154.22
X88.706Y-151.68
X89.048Y-89.958
X89.976Y-152.696
X90.23Y-105.96
X90.29Y-121.26
X90.738Y-154.474
X91.568Y-89.958
X92.725Y-120.61
X92.77Y-105.96
X92.77Y-154.474
X94.088Y-89.958
X95.31Y-105.96
X95.31Y-119.295
X95.945Y-147.87
X96.608Y-89.958
X97.85Y-105.96
X97.85Y-118.66
X97.85Y-154.22
X98.866Y-123.842
X98.866Y-128.414
X99.12Y-148.632
X99.128Y-89.958
X101.648Y-89.958
X101.66Y-111.04
X101.66Y-148.632
X102.295Y-112.945
X102.93Y-113.58
X103.565Y-114.215
X104.168Y-89.958
X104.2Y-114.85
X104.2Y-119.93
X104.2Y-121.962
X104.2Y-125.01
X104.2Y-148.632
X106.688Y-89.958
X106.74Y-148.632
X107.252Y-137.71
X107.756Y-132.376
X108.01Y-138.98
X108.01Y-154.22
X108.518Y-137.456
X108.645Y-109.135
X109.208Y-89.958
X109.28Y-140.25
X109.28Y-148.632
X110.423Y-140.885
X110.55Y-154.22
X111.073Y-141.52
X111.083Y-117.39
X111.083Y-119.905
X111.718Y-112.31
X111.723Y-142.79
X111.728Y-89.958
X112.373Y-144.06
X112.455Y-117.39
X113.023Y-145.33
X113.598Y-132.376
X113.725Y-109.135
X114.248Y-89.958
X114.323Y-143.425
X114.36Y-151.375
X114.973Y-142.177
X115.63Y-112.31
X115.63Y-137.456
X115.884Y-109.135
X116.273Y-138.337
X116.392Y-132.376
X116.768Y-89.958
X116.9Y-151.375
X116.923Y-139.615
X117.56Y-145.965
X117.916Y-150.664
X118.223Y-144.695
X118.233Y-114.278
X118.424Y-148.632
X118.881Y-145.686
X119.288Y-89.958
X119.44Y-119.93
X120.075Y-144.695
X120.202Y-112.31
X120.71Y-142.79
X120.964Y-148.632
X121.345Y-102.785
X121.345Y-140.885
X121.808Y-89.958
X121.98Y-103.42
X121.98Y-138.98
X122.615Y-137.075
X122.742Y-132.376
X123.25Y-117.136
X123.426Y-135.384
X123.427Y-142.966
X124.074Y-141.074
X124.075Y-136.184
X124.328Y-89.958
X125.155Y-119.93
X125.282Y-122.724
X125.79Y-137.71
X126.848Y-89.958
X127.717Y-114.633
X128.33Y-108.5
X128.33Y-137.71
X129.368Y-89.958
X130.224Y-120.692
X130.645Y-134.789
X130.645Y-135.551
X130.87Y-107.865
X130.87Y-137.71
X131.888Y-89.958
X132.14Y-112.31
X133.41Y-107.23
X133.41Y-137.71
X133.41Y-153.966
X134.045Y-131.36
X134.408Y-89.958
X134.68Y-146.6
X135.29Y-130.395
X135.95Y-147.235
X135.95Y-153.966
X136.433Y-129.658
X136.928Y-89.958
X137.855Y-136.44
X138.49Y-137.71
X139.448Y-89.958
X140.446Y-154.855
X141.03Y-106.595
X141.03Y-137.71
X141.665Y-154.855
X141.968Y-89.958
X143.57Y-105.96
X143.57Y-137.71
X144.332Y-154.22
X144.488Y-89.958
X145.348Y-154.22
X146.11Y-137.71
X147.008Y-89.958
X148.015Y-103.42
X148.65Y-137.71
X149.528Y-89.958
X151.19Y-137.71
X152.048Y-89.958
X152.587Y-114.596
X153.73Y-137.71
X154.365Y-103.42
X154.568Y-89.958
X156.27Y-137.71
X157.088Y-89.958
X158.81Y-137.71
X158.81Y-147.87
X159.445Y-154.855
X159.608Y-89.958
X161.35Y-137.71
X162.128Y-89.958
X162.62Y-100.372
X163.89Y-137.71
X164.648Y-89.958
X165.795Y-154.855
X167.168Y-89.958
X167.7Y-136.44
X167.7Y-154.791
X169.688Y-89.958
X172.208Y-89.958
X174.728Y-89.958
X174.812Y-163.038
X177.248Y-89.958
X177.248Y-163.038
X178.749Y-99.991
X179.768Y-89.958
X179.768Y-163.038
X180.273Y-99.991
X182.288Y-89.958
X182.288Y-163.038
X184.808Y-89.958
X184.808Y-163.038
X187.328Y-89.958
X187.328Y-163.038
X189.848Y-89.958
X189.848Y-163.038
X192.368Y-89.958
X192.368Y-92.478
X192.368Y-94.998
X192.368Y-97.518
X192.368Y-100.038
X192.368Y-127.758
X192.368Y-130.278
X192.368Y-132.798
X192.368Y-135.318
X192.368Y-137.838
X192.368Y-140.358
X192.368Y-142.878
X192.368Y-145.398
X192.368Y-147.918
X192.368Y-150.438
X192.368Y-152.958
X192.368Y-155.478
X192.368Y-157.998
X192.368Y-160.518
X192.368Y-163.038
T2
X185.751Y-151.615
X186.454Y-149.918
X186.454Y-153.312
X188.151Y-149.215
X188.151Y-154.015
X189.848Y-149.918
X189.848Y-153.312
X190.551Y-151.615
X185.751Y-95.1
X186.454Y-93.403
X186.454Y-96.797
X188.151Y-92.7
X188.151Y-97.5
X189.848Y-93.403
X189.848Y-96.797
X190.551Y-95.1
T3
X40.7Y-102.15
X40.7Y-117.39
X43.24Y-102.15
X43.24Y-117.39
X45.78Y-102.15
X45.78Y-117.39
X48.32Y-102.15
X48.32Y-117.39
X50.86Y-102.15
X50.86Y-117.39
X53.4Y-102.15
X53.4Y-117.39
X55.94Y-102.15
X55.94Y-117.39
X58.48Y-102.15
X58.48Y-117.39
X61.02Y-102.15
X61.02Y-117.39
X63.56Y-102.15
X63.56Y-117.39
X66.1Y-102.15
X66.1Y-117.39
X68.64Y-102.15
X68.64Y-117.39
X71.18Y-102.15
X71.18Y-117.39
X73.72Y-102.15
X73.72Y-117.39
X76.26Y-102.15
X76.26Y-117.39
X78.8Y-102.15
X78.8Y-117.39
T4
X177.77Y-106.3
X177.77Y-108.59
X177.77Y-117.73
X177.77Y-120.02
X182.57Y-110.61
X182.57Y-112.65
X182.57Y-114.69
X182.57Y-116.73
X184.35Y-109.59
X184.35Y-111.63
X184.35Y-113.67
X184.35Y-115.71
T5
X107.95Y-96.52
X107.95Y-99.06
X110.49Y-96.52
X110.49Y-99.06
X113.03Y-96.52
X113.03Y-99.06
X115.57Y-96.52
X115.57Y-99.06
X118.11Y-96.52
X118.11Y-99.06
X140.97Y-96.52
X140.97Y-99.06
X143.51Y-96.52
X143.51Y-99.06
X128.27Y-96.52
X128.27Y-99.06
X130.81Y-96.52
X130.81Y-99.06
X133.35Y-96.52
X133.35Y-99.06
X149.86Y-96.52
X149.86Y-99.06
X90.17Y-96.52
X90.17Y-99.06
X92.71Y-96.52
X92.71Y-99.06
X95.25Y-96.52
X95.25Y-99.06
X97.79Y-96.52
X97.79Y-99.06
X156.21Y-96.52
X156.21Y-99.06
T6
X183.33Y-104.96
X183.33Y-121.36
T7
X188.151Y-151.615
X188.151Y-95.1
T0
M30
