%TF.GenerationSoftware,KiCad,Pcbnew,5.1.7*%
%TF.CreationDate,2020-11-14T02:02:55+01:00*%
%TF.ProjectId,ISA8019,49534138-3031-4392-9e6b-696361645f70,rev?*%
%TF.SameCoordinates,Original*%
%TF.FileFunction,Paste,Top*%
%TF.FilePolarity,Positive*%
%FSLAX46Y46*%
G04 Gerber Fmt 4.6, Leading zero omitted, Abs format (unit mm)*
G04 Created by KiCad (PCBNEW 5.1.7) date 2020-11-14 02:02:55*
%MOMM*%
%LPD*%
G01*
G04 APERTURE LIST*
%ADD10R,0.960000X1.120000*%
%ADD11R,1.200000X0.480000*%
G04 APERTURE END LIST*
%TO.C,FB1*%
G36*
G01*
X180416000Y-126569500D02*
X181026000Y-126569500D01*
G75*
G02*
X181201000Y-126744500I0J-175000D01*
G01*
X181201000Y-127094500D01*
G75*
G02*
X181026000Y-127269500I-175000J0D01*
G01*
X180416000Y-127269500D01*
G75*
G02*
X180241000Y-127094500I0J175000D01*
G01*
X180241000Y-126744500D01*
G75*
G02*
X180416000Y-126569500I175000J0D01*
G01*
G37*
G36*
G01*
X180416000Y-124444500D02*
X181026000Y-124444500D01*
G75*
G02*
X181201000Y-124619500I0J-175000D01*
G01*
X181201000Y-124969500D01*
G75*
G02*
X181026000Y-125144500I-175000J0D01*
G01*
X180416000Y-125144500D01*
G75*
G02*
X180241000Y-124969500I0J175000D01*
G01*
X180241000Y-124619500D01*
G75*
G02*
X180416000Y-124444500I175000J0D01*
G01*
G37*
%TD*%
%TO.C,R22*%
G36*
G01*
X71219401Y-54507601D02*
X71219401Y-54211601D01*
G75*
G02*
X71327401Y-54103601I108000J0D01*
G01*
X71543401Y-54103601D01*
G75*
G02*
X71651401Y-54211601I0J-108000D01*
G01*
X71651401Y-54507601D01*
G75*
G02*
X71543401Y-54615601I-108000J0D01*
G01*
X71327401Y-54615601D01*
G75*
G02*
X71219401Y-54507601I0J108000D01*
G01*
G37*
G36*
G01*
X72239401Y-54507601D02*
X72239401Y-54211601D01*
G75*
G02*
X72347401Y-54103601I108000J0D01*
G01*
X72563401Y-54103601D01*
G75*
G02*
X72671401Y-54211601I0J-108000D01*
G01*
X72671401Y-54507601D01*
G75*
G02*
X72563401Y-54615601I-108000J0D01*
G01*
X72347401Y-54615601D01*
G75*
G02*
X72239401Y-54507601I0J108000D01*
G01*
G37*
%TD*%
%TO.C,R21*%
G36*
G01*
X59729401Y-71407601D02*
X59729401Y-71111601D01*
G75*
G02*
X59837401Y-71003601I108000J0D01*
G01*
X60053401Y-71003601D01*
G75*
G02*
X60161401Y-71111601I0J-108000D01*
G01*
X60161401Y-71407601D01*
G75*
G02*
X60053401Y-71515601I-108000J0D01*
G01*
X59837401Y-71515601D01*
G75*
G02*
X59729401Y-71407601I0J108000D01*
G01*
G37*
G36*
G01*
X60749401Y-71407601D02*
X60749401Y-71111601D01*
G75*
G02*
X60857401Y-71003601I108000J0D01*
G01*
X61073401Y-71003601D01*
G75*
G02*
X61181401Y-71111601I0J-108000D01*
G01*
X61181401Y-71407601D01*
G75*
G02*
X61073401Y-71515601I-108000J0D01*
G01*
X60857401Y-71515601D01*
G75*
G02*
X60749401Y-71407601I0J108000D01*
G01*
G37*
%TD*%
%TO.C,R20*%
G36*
G01*
X59729401Y-73397601D02*
X59729401Y-73101601D01*
G75*
G02*
X59837401Y-72993601I108000J0D01*
G01*
X60053401Y-72993601D01*
G75*
G02*
X60161401Y-73101601I0J-108000D01*
G01*
X60161401Y-73397601D01*
G75*
G02*
X60053401Y-73505601I-108000J0D01*
G01*
X59837401Y-73505601D01*
G75*
G02*
X59729401Y-73397601I0J108000D01*
G01*
G37*
G36*
G01*
X60749401Y-73397601D02*
X60749401Y-73101601D01*
G75*
G02*
X60857401Y-72993601I108000J0D01*
G01*
X61073401Y-72993601D01*
G75*
G02*
X61181401Y-73101601I0J-108000D01*
G01*
X61181401Y-73397601D01*
G75*
G02*
X61073401Y-73505601I-108000J0D01*
G01*
X60857401Y-73505601D01*
G75*
G02*
X60749401Y-73397601I0J108000D01*
G01*
G37*
%TD*%
%TO.C,R19*%
G36*
G01*
X55269401Y-75387601D02*
X55269401Y-75091601D01*
G75*
G02*
X55377401Y-74983601I108000J0D01*
G01*
X55593401Y-74983601D01*
G75*
G02*
X55701401Y-75091601I0J-108000D01*
G01*
X55701401Y-75387601D01*
G75*
G02*
X55593401Y-75495601I-108000J0D01*
G01*
X55377401Y-75495601D01*
G75*
G02*
X55269401Y-75387601I0J108000D01*
G01*
G37*
G36*
G01*
X56289401Y-75387601D02*
X56289401Y-75091601D01*
G75*
G02*
X56397401Y-74983601I108000J0D01*
G01*
X56613401Y-74983601D01*
G75*
G02*
X56721401Y-75091601I0J-108000D01*
G01*
X56721401Y-75387601D01*
G75*
G02*
X56613401Y-75495601I-108000J0D01*
G01*
X56397401Y-75495601D01*
G75*
G02*
X56289401Y-75387601I0J108000D01*
G01*
G37*
%TD*%
%TO.C,R18*%
G36*
G01*
X74129401Y-58487601D02*
X74129401Y-58191601D01*
G75*
G02*
X74237401Y-58083601I108000J0D01*
G01*
X74453401Y-58083601D01*
G75*
G02*
X74561401Y-58191601I0J-108000D01*
G01*
X74561401Y-58487601D01*
G75*
G02*
X74453401Y-58595601I-108000J0D01*
G01*
X74237401Y-58595601D01*
G75*
G02*
X74129401Y-58487601I0J108000D01*
G01*
G37*
G36*
G01*
X75149401Y-58487601D02*
X75149401Y-58191601D01*
G75*
G02*
X75257401Y-58083601I108000J0D01*
G01*
X75473401Y-58083601D01*
G75*
G02*
X75581401Y-58191601I0J-108000D01*
G01*
X75581401Y-58487601D01*
G75*
G02*
X75473401Y-58595601I-108000J0D01*
G01*
X75257401Y-58595601D01*
G75*
G02*
X75149401Y-58487601I0J108000D01*
G01*
G37*
%TD*%
%TO.C,R17*%
G36*
G01*
X71219401Y-60477601D02*
X71219401Y-60181601D01*
G75*
G02*
X71327401Y-60073601I108000J0D01*
G01*
X71543401Y-60073601D01*
G75*
G02*
X71651401Y-60181601I0J-108000D01*
G01*
X71651401Y-60477601D01*
G75*
G02*
X71543401Y-60585601I-108000J0D01*
G01*
X71327401Y-60585601D01*
G75*
G02*
X71219401Y-60477601I0J108000D01*
G01*
G37*
G36*
G01*
X72239401Y-60477601D02*
X72239401Y-60181601D01*
G75*
G02*
X72347401Y-60073601I108000J0D01*
G01*
X72563401Y-60073601D01*
G75*
G02*
X72671401Y-60181601I0J-108000D01*
G01*
X72671401Y-60477601D01*
G75*
G02*
X72563401Y-60585601I-108000J0D01*
G01*
X72347401Y-60585601D01*
G75*
G02*
X72239401Y-60477601I0J108000D01*
G01*
G37*
%TD*%
%TO.C,R16*%
G36*
G01*
X77039401Y-54507601D02*
X77039401Y-54211601D01*
G75*
G02*
X77147401Y-54103601I108000J0D01*
G01*
X77363401Y-54103601D01*
G75*
G02*
X77471401Y-54211601I0J-108000D01*
G01*
X77471401Y-54507601D01*
G75*
G02*
X77363401Y-54615601I-108000J0D01*
G01*
X77147401Y-54615601D01*
G75*
G02*
X77039401Y-54507601I0J108000D01*
G01*
G37*
G36*
G01*
X78059401Y-54507601D02*
X78059401Y-54211601D01*
G75*
G02*
X78167401Y-54103601I108000J0D01*
G01*
X78383401Y-54103601D01*
G75*
G02*
X78491401Y-54211601I0J-108000D01*
G01*
X78491401Y-54507601D01*
G75*
G02*
X78383401Y-54615601I-108000J0D01*
G01*
X78167401Y-54615601D01*
G75*
G02*
X78059401Y-54507601I0J108000D01*
G01*
G37*
%TD*%
%TO.C,R15*%
G36*
G01*
X71219401Y-62467601D02*
X71219401Y-62171601D01*
G75*
G02*
X71327401Y-62063601I108000J0D01*
G01*
X71543401Y-62063601D01*
G75*
G02*
X71651401Y-62171601I0J-108000D01*
G01*
X71651401Y-62467601D01*
G75*
G02*
X71543401Y-62575601I-108000J0D01*
G01*
X71327401Y-62575601D01*
G75*
G02*
X71219401Y-62467601I0J108000D01*
G01*
G37*
G36*
G01*
X72239401Y-62467601D02*
X72239401Y-62171601D01*
G75*
G02*
X72347401Y-62063601I108000J0D01*
G01*
X72563401Y-62063601D01*
G75*
G02*
X72671401Y-62171601I0J-108000D01*
G01*
X72671401Y-62467601D01*
G75*
G02*
X72563401Y-62575601I-108000J0D01*
G01*
X72347401Y-62575601D01*
G75*
G02*
X72239401Y-62467601I0J108000D01*
G01*
G37*
%TD*%
%TO.C,R14*%
G36*
G01*
X79949401Y-54507601D02*
X79949401Y-54211601D01*
G75*
G02*
X80057401Y-54103601I108000J0D01*
G01*
X80273401Y-54103601D01*
G75*
G02*
X80381401Y-54211601I0J-108000D01*
G01*
X80381401Y-54507601D01*
G75*
G02*
X80273401Y-54615601I-108000J0D01*
G01*
X80057401Y-54615601D01*
G75*
G02*
X79949401Y-54507601I0J108000D01*
G01*
G37*
G36*
G01*
X80969401Y-54507601D02*
X80969401Y-54211601D01*
G75*
G02*
X81077401Y-54103601I108000J0D01*
G01*
X81293401Y-54103601D01*
G75*
G02*
X81401401Y-54211601I0J-108000D01*
G01*
X81401401Y-54507601D01*
G75*
G02*
X81293401Y-54615601I-108000J0D01*
G01*
X81077401Y-54615601D01*
G75*
G02*
X80969401Y-54507601I0J108000D01*
G01*
G37*
%TD*%
%TO.C,R13*%
G36*
G01*
X77039401Y-56497601D02*
X77039401Y-56201601D01*
G75*
G02*
X77147401Y-56093601I108000J0D01*
G01*
X77363401Y-56093601D01*
G75*
G02*
X77471401Y-56201601I0J-108000D01*
G01*
X77471401Y-56497601D01*
G75*
G02*
X77363401Y-56605601I-108000J0D01*
G01*
X77147401Y-56605601D01*
G75*
G02*
X77039401Y-56497601I0J108000D01*
G01*
G37*
G36*
G01*
X78059401Y-56497601D02*
X78059401Y-56201601D01*
G75*
G02*
X78167401Y-56093601I108000J0D01*
G01*
X78383401Y-56093601D01*
G75*
G02*
X78491401Y-56201601I0J-108000D01*
G01*
X78491401Y-56497601D01*
G75*
G02*
X78383401Y-56605601I-108000J0D01*
G01*
X78167401Y-56605601D01*
G75*
G02*
X78059401Y-56497601I0J108000D01*
G01*
G37*
%TD*%
%TO.C,R12*%
G36*
G01*
X71219401Y-58487601D02*
X71219401Y-58191601D01*
G75*
G02*
X71327401Y-58083601I108000J0D01*
G01*
X71543401Y-58083601D01*
G75*
G02*
X71651401Y-58191601I0J-108000D01*
G01*
X71651401Y-58487601D01*
G75*
G02*
X71543401Y-58595601I-108000J0D01*
G01*
X71327401Y-58595601D01*
G75*
G02*
X71219401Y-58487601I0J108000D01*
G01*
G37*
G36*
G01*
X72239401Y-58487601D02*
X72239401Y-58191601D01*
G75*
G02*
X72347401Y-58083601I108000J0D01*
G01*
X72563401Y-58083601D01*
G75*
G02*
X72671401Y-58191601I0J-108000D01*
G01*
X72671401Y-58487601D01*
G75*
G02*
X72563401Y-58595601I-108000J0D01*
G01*
X72347401Y-58595601D01*
G75*
G02*
X72239401Y-58487601I0J108000D01*
G01*
G37*
%TD*%
%TO.C,R11*%
G36*
G01*
X74129401Y-60477601D02*
X74129401Y-60181601D01*
G75*
G02*
X74237401Y-60073601I108000J0D01*
G01*
X74453401Y-60073601D01*
G75*
G02*
X74561401Y-60181601I0J-108000D01*
G01*
X74561401Y-60477601D01*
G75*
G02*
X74453401Y-60585601I-108000J0D01*
G01*
X74237401Y-60585601D01*
G75*
G02*
X74129401Y-60477601I0J108000D01*
G01*
G37*
G36*
G01*
X75149401Y-60477601D02*
X75149401Y-60181601D01*
G75*
G02*
X75257401Y-60073601I108000J0D01*
G01*
X75473401Y-60073601D01*
G75*
G02*
X75581401Y-60181601I0J-108000D01*
G01*
X75581401Y-60477601D01*
G75*
G02*
X75473401Y-60585601I-108000J0D01*
G01*
X75257401Y-60585601D01*
G75*
G02*
X75149401Y-60477601I0J108000D01*
G01*
G37*
%TD*%
%TO.C,R10*%
G36*
G01*
X74129401Y-56497601D02*
X74129401Y-56201601D01*
G75*
G02*
X74237401Y-56093601I108000J0D01*
G01*
X74453401Y-56093601D01*
G75*
G02*
X74561401Y-56201601I0J-108000D01*
G01*
X74561401Y-56497601D01*
G75*
G02*
X74453401Y-56605601I-108000J0D01*
G01*
X74237401Y-56605601D01*
G75*
G02*
X74129401Y-56497601I0J108000D01*
G01*
G37*
G36*
G01*
X75149401Y-56497601D02*
X75149401Y-56201601D01*
G75*
G02*
X75257401Y-56093601I108000J0D01*
G01*
X75473401Y-56093601D01*
G75*
G02*
X75581401Y-56201601I0J-108000D01*
G01*
X75581401Y-56497601D01*
G75*
G02*
X75473401Y-56605601I-108000J0D01*
G01*
X75257401Y-56605601D01*
G75*
G02*
X75149401Y-56497601I0J108000D01*
G01*
G37*
%TD*%
%TO.C,R9*%
G36*
G01*
X74129401Y-54507601D02*
X74129401Y-54211601D01*
G75*
G02*
X74237401Y-54103601I108000J0D01*
G01*
X74453401Y-54103601D01*
G75*
G02*
X74561401Y-54211601I0J-108000D01*
G01*
X74561401Y-54507601D01*
G75*
G02*
X74453401Y-54615601I-108000J0D01*
G01*
X74237401Y-54615601D01*
G75*
G02*
X74129401Y-54507601I0J108000D01*
G01*
G37*
G36*
G01*
X75149401Y-54507601D02*
X75149401Y-54211601D01*
G75*
G02*
X75257401Y-54103601I108000J0D01*
G01*
X75473401Y-54103601D01*
G75*
G02*
X75581401Y-54211601I0J-108000D01*
G01*
X75581401Y-54507601D01*
G75*
G02*
X75473401Y-54615601I-108000J0D01*
G01*
X75257401Y-54615601D01*
G75*
G02*
X75149401Y-54507601I0J108000D01*
G01*
G37*
%TD*%
%TO.C,R8*%
G36*
G01*
X56819401Y-73397601D02*
X56819401Y-73101601D01*
G75*
G02*
X56927401Y-72993601I108000J0D01*
G01*
X57143401Y-72993601D01*
G75*
G02*
X57251401Y-73101601I0J-108000D01*
G01*
X57251401Y-73397601D01*
G75*
G02*
X57143401Y-73505601I-108000J0D01*
G01*
X56927401Y-73505601D01*
G75*
G02*
X56819401Y-73397601I0J108000D01*
G01*
G37*
G36*
G01*
X57839401Y-73397601D02*
X57839401Y-73101601D01*
G75*
G02*
X57947401Y-72993601I108000J0D01*
G01*
X58163401Y-72993601D01*
G75*
G02*
X58271401Y-73101601I0J-108000D01*
G01*
X58271401Y-73397601D01*
G75*
G02*
X58163401Y-73505601I-108000J0D01*
G01*
X57947401Y-73505601D01*
G75*
G02*
X57839401Y-73397601I0J108000D01*
G01*
G37*
%TD*%
%TO.C,R7*%
G36*
G01*
X71219401Y-56497601D02*
X71219401Y-56201601D01*
G75*
G02*
X71327401Y-56093601I108000J0D01*
G01*
X71543401Y-56093601D01*
G75*
G02*
X71651401Y-56201601I0J-108000D01*
G01*
X71651401Y-56497601D01*
G75*
G02*
X71543401Y-56605601I-108000J0D01*
G01*
X71327401Y-56605601D01*
G75*
G02*
X71219401Y-56497601I0J108000D01*
G01*
G37*
G36*
G01*
X72239401Y-56497601D02*
X72239401Y-56201601D01*
G75*
G02*
X72347401Y-56093601I108000J0D01*
G01*
X72563401Y-56093601D01*
G75*
G02*
X72671401Y-56201601I0J-108000D01*
G01*
X72671401Y-56497601D01*
G75*
G02*
X72563401Y-56605601I-108000J0D01*
G01*
X72347401Y-56605601D01*
G75*
G02*
X72239401Y-56497601I0J108000D01*
G01*
G37*
%TD*%
%TO.C,R6*%
G36*
G01*
X56819401Y-71407601D02*
X56819401Y-71111601D01*
G75*
G02*
X56927401Y-71003601I108000J0D01*
G01*
X57143401Y-71003601D01*
G75*
G02*
X57251401Y-71111601I0J-108000D01*
G01*
X57251401Y-71407601D01*
G75*
G02*
X57143401Y-71515601I-108000J0D01*
G01*
X56927401Y-71515601D01*
G75*
G02*
X56819401Y-71407601I0J108000D01*
G01*
G37*
G36*
G01*
X57839401Y-71407601D02*
X57839401Y-71111601D01*
G75*
G02*
X57947401Y-71003601I108000J0D01*
G01*
X58163401Y-71003601D01*
G75*
G02*
X58271401Y-71111601I0J-108000D01*
G01*
X58271401Y-71407601D01*
G75*
G02*
X58163401Y-71515601I-108000J0D01*
G01*
X57947401Y-71515601D01*
G75*
G02*
X57839401Y-71407601I0J108000D01*
G01*
G37*
%TD*%
%TO.C,C15*%
G36*
G01*
X125661000Y-130946000D02*
X125661000Y-130674000D01*
G75*
G02*
X125773000Y-130562000I112000J0D01*
G01*
X125997000Y-130562000D01*
G75*
G02*
X126109000Y-130674000I0J-112000D01*
G01*
X126109000Y-130946000D01*
G75*
G02*
X125997000Y-131058000I-112000J0D01*
G01*
X125773000Y-131058000D01*
G75*
G02*
X125661000Y-130946000I0J112000D01*
G01*
G37*
G36*
G01*
X126621000Y-130946000D02*
X126621000Y-130674000D01*
G75*
G02*
X126733000Y-130562000I112000J0D01*
G01*
X126957000Y-130562000D01*
G75*
G02*
X127069000Y-130674000I0J-112000D01*
G01*
X127069000Y-130946000D01*
G75*
G02*
X126957000Y-131058000I-112000J0D01*
G01*
X126733000Y-131058000D01*
G75*
G02*
X126621000Y-130946000I0J112000D01*
G01*
G37*
%TD*%
%TO.C,C6*%
G36*
G01*
X95005000Y-133645000D02*
X94733000Y-133645000D01*
G75*
G02*
X94621000Y-133533000I0J112000D01*
G01*
X94621000Y-133309000D01*
G75*
G02*
X94733000Y-133197000I112000J0D01*
G01*
X95005000Y-133197000D01*
G75*
G02*
X95117000Y-133309000I0J-112000D01*
G01*
X95117000Y-133533000D01*
G75*
G02*
X95005000Y-133645000I-112000J0D01*
G01*
G37*
G36*
G01*
X95005000Y-132685000D02*
X94733000Y-132685000D01*
G75*
G02*
X94621000Y-132573000I0J112000D01*
G01*
X94621000Y-132349000D01*
G75*
G02*
X94733000Y-132237000I112000J0D01*
G01*
X95005000Y-132237000D01*
G75*
G02*
X95117000Y-132349000I0J-112000D01*
G01*
X95117000Y-132573000D01*
G75*
G02*
X95005000Y-132685000I-112000J0D01*
G01*
G37*
%TD*%
%TO.C,C5*%
G36*
G01*
X77119401Y-119710601D02*
X77119401Y-119438601D01*
G75*
G02*
X77231401Y-119326601I112000J0D01*
G01*
X77455401Y-119326601D01*
G75*
G02*
X77567401Y-119438601I0J-112000D01*
G01*
X77567401Y-119710601D01*
G75*
G02*
X77455401Y-119822601I-112000J0D01*
G01*
X77231401Y-119822601D01*
G75*
G02*
X77119401Y-119710601I0J112000D01*
G01*
G37*
G36*
G01*
X78079401Y-119710601D02*
X78079401Y-119438601D01*
G75*
G02*
X78191401Y-119326601I112000J0D01*
G01*
X78415401Y-119326601D01*
G75*
G02*
X78527401Y-119438601I0J-112000D01*
G01*
X78527401Y-119710601D01*
G75*
G02*
X78415401Y-119822601I-112000J0D01*
G01*
X78191401Y-119822601D01*
G75*
G02*
X78079401Y-119710601I0J112000D01*
G01*
G37*
%TD*%
%TO.C,C4*%
G36*
G01*
X104287636Y-145964031D02*
X104479969Y-146156364D01*
G75*
G02*
X104479969Y-146314756I-79196J-79196D01*
G01*
X104321578Y-146473147D01*
G75*
G02*
X104163186Y-146473147I-79196J79196D01*
G01*
X103970853Y-146280814D01*
G75*
G02*
X103970853Y-146122422I79196J79196D01*
G01*
X104129244Y-145964031D01*
G75*
G02*
X104287636Y-145964031I79196J-79196D01*
G01*
G37*
G36*
G01*
X103608814Y-146642853D02*
X103801147Y-146835186D01*
G75*
G02*
X103801147Y-146993578I-79196J-79196D01*
G01*
X103642756Y-147151969D01*
G75*
G02*
X103484364Y-147151969I-79196J79196D01*
G01*
X103292031Y-146959636D01*
G75*
G02*
X103292031Y-146801244I79196J79196D01*
G01*
X103450422Y-146642853D01*
G75*
G02*
X103608814Y-146642853I79196J-79196D01*
G01*
G37*
%TD*%
%TO.C,C3*%
G36*
G01*
X112005000Y-146108000D02*
X112277000Y-146108000D01*
G75*
G02*
X112389000Y-146220000I0J-112000D01*
G01*
X112389000Y-146444000D01*
G75*
G02*
X112277000Y-146556000I-112000J0D01*
G01*
X112005000Y-146556000D01*
G75*
G02*
X111893000Y-146444000I0J112000D01*
G01*
X111893000Y-146220000D01*
G75*
G02*
X112005000Y-146108000I112000J0D01*
G01*
G37*
G36*
G01*
X112005000Y-147068000D02*
X112277000Y-147068000D01*
G75*
G02*
X112389000Y-147180000I0J-112000D01*
G01*
X112389000Y-147404000D01*
G75*
G02*
X112277000Y-147516000I-112000J0D01*
G01*
X112005000Y-147516000D01*
G75*
G02*
X111893000Y-147404000I0J112000D01*
G01*
X111893000Y-147180000D01*
G75*
G02*
X112005000Y-147068000I112000J0D01*
G01*
G37*
%TD*%
%TO.C,C2*%
G36*
G01*
X49780401Y-75009602D02*
X49780401Y-73969600D01*
G75*
G02*
X49980400Y-73769601I199999J0D01*
G01*
X50500402Y-73769601D01*
G75*
G02*
X50700401Y-73969600I0J-199999D01*
G01*
X50700401Y-75009602D01*
G75*
G02*
X50500402Y-75209601I-199999J0D01*
G01*
X49980400Y-75209601D01*
G75*
G02*
X49780401Y-75009602I0J199999D01*
G01*
G37*
G36*
G01*
X52730401Y-75009602D02*
X52730401Y-73969600D01*
G75*
G02*
X52930400Y-73769601I199999J0D01*
G01*
X53450402Y-73769601D01*
G75*
G02*
X53650401Y-73969600I0J-199999D01*
G01*
X53650401Y-75009602D01*
G75*
G02*
X53450402Y-75209601I-199999J0D01*
G01*
X52930400Y-75209601D01*
G75*
G02*
X52730401Y-75009602I0J199999D01*
G01*
G37*
%TD*%
D10*
%TO.C,Y1*%
X127469000Y-122598000D03*
X127469000Y-124798000D03*
X125769000Y-124798000D03*
X125769000Y-122598000D03*
%TD*%
%TO.C,U2*%
G36*
G01*
X100450000Y-116542000D02*
X100210000Y-116542000D01*
G75*
G02*
X100090000Y-116422000I0J120000D01*
G01*
X100090000Y-115102000D01*
G75*
G02*
X100210000Y-114982000I120000J0D01*
G01*
X100450000Y-114982000D01*
G75*
G02*
X100570000Y-115102000I0J-120000D01*
G01*
X100570000Y-116422000D01*
G75*
G02*
X100450000Y-116542000I-120000J0D01*
G01*
G37*
G36*
G01*
X101720000Y-116542000D02*
X101480000Y-116542000D01*
G75*
G02*
X101360000Y-116422000I0J120000D01*
G01*
X101360000Y-115102000D01*
G75*
G02*
X101480000Y-114982000I120000J0D01*
G01*
X101720000Y-114982000D01*
G75*
G02*
X101840000Y-115102000I0J-120000D01*
G01*
X101840000Y-116422000D01*
G75*
G02*
X101720000Y-116542000I-120000J0D01*
G01*
G37*
G36*
G01*
X102990000Y-116542000D02*
X102750000Y-116542000D01*
G75*
G02*
X102630000Y-116422000I0J120000D01*
G01*
X102630000Y-115102000D01*
G75*
G02*
X102750000Y-114982000I120000J0D01*
G01*
X102990000Y-114982000D01*
G75*
G02*
X103110000Y-115102000I0J-120000D01*
G01*
X103110000Y-116422000D01*
G75*
G02*
X102990000Y-116542000I-120000J0D01*
G01*
G37*
G36*
G01*
X104260000Y-116542000D02*
X104020000Y-116542000D01*
G75*
G02*
X103900000Y-116422000I0J120000D01*
G01*
X103900000Y-115102000D01*
G75*
G02*
X104020000Y-114982000I120000J0D01*
G01*
X104260000Y-114982000D01*
G75*
G02*
X104380000Y-115102000I0J-120000D01*
G01*
X104380000Y-116422000D01*
G75*
G02*
X104260000Y-116542000I-120000J0D01*
G01*
G37*
G36*
G01*
X104260000Y-121492000D02*
X104020000Y-121492000D01*
G75*
G02*
X103900000Y-121372000I0J120000D01*
G01*
X103900000Y-120052000D01*
G75*
G02*
X104020000Y-119932000I120000J0D01*
G01*
X104260000Y-119932000D01*
G75*
G02*
X104380000Y-120052000I0J-120000D01*
G01*
X104380000Y-121372000D01*
G75*
G02*
X104260000Y-121492000I-120000J0D01*
G01*
G37*
G36*
G01*
X102990000Y-121492000D02*
X102750000Y-121492000D01*
G75*
G02*
X102630000Y-121372000I0J120000D01*
G01*
X102630000Y-120052000D01*
G75*
G02*
X102750000Y-119932000I120000J0D01*
G01*
X102990000Y-119932000D01*
G75*
G02*
X103110000Y-120052000I0J-120000D01*
G01*
X103110000Y-121372000D01*
G75*
G02*
X102990000Y-121492000I-120000J0D01*
G01*
G37*
G36*
G01*
X101720000Y-121492000D02*
X101480000Y-121492000D01*
G75*
G02*
X101360000Y-121372000I0J120000D01*
G01*
X101360000Y-120052000D01*
G75*
G02*
X101480000Y-119932000I120000J0D01*
G01*
X101720000Y-119932000D01*
G75*
G02*
X101840000Y-120052000I0J-120000D01*
G01*
X101840000Y-121372000D01*
G75*
G02*
X101720000Y-121492000I-120000J0D01*
G01*
G37*
G36*
G01*
X100450000Y-121492000D02*
X100210000Y-121492000D01*
G75*
G02*
X100090000Y-121372000I0J120000D01*
G01*
X100090000Y-120052000D01*
G75*
G02*
X100210000Y-119932000I120000J0D01*
G01*
X100450000Y-119932000D01*
G75*
G02*
X100570000Y-120052000I0J-120000D01*
G01*
X100570000Y-121372000D01*
G75*
G02*
X100450000Y-121492000I-120000J0D01*
G01*
G37*
%TD*%
%TO.C,U1*%
G36*
G01*
X119355000Y-126675000D02*
X119195000Y-126675000D01*
G75*
G02*
X119115000Y-126595000I0J80000D01*
G01*
X119115000Y-125355000D01*
G75*
G02*
X119195000Y-125275000I80000J0D01*
G01*
X119355000Y-125275000D01*
G75*
G02*
X119435000Y-125355000I0J-80000D01*
G01*
X119435000Y-126595000D01*
G75*
G02*
X119355000Y-126675000I-80000J0D01*
G01*
G37*
G36*
G01*
X123895000Y-128985000D02*
X122655000Y-128985000D01*
G75*
G02*
X122575000Y-128905000I0J80000D01*
G01*
X122575000Y-128745000D01*
G75*
G02*
X122655000Y-128665000I80000J0D01*
G01*
X123895000Y-128665000D01*
G75*
G02*
X123975000Y-128745000I0J-80000D01*
G01*
X123975000Y-128905000D01*
G75*
G02*
X123895000Y-128985000I-80000J0D01*
G01*
G37*
G36*
G01*
X120655000Y-126675000D02*
X120495000Y-126675000D01*
G75*
G02*
X120415000Y-126595000I0J80000D01*
G01*
X120415000Y-125355000D01*
G75*
G02*
X120495000Y-125275000I80000J0D01*
G01*
X120655000Y-125275000D01*
G75*
G02*
X120735000Y-125355000I0J-80000D01*
G01*
X120735000Y-126595000D01*
G75*
G02*
X120655000Y-126675000I-80000J0D01*
G01*
G37*
G36*
G01*
X118055000Y-126675000D02*
X117895000Y-126675000D01*
G75*
G02*
X117815000Y-126595000I0J80000D01*
G01*
X117815000Y-125355000D01*
G75*
G02*
X117895000Y-125275000I80000J0D01*
G01*
X118055000Y-125275000D01*
G75*
G02*
X118135000Y-125355000I0J-80000D01*
G01*
X118135000Y-126595000D01*
G75*
G02*
X118055000Y-126675000I-80000J0D01*
G01*
G37*
G36*
G01*
X116755000Y-126675000D02*
X116595000Y-126675000D01*
G75*
G02*
X116515000Y-126595000I0J80000D01*
G01*
X116515000Y-125355000D01*
G75*
G02*
X116595000Y-125275000I80000J0D01*
G01*
X116755000Y-125275000D01*
G75*
G02*
X116835000Y-125355000I0J-80000D01*
G01*
X116835000Y-126595000D01*
G75*
G02*
X116755000Y-126675000I-80000J0D01*
G01*
G37*
G36*
G01*
X118705000Y-126675000D02*
X118545000Y-126675000D01*
G75*
G02*
X118465000Y-126595000I0J80000D01*
G01*
X118465000Y-125355000D01*
G75*
G02*
X118545000Y-125275000I80000J0D01*
G01*
X118705000Y-125275000D01*
G75*
G02*
X118785000Y-125355000I0J-80000D01*
G01*
X118785000Y-126595000D01*
G75*
G02*
X118705000Y-126675000I-80000J0D01*
G01*
G37*
G36*
G01*
X123895000Y-138735000D02*
X122655000Y-138735000D01*
G75*
G02*
X122575000Y-138655000I0J80000D01*
G01*
X122575000Y-138495000D01*
G75*
G02*
X122655000Y-138415000I80000J0D01*
G01*
X123895000Y-138415000D01*
G75*
G02*
X123975000Y-138495000I0J-80000D01*
G01*
X123975000Y-138655000D01*
G75*
G02*
X123895000Y-138735000I-80000J0D01*
G01*
G37*
G36*
G01*
X123895000Y-130935000D02*
X122655000Y-130935000D01*
G75*
G02*
X122575000Y-130855000I0J80000D01*
G01*
X122575000Y-130695000D01*
G75*
G02*
X122655000Y-130615000I80000J0D01*
G01*
X123895000Y-130615000D01*
G75*
G02*
X123975000Y-130695000I0J-80000D01*
G01*
X123975000Y-130855000D01*
G75*
G02*
X123895000Y-130935000I-80000J0D01*
G01*
G37*
G36*
G01*
X105705000Y-144725000D02*
X105545000Y-144725000D01*
G75*
G02*
X105465000Y-144645000I0J80000D01*
G01*
X105465000Y-143405000D01*
G75*
G02*
X105545000Y-143325000I80000J0D01*
G01*
X105705000Y-143325000D01*
G75*
G02*
X105785000Y-143405000I0J-80000D01*
G01*
X105785000Y-144645000D01*
G75*
G02*
X105705000Y-144725000I-80000J0D01*
G01*
G37*
G36*
G01*
X105055000Y-144725000D02*
X104895000Y-144725000D01*
G75*
G02*
X104815000Y-144645000I0J80000D01*
G01*
X104815000Y-143405000D01*
G75*
G02*
X104895000Y-143325000I80000J0D01*
G01*
X105055000Y-143325000D01*
G75*
G02*
X105135000Y-143405000I0J-80000D01*
G01*
X105135000Y-144645000D01*
G75*
G02*
X105055000Y-144725000I-80000J0D01*
G01*
G37*
G36*
G01*
X104405000Y-144725000D02*
X104245000Y-144725000D01*
G75*
G02*
X104165000Y-144645000I0J80000D01*
G01*
X104165000Y-143405000D01*
G75*
G02*
X104245000Y-143325000I80000J0D01*
G01*
X104405000Y-143325000D01*
G75*
G02*
X104485000Y-143405000I0J-80000D01*
G01*
X104485000Y-144645000D01*
G75*
G02*
X104405000Y-144725000I-80000J0D01*
G01*
G37*
G36*
G01*
X113505000Y-126675000D02*
X113345000Y-126675000D01*
G75*
G02*
X113265000Y-126595000I0J80000D01*
G01*
X113265000Y-125355000D01*
G75*
G02*
X113345000Y-125275000I80000J0D01*
G01*
X113505000Y-125275000D01*
G75*
G02*
X113585000Y-125355000I0J-80000D01*
G01*
X113585000Y-126595000D01*
G75*
G02*
X113505000Y-126675000I-80000J0D01*
G01*
G37*
G36*
G01*
X111555000Y-126675000D02*
X111395000Y-126675000D01*
G75*
G02*
X111315000Y-126595000I0J80000D01*
G01*
X111315000Y-125355000D01*
G75*
G02*
X111395000Y-125275000I80000J0D01*
G01*
X111555000Y-125275000D01*
G75*
G02*
X111635000Y-125355000I0J-80000D01*
G01*
X111635000Y-126595000D01*
G75*
G02*
X111555000Y-126675000I-80000J0D01*
G01*
G37*
G36*
G01*
X117405000Y-144725000D02*
X117245000Y-144725000D01*
G75*
G02*
X117165000Y-144645000I0J80000D01*
G01*
X117165000Y-143405000D01*
G75*
G02*
X117245000Y-143325000I80000J0D01*
G01*
X117405000Y-143325000D01*
G75*
G02*
X117485000Y-143405000I0J-80000D01*
G01*
X117485000Y-144645000D01*
G75*
G02*
X117405000Y-144725000I-80000J0D01*
G01*
G37*
G36*
G01*
X107005000Y-144725000D02*
X106845000Y-144725000D01*
G75*
G02*
X106765000Y-144645000I0J80000D01*
G01*
X106765000Y-143405000D01*
G75*
G02*
X106845000Y-143325000I80000J0D01*
G01*
X107005000Y-143325000D01*
G75*
G02*
X107085000Y-143405000I0J-80000D01*
G01*
X107085000Y-144645000D01*
G75*
G02*
X107005000Y-144725000I-80000J0D01*
G01*
G37*
G36*
G01*
X118705000Y-144725000D02*
X118545000Y-144725000D01*
G75*
G02*
X118465000Y-144645000I0J80000D01*
G01*
X118465000Y-143405000D01*
G75*
G02*
X118545000Y-143325000I80000J0D01*
G01*
X118705000Y-143325000D01*
G75*
G02*
X118785000Y-143405000I0J-80000D01*
G01*
X118785000Y-144645000D01*
G75*
G02*
X118705000Y-144725000I-80000J0D01*
G01*
G37*
G36*
G01*
X118055000Y-144725000D02*
X117895000Y-144725000D01*
G75*
G02*
X117815000Y-144645000I0J80000D01*
G01*
X117815000Y-143405000D01*
G75*
G02*
X117895000Y-143325000I80000J0D01*
G01*
X118055000Y-143325000D01*
G75*
G02*
X118135000Y-143405000I0J-80000D01*
G01*
X118135000Y-144645000D01*
G75*
G02*
X118055000Y-144725000I-80000J0D01*
G01*
G37*
G36*
G01*
X123895000Y-132885000D02*
X122655000Y-132885000D01*
G75*
G02*
X122575000Y-132805000I0J80000D01*
G01*
X122575000Y-132645000D01*
G75*
G02*
X122655000Y-132565000I80000J0D01*
G01*
X123895000Y-132565000D01*
G75*
G02*
X123975000Y-132645000I0J-80000D01*
G01*
X123975000Y-132805000D01*
G75*
G02*
X123895000Y-132885000I-80000J0D01*
G01*
G37*
G36*
G01*
X108305000Y-126675000D02*
X108145000Y-126675000D01*
G75*
G02*
X108065000Y-126595000I0J80000D01*
G01*
X108065000Y-125355000D01*
G75*
G02*
X108145000Y-125275000I80000J0D01*
G01*
X108305000Y-125275000D01*
G75*
G02*
X108385000Y-125355000I0J-80000D01*
G01*
X108385000Y-126595000D01*
G75*
G02*
X108305000Y-126675000I-80000J0D01*
G01*
G37*
G36*
G01*
X114805000Y-144725000D02*
X114645000Y-144725000D01*
G75*
G02*
X114565000Y-144645000I0J80000D01*
G01*
X114565000Y-143405000D01*
G75*
G02*
X114645000Y-143325000I80000J0D01*
G01*
X114805000Y-143325000D01*
G75*
G02*
X114885000Y-143405000I0J-80000D01*
G01*
X114885000Y-144645000D01*
G75*
G02*
X114805000Y-144725000I-80000J0D01*
G01*
G37*
G36*
G01*
X123895000Y-134185000D02*
X122655000Y-134185000D01*
G75*
G02*
X122575000Y-134105000I0J80000D01*
G01*
X122575000Y-133945000D01*
G75*
G02*
X122655000Y-133865000I80000J0D01*
G01*
X123895000Y-133865000D01*
G75*
G02*
X123975000Y-133945000I0J-80000D01*
G01*
X123975000Y-134105000D01*
G75*
G02*
X123895000Y-134185000I-80000J0D01*
G01*
G37*
G36*
G01*
X99745000Y-130285000D02*
X98505000Y-130285000D01*
G75*
G02*
X98425000Y-130205000I0J80000D01*
G01*
X98425000Y-130045000D01*
G75*
G02*
X98505000Y-129965000I80000J0D01*
G01*
X99745000Y-129965000D01*
G75*
G02*
X99825000Y-130045000I0J-80000D01*
G01*
X99825000Y-130205000D01*
G75*
G02*
X99745000Y-130285000I-80000J0D01*
G01*
G37*
G36*
G01*
X102455000Y-144725000D02*
X102295000Y-144725000D01*
G75*
G02*
X102215000Y-144645000I0J80000D01*
G01*
X102215000Y-143405000D01*
G75*
G02*
X102295000Y-143325000I80000J0D01*
G01*
X102455000Y-143325000D01*
G75*
G02*
X102535000Y-143405000I0J-80000D01*
G01*
X102535000Y-144645000D01*
G75*
G02*
X102455000Y-144725000I-80000J0D01*
G01*
G37*
G36*
G01*
X108305000Y-144725000D02*
X108145000Y-144725000D01*
G75*
G02*
X108065000Y-144645000I0J80000D01*
G01*
X108065000Y-143405000D01*
G75*
G02*
X108145000Y-143325000I80000J0D01*
G01*
X108305000Y-143325000D01*
G75*
G02*
X108385000Y-143405000I0J-80000D01*
G01*
X108385000Y-144645000D01*
G75*
G02*
X108305000Y-144725000I-80000J0D01*
G01*
G37*
G36*
G01*
X116105000Y-126675000D02*
X115945000Y-126675000D01*
G75*
G02*
X115865000Y-126595000I0J80000D01*
G01*
X115865000Y-125355000D01*
G75*
G02*
X115945000Y-125275000I80000J0D01*
G01*
X116105000Y-125275000D01*
G75*
G02*
X116185000Y-125355000I0J-80000D01*
G01*
X116185000Y-126595000D01*
G75*
G02*
X116105000Y-126675000I-80000J0D01*
G01*
G37*
G36*
G01*
X123895000Y-132235000D02*
X122655000Y-132235000D01*
G75*
G02*
X122575000Y-132155000I0J80000D01*
G01*
X122575000Y-131995000D01*
G75*
G02*
X122655000Y-131915000I80000J0D01*
G01*
X123895000Y-131915000D01*
G75*
G02*
X123975000Y-131995000I0J-80000D01*
G01*
X123975000Y-132155000D01*
G75*
G02*
X123895000Y-132235000I-80000J0D01*
G01*
G37*
G36*
G01*
X103755000Y-144725000D02*
X103595000Y-144725000D01*
G75*
G02*
X103515000Y-144645000I0J80000D01*
G01*
X103515000Y-143405000D01*
G75*
G02*
X103595000Y-143325000I80000J0D01*
G01*
X103755000Y-143325000D01*
G75*
G02*
X103835000Y-143405000I0J-80000D01*
G01*
X103835000Y-144645000D01*
G75*
G02*
X103755000Y-144725000I-80000J0D01*
G01*
G37*
G36*
G01*
X123895000Y-137435000D02*
X122655000Y-137435000D01*
G75*
G02*
X122575000Y-137355000I0J80000D01*
G01*
X122575000Y-137195000D01*
G75*
G02*
X122655000Y-137115000I80000J0D01*
G01*
X123895000Y-137115000D01*
G75*
G02*
X123975000Y-137195000I0J-80000D01*
G01*
X123975000Y-137355000D01*
G75*
G02*
X123895000Y-137435000I-80000J0D01*
G01*
G37*
G36*
G01*
X108955000Y-144725000D02*
X108795000Y-144725000D01*
G75*
G02*
X108715000Y-144645000I0J80000D01*
G01*
X108715000Y-143405000D01*
G75*
G02*
X108795000Y-143325000I80000J0D01*
G01*
X108955000Y-143325000D01*
G75*
G02*
X109035000Y-143405000I0J-80000D01*
G01*
X109035000Y-144645000D01*
G75*
G02*
X108955000Y-144725000I-80000J0D01*
G01*
G37*
G36*
G01*
X123895000Y-136785000D02*
X122655000Y-136785000D01*
G75*
G02*
X122575000Y-136705000I0J80000D01*
G01*
X122575000Y-136545000D01*
G75*
G02*
X122655000Y-136465000I80000J0D01*
G01*
X123895000Y-136465000D01*
G75*
G02*
X123975000Y-136545000I0J-80000D01*
G01*
X123975000Y-136705000D01*
G75*
G02*
X123895000Y-136785000I-80000J0D01*
G01*
G37*
G36*
G01*
X123895000Y-136135000D02*
X122655000Y-136135000D01*
G75*
G02*
X122575000Y-136055000I0J80000D01*
G01*
X122575000Y-135895000D01*
G75*
G02*
X122655000Y-135815000I80000J0D01*
G01*
X123895000Y-135815000D01*
G75*
G02*
X123975000Y-135895000I0J-80000D01*
G01*
X123975000Y-136055000D01*
G75*
G02*
X123895000Y-136135000I-80000J0D01*
G01*
G37*
G36*
G01*
X123895000Y-135485000D02*
X122655000Y-135485000D01*
G75*
G02*
X122575000Y-135405000I0J80000D01*
G01*
X122575000Y-135245000D01*
G75*
G02*
X122655000Y-135165000I80000J0D01*
G01*
X123895000Y-135165000D01*
G75*
G02*
X123975000Y-135245000I0J-80000D01*
G01*
X123975000Y-135405000D01*
G75*
G02*
X123895000Y-135485000I-80000J0D01*
G01*
G37*
G36*
G01*
X123895000Y-134835000D02*
X122655000Y-134835000D01*
G75*
G02*
X122575000Y-134755000I0J80000D01*
G01*
X122575000Y-134595000D01*
G75*
G02*
X122655000Y-134515000I80000J0D01*
G01*
X123895000Y-134515000D01*
G75*
G02*
X123975000Y-134595000I0J-80000D01*
G01*
X123975000Y-134755000D01*
G75*
G02*
X123895000Y-134835000I-80000J0D01*
G01*
G37*
G36*
G01*
X114155000Y-126675000D02*
X113995000Y-126675000D01*
G75*
G02*
X113915000Y-126595000I0J80000D01*
G01*
X113915000Y-125355000D01*
G75*
G02*
X113995000Y-125275000I80000J0D01*
G01*
X114155000Y-125275000D01*
G75*
G02*
X114235000Y-125355000I0J-80000D01*
G01*
X114235000Y-126595000D01*
G75*
G02*
X114155000Y-126675000I-80000J0D01*
G01*
G37*
G36*
G01*
X99745000Y-128985000D02*
X98505000Y-128985000D01*
G75*
G02*
X98425000Y-128905000I0J80000D01*
G01*
X98425000Y-128745000D01*
G75*
G02*
X98505000Y-128665000I80000J0D01*
G01*
X99745000Y-128665000D01*
G75*
G02*
X99825000Y-128745000I0J-80000D01*
G01*
X99825000Y-128905000D01*
G75*
G02*
X99745000Y-128985000I-80000J0D01*
G01*
G37*
G36*
G01*
X112205000Y-126675000D02*
X112045000Y-126675000D01*
G75*
G02*
X111965000Y-126595000I0J80000D01*
G01*
X111965000Y-125355000D01*
G75*
G02*
X112045000Y-125275000I80000J0D01*
G01*
X112205000Y-125275000D01*
G75*
G02*
X112285000Y-125355000I0J-80000D01*
G01*
X112285000Y-126595000D01*
G75*
G02*
X112205000Y-126675000I-80000J0D01*
G01*
G37*
G36*
G01*
X112855000Y-126675000D02*
X112695000Y-126675000D01*
G75*
G02*
X112615000Y-126595000I0J80000D01*
G01*
X112615000Y-125355000D01*
G75*
G02*
X112695000Y-125275000I80000J0D01*
G01*
X112855000Y-125275000D01*
G75*
G02*
X112935000Y-125355000I0J-80000D01*
G01*
X112935000Y-126595000D01*
G75*
G02*
X112855000Y-126675000I-80000J0D01*
G01*
G37*
G36*
G01*
X119355000Y-144725000D02*
X119195000Y-144725000D01*
G75*
G02*
X119115000Y-144645000I0J80000D01*
G01*
X119115000Y-143405000D01*
G75*
G02*
X119195000Y-143325000I80000J0D01*
G01*
X119355000Y-143325000D01*
G75*
G02*
X119435000Y-143405000I0J-80000D01*
G01*
X119435000Y-144645000D01*
G75*
G02*
X119355000Y-144725000I-80000J0D01*
G01*
G37*
G36*
G01*
X107005000Y-126675000D02*
X106845000Y-126675000D01*
G75*
G02*
X106765000Y-126595000I0J80000D01*
G01*
X106765000Y-125355000D01*
G75*
G02*
X106845000Y-125275000I80000J0D01*
G01*
X107005000Y-125275000D01*
G75*
G02*
X107085000Y-125355000I0J-80000D01*
G01*
X107085000Y-126595000D01*
G75*
G02*
X107005000Y-126675000I-80000J0D01*
G01*
G37*
G36*
G01*
X108955000Y-126675000D02*
X108795000Y-126675000D01*
G75*
G02*
X108715000Y-126595000I0J80000D01*
G01*
X108715000Y-125355000D01*
G75*
G02*
X108795000Y-125275000I80000J0D01*
G01*
X108955000Y-125275000D01*
G75*
G02*
X109035000Y-125355000I0J-80000D01*
G01*
X109035000Y-126595000D01*
G75*
G02*
X108955000Y-126675000I-80000J0D01*
G01*
G37*
G36*
G01*
X107655000Y-144725000D02*
X107495000Y-144725000D01*
G75*
G02*
X107415000Y-144645000I0J80000D01*
G01*
X107415000Y-143405000D01*
G75*
G02*
X107495000Y-143325000I80000J0D01*
G01*
X107655000Y-143325000D01*
G75*
G02*
X107735000Y-143405000I0J-80000D01*
G01*
X107735000Y-144645000D01*
G75*
G02*
X107655000Y-144725000I-80000J0D01*
G01*
G37*
G36*
G01*
X116755000Y-144725000D02*
X116595000Y-144725000D01*
G75*
G02*
X116515000Y-144645000I0J80000D01*
G01*
X116515000Y-143405000D01*
G75*
G02*
X116595000Y-143325000I80000J0D01*
G01*
X116755000Y-143325000D01*
G75*
G02*
X116835000Y-143405000I0J-80000D01*
G01*
X116835000Y-144645000D01*
G75*
G02*
X116755000Y-144725000I-80000J0D01*
G01*
G37*
G36*
G01*
X99745000Y-129635000D02*
X98505000Y-129635000D01*
G75*
G02*
X98425000Y-129555000I0J80000D01*
G01*
X98425000Y-129395000D01*
G75*
G02*
X98505000Y-129315000I80000J0D01*
G01*
X99745000Y-129315000D01*
G75*
G02*
X99825000Y-129395000I0J-80000D01*
G01*
X99825000Y-129555000D01*
G75*
G02*
X99745000Y-129635000I-80000J0D01*
G01*
G37*
G36*
G01*
X116105000Y-144725000D02*
X115945000Y-144725000D01*
G75*
G02*
X115865000Y-144645000I0J80000D01*
G01*
X115865000Y-143405000D01*
G75*
G02*
X115945000Y-143325000I80000J0D01*
G01*
X116105000Y-143325000D01*
G75*
G02*
X116185000Y-143405000I0J-80000D01*
G01*
X116185000Y-144645000D01*
G75*
G02*
X116105000Y-144725000I-80000J0D01*
G01*
G37*
G36*
G01*
X115455000Y-144725000D02*
X115295000Y-144725000D01*
G75*
G02*
X115215000Y-144645000I0J80000D01*
G01*
X115215000Y-143405000D01*
G75*
G02*
X115295000Y-143325000I80000J0D01*
G01*
X115455000Y-143325000D01*
G75*
G02*
X115535000Y-143405000I0J-80000D01*
G01*
X115535000Y-144645000D01*
G75*
G02*
X115455000Y-144725000I-80000J0D01*
G01*
G37*
G36*
G01*
X101805000Y-144725000D02*
X101645000Y-144725000D01*
G75*
G02*
X101565000Y-144645000I0J80000D01*
G01*
X101565000Y-143405000D01*
G75*
G02*
X101645000Y-143325000I80000J0D01*
G01*
X101805000Y-143325000D01*
G75*
G02*
X101885000Y-143405000I0J-80000D01*
G01*
X101885000Y-144645000D01*
G75*
G02*
X101805000Y-144725000I-80000J0D01*
G01*
G37*
G36*
G01*
X106355000Y-144725000D02*
X106195000Y-144725000D01*
G75*
G02*
X106115000Y-144645000I0J80000D01*
G01*
X106115000Y-143405000D01*
G75*
G02*
X106195000Y-143325000I80000J0D01*
G01*
X106355000Y-143325000D01*
G75*
G02*
X106435000Y-143405000I0J-80000D01*
G01*
X106435000Y-144645000D01*
G75*
G02*
X106355000Y-144725000I-80000J0D01*
G01*
G37*
G36*
G01*
X106355000Y-126675000D02*
X106195000Y-126675000D01*
G75*
G02*
X106115000Y-126595000I0J80000D01*
G01*
X106115000Y-125355000D01*
G75*
G02*
X106195000Y-125275000I80000J0D01*
G01*
X106355000Y-125275000D01*
G75*
G02*
X106435000Y-125355000I0J-80000D01*
G01*
X106435000Y-126595000D01*
G75*
G02*
X106355000Y-126675000I-80000J0D01*
G01*
G37*
G36*
G01*
X107655000Y-126675000D02*
X107495000Y-126675000D01*
G75*
G02*
X107415000Y-126595000I0J80000D01*
G01*
X107415000Y-125355000D01*
G75*
G02*
X107495000Y-125275000I80000J0D01*
G01*
X107655000Y-125275000D01*
G75*
G02*
X107735000Y-125355000I0J-80000D01*
G01*
X107735000Y-126595000D01*
G75*
G02*
X107655000Y-126675000I-80000J0D01*
G01*
G37*
G36*
G01*
X123895000Y-133535000D02*
X122655000Y-133535000D01*
G75*
G02*
X122575000Y-133455000I0J80000D01*
G01*
X122575000Y-133295000D01*
G75*
G02*
X122655000Y-133215000I80000J0D01*
G01*
X123895000Y-133215000D01*
G75*
G02*
X123975000Y-133295000I0J-80000D01*
G01*
X123975000Y-133455000D01*
G75*
G02*
X123895000Y-133535000I-80000J0D01*
G01*
G37*
G36*
G01*
X117405000Y-126675000D02*
X117245000Y-126675000D01*
G75*
G02*
X117165000Y-126595000I0J80000D01*
G01*
X117165000Y-125355000D01*
G75*
G02*
X117245000Y-125275000I80000J0D01*
G01*
X117405000Y-125275000D01*
G75*
G02*
X117485000Y-125355000I0J-80000D01*
G01*
X117485000Y-126595000D01*
G75*
G02*
X117405000Y-126675000I-80000J0D01*
G01*
G37*
G36*
G01*
X99745000Y-130935000D02*
X98505000Y-130935000D01*
G75*
G02*
X98425000Y-130855000I0J80000D01*
G01*
X98425000Y-130695000D01*
G75*
G02*
X98505000Y-130615000I80000J0D01*
G01*
X99745000Y-130615000D01*
G75*
G02*
X99825000Y-130695000I0J-80000D01*
G01*
X99825000Y-130855000D01*
G75*
G02*
X99745000Y-130935000I-80000J0D01*
G01*
G37*
G36*
G01*
X114155000Y-144725000D02*
X113995000Y-144725000D01*
G75*
G02*
X113915000Y-144645000I0J80000D01*
G01*
X113915000Y-143405000D01*
G75*
G02*
X113995000Y-143325000I80000J0D01*
G01*
X114155000Y-143325000D01*
G75*
G02*
X114235000Y-143405000I0J-80000D01*
G01*
X114235000Y-144645000D01*
G75*
G02*
X114155000Y-144725000I-80000J0D01*
G01*
G37*
G36*
G01*
X105705000Y-126675000D02*
X105545000Y-126675000D01*
G75*
G02*
X105465000Y-126595000I0J80000D01*
G01*
X105465000Y-125355000D01*
G75*
G02*
X105545000Y-125275000I80000J0D01*
G01*
X105705000Y-125275000D01*
G75*
G02*
X105785000Y-125355000I0J-80000D01*
G01*
X105785000Y-126595000D01*
G75*
G02*
X105705000Y-126675000I-80000J0D01*
G01*
G37*
G36*
G01*
X113505000Y-144725000D02*
X113345000Y-144725000D01*
G75*
G02*
X113265000Y-144645000I0J80000D01*
G01*
X113265000Y-143405000D01*
G75*
G02*
X113345000Y-143325000I80000J0D01*
G01*
X113505000Y-143325000D01*
G75*
G02*
X113585000Y-143405000I0J-80000D01*
G01*
X113585000Y-144645000D01*
G75*
G02*
X113505000Y-144725000I-80000J0D01*
G01*
G37*
G36*
G01*
X123895000Y-131585000D02*
X122655000Y-131585000D01*
G75*
G02*
X122575000Y-131505000I0J80000D01*
G01*
X122575000Y-131345000D01*
G75*
G02*
X122655000Y-131265000I80000J0D01*
G01*
X123895000Y-131265000D01*
G75*
G02*
X123975000Y-131345000I0J-80000D01*
G01*
X123975000Y-131505000D01*
G75*
G02*
X123895000Y-131585000I-80000J0D01*
G01*
G37*
G36*
G01*
X110905000Y-126675000D02*
X110745000Y-126675000D01*
G75*
G02*
X110665000Y-126595000I0J80000D01*
G01*
X110665000Y-125355000D01*
G75*
G02*
X110745000Y-125275000I80000J0D01*
G01*
X110905000Y-125275000D01*
G75*
G02*
X110985000Y-125355000I0J-80000D01*
G01*
X110985000Y-126595000D01*
G75*
G02*
X110905000Y-126675000I-80000J0D01*
G01*
G37*
G36*
G01*
X110255000Y-126675000D02*
X110095000Y-126675000D01*
G75*
G02*
X110015000Y-126595000I0J80000D01*
G01*
X110015000Y-125355000D01*
G75*
G02*
X110095000Y-125275000I80000J0D01*
G01*
X110255000Y-125275000D01*
G75*
G02*
X110335000Y-125355000I0J-80000D01*
G01*
X110335000Y-126595000D01*
G75*
G02*
X110255000Y-126675000I-80000J0D01*
G01*
G37*
G36*
G01*
X109605000Y-126675000D02*
X109445000Y-126675000D01*
G75*
G02*
X109365000Y-126595000I0J80000D01*
G01*
X109365000Y-125355000D01*
G75*
G02*
X109445000Y-125275000I80000J0D01*
G01*
X109605000Y-125275000D01*
G75*
G02*
X109685000Y-125355000I0J-80000D01*
G01*
X109685000Y-126595000D01*
G75*
G02*
X109605000Y-126675000I-80000J0D01*
G01*
G37*
G36*
G01*
X105055000Y-126675000D02*
X104895000Y-126675000D01*
G75*
G02*
X104815000Y-126595000I0J80000D01*
G01*
X104815000Y-125355000D01*
G75*
G02*
X104895000Y-125275000I80000J0D01*
G01*
X105055000Y-125275000D01*
G75*
G02*
X105135000Y-125355000I0J-80000D01*
G01*
X105135000Y-126595000D01*
G75*
G02*
X105055000Y-126675000I-80000J0D01*
G01*
G37*
G36*
G01*
X104405000Y-126675000D02*
X104245000Y-126675000D01*
G75*
G02*
X104165000Y-126595000I0J80000D01*
G01*
X104165000Y-125355000D01*
G75*
G02*
X104245000Y-125275000I80000J0D01*
G01*
X104405000Y-125275000D01*
G75*
G02*
X104485000Y-125355000I0J-80000D01*
G01*
X104485000Y-126595000D01*
G75*
G02*
X104405000Y-126675000I-80000J0D01*
G01*
G37*
G36*
G01*
X103755000Y-126675000D02*
X103595000Y-126675000D01*
G75*
G02*
X103515000Y-126595000I0J80000D01*
G01*
X103515000Y-125355000D01*
G75*
G02*
X103595000Y-125275000I80000J0D01*
G01*
X103755000Y-125275000D01*
G75*
G02*
X103835000Y-125355000I0J-80000D01*
G01*
X103835000Y-126595000D01*
G75*
G02*
X103755000Y-126675000I-80000J0D01*
G01*
G37*
G36*
G01*
X103105000Y-126675000D02*
X102945000Y-126675000D01*
G75*
G02*
X102865000Y-126595000I0J80000D01*
G01*
X102865000Y-125355000D01*
G75*
G02*
X102945000Y-125275000I80000J0D01*
G01*
X103105000Y-125275000D01*
G75*
G02*
X103185000Y-125355000I0J-80000D01*
G01*
X103185000Y-126595000D01*
G75*
G02*
X103105000Y-126675000I-80000J0D01*
G01*
G37*
G36*
G01*
X112855000Y-144725000D02*
X112695000Y-144725000D01*
G75*
G02*
X112615000Y-144645000I0J80000D01*
G01*
X112615000Y-143405000D01*
G75*
G02*
X112695000Y-143325000I80000J0D01*
G01*
X112855000Y-143325000D01*
G75*
G02*
X112935000Y-143405000I0J-80000D01*
G01*
X112935000Y-144645000D01*
G75*
G02*
X112855000Y-144725000I-80000J0D01*
G01*
G37*
G36*
G01*
X114805000Y-126675000D02*
X114645000Y-126675000D01*
G75*
G02*
X114565000Y-126595000I0J80000D01*
G01*
X114565000Y-125355000D01*
G75*
G02*
X114645000Y-125275000I80000J0D01*
G01*
X114805000Y-125275000D01*
G75*
G02*
X114885000Y-125355000I0J-80000D01*
G01*
X114885000Y-126595000D01*
G75*
G02*
X114805000Y-126675000I-80000J0D01*
G01*
G37*
G36*
G01*
X103105000Y-144725000D02*
X102945000Y-144725000D01*
G75*
G02*
X102865000Y-144645000I0J80000D01*
G01*
X102865000Y-143405000D01*
G75*
G02*
X102945000Y-143325000I80000J0D01*
G01*
X103105000Y-143325000D01*
G75*
G02*
X103185000Y-143405000I0J-80000D01*
G01*
X103185000Y-144645000D01*
G75*
G02*
X103105000Y-144725000I-80000J0D01*
G01*
G37*
G36*
G01*
X112205000Y-144725000D02*
X112045000Y-144725000D01*
G75*
G02*
X111965000Y-144645000I0J80000D01*
G01*
X111965000Y-143405000D01*
G75*
G02*
X112045000Y-143325000I80000J0D01*
G01*
X112205000Y-143325000D01*
G75*
G02*
X112285000Y-143405000I0J-80000D01*
G01*
X112285000Y-144645000D01*
G75*
G02*
X112205000Y-144725000I-80000J0D01*
G01*
G37*
G36*
G01*
X111555000Y-144725000D02*
X111395000Y-144725000D01*
G75*
G02*
X111315000Y-144645000I0J80000D01*
G01*
X111315000Y-143405000D01*
G75*
G02*
X111395000Y-143325000I80000J0D01*
G01*
X111555000Y-143325000D01*
G75*
G02*
X111635000Y-143405000I0J-80000D01*
G01*
X111635000Y-144645000D01*
G75*
G02*
X111555000Y-144725000I-80000J0D01*
G01*
G37*
G36*
G01*
X110905000Y-144725000D02*
X110745000Y-144725000D01*
G75*
G02*
X110665000Y-144645000I0J80000D01*
G01*
X110665000Y-143405000D01*
G75*
G02*
X110745000Y-143325000I80000J0D01*
G01*
X110905000Y-143325000D01*
G75*
G02*
X110985000Y-143405000I0J-80000D01*
G01*
X110985000Y-144645000D01*
G75*
G02*
X110905000Y-144725000I-80000J0D01*
G01*
G37*
G36*
G01*
X110255000Y-144725000D02*
X110095000Y-144725000D01*
G75*
G02*
X110015000Y-144645000I0J80000D01*
G01*
X110015000Y-143405000D01*
G75*
G02*
X110095000Y-143325000I80000J0D01*
G01*
X110255000Y-143325000D01*
G75*
G02*
X110335000Y-143405000I0J-80000D01*
G01*
X110335000Y-144645000D01*
G75*
G02*
X110255000Y-144725000I-80000J0D01*
G01*
G37*
G36*
G01*
X109605000Y-144725000D02*
X109445000Y-144725000D01*
G75*
G02*
X109365000Y-144645000I0J80000D01*
G01*
X109365000Y-143405000D01*
G75*
G02*
X109445000Y-143325000I80000J0D01*
G01*
X109605000Y-143325000D01*
G75*
G02*
X109685000Y-143405000I0J-80000D01*
G01*
X109685000Y-144645000D01*
G75*
G02*
X109605000Y-144725000I-80000J0D01*
G01*
G37*
G36*
G01*
X115455000Y-126675000D02*
X115295000Y-126675000D01*
G75*
G02*
X115215000Y-126595000I0J80000D01*
G01*
X115215000Y-125355000D01*
G75*
G02*
X115295000Y-125275000I80000J0D01*
G01*
X115455000Y-125275000D01*
G75*
G02*
X115535000Y-125355000I0J-80000D01*
G01*
X115535000Y-126595000D01*
G75*
G02*
X115455000Y-126675000I-80000J0D01*
G01*
G37*
G36*
G01*
X123895000Y-141335000D02*
X122655000Y-141335000D01*
G75*
G02*
X122575000Y-141255000I0J80000D01*
G01*
X122575000Y-141095000D01*
G75*
G02*
X122655000Y-141015000I80000J0D01*
G01*
X123895000Y-141015000D01*
G75*
G02*
X123975000Y-141095000I0J-80000D01*
G01*
X123975000Y-141255000D01*
G75*
G02*
X123895000Y-141335000I-80000J0D01*
G01*
G37*
G36*
G01*
X120005000Y-144725000D02*
X119845000Y-144725000D01*
G75*
G02*
X119765000Y-144645000I0J80000D01*
G01*
X119765000Y-143405000D01*
G75*
G02*
X119845000Y-143325000I80000J0D01*
G01*
X120005000Y-143325000D01*
G75*
G02*
X120085000Y-143405000I0J-80000D01*
G01*
X120085000Y-144645000D01*
G75*
G02*
X120005000Y-144725000I-80000J0D01*
G01*
G37*
G36*
G01*
X120655000Y-144725000D02*
X120495000Y-144725000D01*
G75*
G02*
X120415000Y-144645000I0J80000D01*
G01*
X120415000Y-143405000D01*
G75*
G02*
X120495000Y-143325000I80000J0D01*
G01*
X120655000Y-143325000D01*
G75*
G02*
X120735000Y-143405000I0J-80000D01*
G01*
X120735000Y-144645000D01*
G75*
G02*
X120655000Y-144725000I-80000J0D01*
G01*
G37*
G36*
G01*
X99745000Y-138735000D02*
X98505000Y-138735000D01*
G75*
G02*
X98425000Y-138655000I0J80000D01*
G01*
X98425000Y-138495000D01*
G75*
G02*
X98505000Y-138415000I80000J0D01*
G01*
X99745000Y-138415000D01*
G75*
G02*
X99825000Y-138495000I0J-80000D01*
G01*
X99825000Y-138655000D01*
G75*
G02*
X99745000Y-138735000I-80000J0D01*
G01*
G37*
G36*
G01*
X99745000Y-139385000D02*
X98505000Y-139385000D01*
G75*
G02*
X98425000Y-139305000I0J80000D01*
G01*
X98425000Y-139145000D01*
G75*
G02*
X98505000Y-139065000I80000J0D01*
G01*
X99745000Y-139065000D01*
G75*
G02*
X99825000Y-139145000I0J-80000D01*
G01*
X99825000Y-139305000D01*
G75*
G02*
X99745000Y-139385000I-80000J0D01*
G01*
G37*
G36*
G01*
X99745000Y-140035000D02*
X98505000Y-140035000D01*
G75*
G02*
X98425000Y-139955000I0J80000D01*
G01*
X98425000Y-139795000D01*
G75*
G02*
X98505000Y-139715000I80000J0D01*
G01*
X99745000Y-139715000D01*
G75*
G02*
X99825000Y-139795000I0J-80000D01*
G01*
X99825000Y-139955000D01*
G75*
G02*
X99745000Y-140035000I-80000J0D01*
G01*
G37*
G36*
G01*
X99745000Y-140685000D02*
X98505000Y-140685000D01*
G75*
G02*
X98425000Y-140605000I0J80000D01*
G01*
X98425000Y-140445000D01*
G75*
G02*
X98505000Y-140365000I80000J0D01*
G01*
X99745000Y-140365000D01*
G75*
G02*
X99825000Y-140445000I0J-80000D01*
G01*
X99825000Y-140605000D01*
G75*
G02*
X99745000Y-140685000I-80000J0D01*
G01*
G37*
G36*
G01*
X99745000Y-141335000D02*
X98505000Y-141335000D01*
G75*
G02*
X98425000Y-141255000I0J80000D01*
G01*
X98425000Y-141095000D01*
G75*
G02*
X98505000Y-141015000I80000J0D01*
G01*
X99745000Y-141015000D01*
G75*
G02*
X99825000Y-141095000I0J-80000D01*
G01*
X99825000Y-141255000D01*
G75*
G02*
X99745000Y-141335000I-80000J0D01*
G01*
G37*
G36*
G01*
X99745000Y-134835000D02*
X98505000Y-134835000D01*
G75*
G02*
X98425000Y-134755000I0J80000D01*
G01*
X98425000Y-134595000D01*
G75*
G02*
X98505000Y-134515000I80000J0D01*
G01*
X99745000Y-134515000D01*
G75*
G02*
X99825000Y-134595000I0J-80000D01*
G01*
X99825000Y-134755000D01*
G75*
G02*
X99745000Y-134835000I-80000J0D01*
G01*
G37*
G36*
G01*
X99745000Y-135485000D02*
X98505000Y-135485000D01*
G75*
G02*
X98425000Y-135405000I0J80000D01*
G01*
X98425000Y-135245000D01*
G75*
G02*
X98505000Y-135165000I80000J0D01*
G01*
X99745000Y-135165000D01*
G75*
G02*
X99825000Y-135245000I0J-80000D01*
G01*
X99825000Y-135405000D01*
G75*
G02*
X99745000Y-135485000I-80000J0D01*
G01*
G37*
G36*
G01*
X99745000Y-136135000D02*
X98505000Y-136135000D01*
G75*
G02*
X98425000Y-136055000I0J80000D01*
G01*
X98425000Y-135895000D01*
G75*
G02*
X98505000Y-135815000I80000J0D01*
G01*
X99745000Y-135815000D01*
G75*
G02*
X99825000Y-135895000I0J-80000D01*
G01*
X99825000Y-136055000D01*
G75*
G02*
X99745000Y-136135000I-80000J0D01*
G01*
G37*
G36*
G01*
X99745000Y-136785000D02*
X98505000Y-136785000D01*
G75*
G02*
X98425000Y-136705000I0J80000D01*
G01*
X98425000Y-136545000D01*
G75*
G02*
X98505000Y-136465000I80000J0D01*
G01*
X99745000Y-136465000D01*
G75*
G02*
X99825000Y-136545000I0J-80000D01*
G01*
X99825000Y-136705000D01*
G75*
G02*
X99745000Y-136785000I-80000J0D01*
G01*
G37*
G36*
G01*
X99745000Y-137435000D02*
X98505000Y-137435000D01*
G75*
G02*
X98425000Y-137355000I0J80000D01*
G01*
X98425000Y-137195000D01*
G75*
G02*
X98505000Y-137115000I80000J0D01*
G01*
X99745000Y-137115000D01*
G75*
G02*
X99825000Y-137195000I0J-80000D01*
G01*
X99825000Y-137355000D01*
G75*
G02*
X99745000Y-137435000I-80000J0D01*
G01*
G37*
G36*
G01*
X99745000Y-138085000D02*
X98505000Y-138085000D01*
G75*
G02*
X98425000Y-138005000I0J80000D01*
G01*
X98425000Y-137845000D01*
G75*
G02*
X98505000Y-137765000I80000J0D01*
G01*
X99745000Y-137765000D01*
G75*
G02*
X99825000Y-137845000I0J-80000D01*
G01*
X99825000Y-138005000D01*
G75*
G02*
X99745000Y-138085000I-80000J0D01*
G01*
G37*
G36*
G01*
X99745000Y-131585000D02*
X98505000Y-131585000D01*
G75*
G02*
X98425000Y-131505000I0J80000D01*
G01*
X98425000Y-131345000D01*
G75*
G02*
X98505000Y-131265000I80000J0D01*
G01*
X99745000Y-131265000D01*
G75*
G02*
X99825000Y-131345000I0J-80000D01*
G01*
X99825000Y-131505000D01*
G75*
G02*
X99745000Y-131585000I-80000J0D01*
G01*
G37*
G36*
G01*
X99745000Y-132235000D02*
X98505000Y-132235000D01*
G75*
G02*
X98425000Y-132155000I0J80000D01*
G01*
X98425000Y-131995000D01*
G75*
G02*
X98505000Y-131915000I80000J0D01*
G01*
X99745000Y-131915000D01*
G75*
G02*
X99825000Y-131995000I0J-80000D01*
G01*
X99825000Y-132155000D01*
G75*
G02*
X99745000Y-132235000I-80000J0D01*
G01*
G37*
G36*
G01*
X99745000Y-132885000D02*
X98505000Y-132885000D01*
G75*
G02*
X98425000Y-132805000I0J80000D01*
G01*
X98425000Y-132645000D01*
G75*
G02*
X98505000Y-132565000I80000J0D01*
G01*
X99745000Y-132565000D01*
G75*
G02*
X99825000Y-132645000I0J-80000D01*
G01*
X99825000Y-132805000D01*
G75*
G02*
X99745000Y-132885000I-80000J0D01*
G01*
G37*
G36*
G01*
X99745000Y-133535000D02*
X98505000Y-133535000D01*
G75*
G02*
X98425000Y-133455000I0J80000D01*
G01*
X98425000Y-133295000D01*
G75*
G02*
X98505000Y-133215000I80000J0D01*
G01*
X99745000Y-133215000D01*
G75*
G02*
X99825000Y-133295000I0J-80000D01*
G01*
X99825000Y-133455000D01*
G75*
G02*
X99745000Y-133535000I-80000J0D01*
G01*
G37*
G36*
G01*
X99745000Y-134185000D02*
X98505000Y-134185000D01*
G75*
G02*
X98425000Y-134105000I0J80000D01*
G01*
X98425000Y-133945000D01*
G75*
G02*
X98505000Y-133865000I80000J0D01*
G01*
X99745000Y-133865000D01*
G75*
G02*
X99825000Y-133945000I0J-80000D01*
G01*
X99825000Y-134105000D01*
G75*
G02*
X99745000Y-134185000I-80000J0D01*
G01*
G37*
G36*
G01*
X102455000Y-126675000D02*
X102295000Y-126675000D01*
G75*
G02*
X102215000Y-126595000I0J80000D01*
G01*
X102215000Y-125355000D01*
G75*
G02*
X102295000Y-125275000I80000J0D01*
G01*
X102455000Y-125275000D01*
G75*
G02*
X102535000Y-125355000I0J-80000D01*
G01*
X102535000Y-126595000D01*
G75*
G02*
X102455000Y-126675000I-80000J0D01*
G01*
G37*
G36*
G01*
X101805000Y-126675000D02*
X101645000Y-126675000D01*
G75*
G02*
X101565000Y-126595000I0J80000D01*
G01*
X101565000Y-125355000D01*
G75*
G02*
X101645000Y-125275000I80000J0D01*
G01*
X101805000Y-125275000D01*
G75*
G02*
X101885000Y-125355000I0J-80000D01*
G01*
X101885000Y-126595000D01*
G75*
G02*
X101805000Y-126675000I-80000J0D01*
G01*
G37*
G36*
G01*
X123895000Y-139385000D02*
X122655000Y-139385000D01*
G75*
G02*
X122575000Y-139305000I0J80000D01*
G01*
X122575000Y-139145000D01*
G75*
G02*
X122655000Y-139065000I80000J0D01*
G01*
X123895000Y-139065000D01*
G75*
G02*
X123975000Y-139145000I0J-80000D01*
G01*
X123975000Y-139305000D01*
G75*
G02*
X123895000Y-139385000I-80000J0D01*
G01*
G37*
G36*
G01*
X123895000Y-140035000D02*
X122655000Y-140035000D01*
G75*
G02*
X122575000Y-139955000I0J80000D01*
G01*
X122575000Y-139795000D01*
G75*
G02*
X122655000Y-139715000I80000J0D01*
G01*
X123895000Y-139715000D01*
G75*
G02*
X123975000Y-139795000I0J-80000D01*
G01*
X123975000Y-139955000D01*
G75*
G02*
X123895000Y-140035000I-80000J0D01*
G01*
G37*
G36*
G01*
X123895000Y-140685000D02*
X122655000Y-140685000D01*
G75*
G02*
X122575000Y-140605000I0J80000D01*
G01*
X122575000Y-140445000D01*
G75*
G02*
X122655000Y-140365000I80000J0D01*
G01*
X123895000Y-140365000D01*
G75*
G02*
X123975000Y-140445000I0J-80000D01*
G01*
X123975000Y-140605000D01*
G75*
G02*
X123895000Y-140685000I-80000J0D01*
G01*
G37*
G36*
G01*
X123895000Y-138085000D02*
X122655000Y-138085000D01*
G75*
G02*
X122575000Y-138005000I0J80000D01*
G01*
X122575000Y-137845000D01*
G75*
G02*
X122655000Y-137765000I80000J0D01*
G01*
X123895000Y-137765000D01*
G75*
G02*
X123975000Y-137845000I0J-80000D01*
G01*
X123975000Y-138005000D01*
G75*
G02*
X123895000Y-138085000I-80000J0D01*
G01*
G37*
G36*
G01*
X123895000Y-130285000D02*
X122655000Y-130285000D01*
G75*
G02*
X122575000Y-130205000I0J80000D01*
G01*
X122575000Y-130045000D01*
G75*
G02*
X122655000Y-129965000I80000J0D01*
G01*
X123895000Y-129965000D01*
G75*
G02*
X123975000Y-130045000I0J-80000D01*
G01*
X123975000Y-130205000D01*
G75*
G02*
X123895000Y-130285000I-80000J0D01*
G01*
G37*
G36*
G01*
X120005000Y-126675000D02*
X119845000Y-126675000D01*
G75*
G02*
X119765000Y-126595000I0J80000D01*
G01*
X119765000Y-125355000D01*
G75*
G02*
X119845000Y-125275000I80000J0D01*
G01*
X120005000Y-125275000D01*
G75*
G02*
X120085000Y-125355000I0J-80000D01*
G01*
X120085000Y-126595000D01*
G75*
G02*
X120005000Y-126675000I-80000J0D01*
G01*
G37*
G36*
G01*
X123895000Y-129635000D02*
X122655000Y-129635000D01*
G75*
G02*
X122575000Y-129555000I0J80000D01*
G01*
X122575000Y-129395000D01*
G75*
G02*
X122655000Y-129315000I80000J0D01*
G01*
X123895000Y-129315000D01*
G75*
G02*
X123975000Y-129395000I0J-80000D01*
G01*
X123975000Y-129555000D01*
G75*
G02*
X123895000Y-129635000I-80000J0D01*
G01*
G37*
%TD*%
D11*
%TO.C,T1*%
X169750000Y-108839000D03*
X169750000Y-110109000D03*
X169750000Y-111379000D03*
X169750000Y-115189000D03*
X169750000Y-116459000D03*
X169750000Y-117729000D03*
X160450000Y-117729000D03*
X160450000Y-116459000D03*
X160450000Y-115189000D03*
X160450000Y-111379000D03*
X160450000Y-110109000D03*
X160450000Y-108839000D03*
%TD*%
%TO.C,R5*%
G36*
G01*
X176566000Y-128037000D02*
X176566000Y-127741000D01*
G75*
G02*
X176674000Y-127633000I108000J0D01*
G01*
X176890000Y-127633000D01*
G75*
G02*
X176998000Y-127741000I0J-108000D01*
G01*
X176998000Y-128037000D01*
G75*
G02*
X176890000Y-128145000I-108000J0D01*
G01*
X176674000Y-128145000D01*
G75*
G02*
X176566000Y-128037000I0J108000D01*
G01*
G37*
G36*
G01*
X177586000Y-128037000D02*
X177586000Y-127741000D01*
G75*
G02*
X177694000Y-127633000I108000J0D01*
G01*
X177910000Y-127633000D01*
G75*
G02*
X178018000Y-127741000I0J-108000D01*
G01*
X178018000Y-128037000D01*
G75*
G02*
X177910000Y-128145000I-108000J0D01*
G01*
X177694000Y-128145000D01*
G75*
G02*
X177586000Y-128037000I0J108000D01*
G01*
G37*
%TD*%
%TO.C,R4*%
G36*
G01*
X177586000Y-130958000D02*
X177586000Y-130662000D01*
G75*
G02*
X177694000Y-130554000I108000J0D01*
G01*
X177910000Y-130554000D01*
G75*
G02*
X178018000Y-130662000I0J-108000D01*
G01*
X178018000Y-130958000D01*
G75*
G02*
X177910000Y-131066000I-108000J0D01*
G01*
X177694000Y-131066000D01*
G75*
G02*
X177586000Y-130958000I0J108000D01*
G01*
G37*
G36*
G01*
X176566000Y-130958000D02*
X176566000Y-130662000D01*
G75*
G02*
X176674000Y-130554000I108000J0D01*
G01*
X176890000Y-130554000D01*
G75*
G02*
X176998000Y-130662000I0J-108000D01*
G01*
X176998000Y-130958000D01*
G75*
G02*
X176890000Y-131066000I-108000J0D01*
G01*
X176674000Y-131066000D01*
G75*
G02*
X176566000Y-130958000I0J108000D01*
G01*
G37*
%TD*%
%TO.C,R3*%
G36*
G01*
X157713000Y-116753000D02*
X158009000Y-116753000D01*
G75*
G02*
X158117000Y-116861000I0J-108000D01*
G01*
X158117000Y-117077000D01*
G75*
G02*
X158009000Y-117185000I-108000J0D01*
G01*
X157713000Y-117185000D01*
G75*
G02*
X157605000Y-117077000I0J108000D01*
G01*
X157605000Y-116861000D01*
G75*
G02*
X157713000Y-116753000I108000J0D01*
G01*
G37*
G36*
G01*
X157713000Y-115733000D02*
X158009000Y-115733000D01*
G75*
G02*
X158117000Y-115841000I0J-108000D01*
G01*
X158117000Y-116057000D01*
G75*
G02*
X158009000Y-116165000I-108000J0D01*
G01*
X157713000Y-116165000D01*
G75*
G02*
X157605000Y-116057000I0J108000D01*
G01*
X157605000Y-115841000D01*
G75*
G02*
X157713000Y-115733000I108000J0D01*
G01*
G37*
%TD*%
%TO.C,R2*%
G36*
G01*
X122451763Y-125163460D02*
X122242460Y-125372763D01*
G75*
G02*
X122089724Y-125372763I-76368J76368D01*
G01*
X121936989Y-125220028D01*
G75*
G02*
X121936989Y-125067292I76368J76368D01*
G01*
X122146292Y-124857989D01*
G75*
G02*
X122299028Y-124857989I76368J-76368D01*
G01*
X122451763Y-125010724D01*
G75*
G02*
X122451763Y-125163460I-76368J-76368D01*
G01*
G37*
G36*
G01*
X123173011Y-125884708D02*
X122963708Y-126094011D01*
G75*
G02*
X122810972Y-126094011I-76368J76368D01*
G01*
X122658237Y-125941276D01*
G75*
G02*
X122658237Y-125788540I76368J76368D01*
G01*
X122867540Y-125579237D01*
G75*
G02*
X123020276Y-125579237I76368J-76368D01*
G01*
X123173011Y-125731972D01*
G75*
G02*
X123173011Y-125884708I-76368J-76368D01*
G01*
G37*
%TD*%
%TO.C,R1*%
G36*
G01*
X123408000Y-101538000D02*
X123408000Y-101242000D01*
G75*
G02*
X123516000Y-101134000I108000J0D01*
G01*
X123732000Y-101134000D01*
G75*
G02*
X123840000Y-101242000I0J-108000D01*
G01*
X123840000Y-101538000D01*
G75*
G02*
X123732000Y-101646000I-108000J0D01*
G01*
X123516000Y-101646000D01*
G75*
G02*
X123408000Y-101538000I0J108000D01*
G01*
G37*
G36*
G01*
X122388000Y-101538000D02*
X122388000Y-101242000D01*
G75*
G02*
X122496000Y-101134000I108000J0D01*
G01*
X122712000Y-101134000D01*
G75*
G02*
X122820000Y-101242000I0J-108000D01*
G01*
X122820000Y-101538000D01*
G75*
G02*
X122712000Y-101646000I-108000J0D01*
G01*
X122496000Y-101646000D01*
G75*
G02*
X122388000Y-101538000I0J108000D01*
G01*
G37*
%TD*%
%TO.C,C14*%
G36*
G01*
X172707999Y-109727000D02*
X173748001Y-109727000D01*
G75*
G02*
X173948000Y-109926999I0J-199999D01*
G01*
X173948000Y-110447001D01*
G75*
G02*
X173748001Y-110647000I-199999J0D01*
G01*
X172707999Y-110647000D01*
G75*
G02*
X172508000Y-110447001I0J199999D01*
G01*
X172508000Y-109926999D01*
G75*
G02*
X172707999Y-109727000I199999J0D01*
G01*
G37*
G36*
G01*
X172707999Y-106777000D02*
X173748001Y-106777000D01*
G75*
G02*
X173948000Y-106976999I0J-199999D01*
G01*
X173948000Y-107497001D01*
G75*
G02*
X173748001Y-107697000I-199999J0D01*
G01*
X172707999Y-107697000D01*
G75*
G02*
X172508000Y-107497001I0J199999D01*
G01*
X172508000Y-106976999D01*
G75*
G02*
X172707999Y-106777000I199999J0D01*
G01*
G37*
%TD*%
%TO.C,C13*%
G36*
G01*
X172707999Y-118871000D02*
X173748001Y-118871000D01*
G75*
G02*
X173948000Y-119070999I0J-199999D01*
G01*
X173948000Y-119591001D01*
G75*
G02*
X173748001Y-119791000I-199999J0D01*
G01*
X172707999Y-119791000D01*
G75*
G02*
X172508000Y-119591001I0J199999D01*
G01*
X172508000Y-119070999D01*
G75*
G02*
X172707999Y-118871000I199999J0D01*
G01*
G37*
G36*
G01*
X172707999Y-115921000D02*
X173748001Y-115921000D01*
G75*
G02*
X173948000Y-116120999I0J-199999D01*
G01*
X173948000Y-116641001D01*
G75*
G02*
X173748001Y-116841000I-199999J0D01*
G01*
X172707999Y-116841000D01*
G75*
G02*
X172508000Y-116641001I0J199999D01*
G01*
X172508000Y-116120999D01*
G75*
G02*
X172707999Y-115921000I199999J0D01*
G01*
G37*
%TD*%
%TO.C,C12*%
G36*
G01*
X109095000Y-122945000D02*
X109095000Y-122673000D01*
G75*
G02*
X109207000Y-122561000I112000J0D01*
G01*
X109431000Y-122561000D01*
G75*
G02*
X109543000Y-122673000I0J-112000D01*
G01*
X109543000Y-122945000D01*
G75*
G02*
X109431000Y-123057000I-112000J0D01*
G01*
X109207000Y-123057000D01*
G75*
G02*
X109095000Y-122945000I0J112000D01*
G01*
G37*
G36*
G01*
X108135000Y-122945000D02*
X108135000Y-122673000D01*
G75*
G02*
X108247000Y-122561000I112000J0D01*
G01*
X108471000Y-122561000D01*
G75*
G02*
X108583000Y-122673000I0J-112000D01*
G01*
X108583000Y-122945000D01*
G75*
G02*
X108471000Y-123057000I-112000J0D01*
G01*
X108247000Y-123057000D01*
G75*
G02*
X108135000Y-122945000I0J112000D01*
G01*
G37*
%TD*%
%TO.C,C11*%
G36*
G01*
X162039999Y-124205000D02*
X163080001Y-124205000D01*
G75*
G02*
X163280000Y-124404999I0J-199999D01*
G01*
X163280000Y-124925001D01*
G75*
G02*
X163080001Y-125125000I-199999J0D01*
G01*
X162039999Y-125125000D01*
G75*
G02*
X161840000Y-124925001I0J199999D01*
G01*
X161840000Y-124404999D01*
G75*
G02*
X162039999Y-124205000I199999J0D01*
G01*
G37*
G36*
G01*
X162039999Y-121255000D02*
X163080001Y-121255000D01*
G75*
G02*
X163280000Y-121454999I0J-199999D01*
G01*
X163280000Y-121975001D01*
G75*
G02*
X163080001Y-122175000I-199999J0D01*
G01*
X162039999Y-122175000D01*
G75*
G02*
X161840000Y-121975001I0J199999D01*
G01*
X161840000Y-121454999D01*
G75*
G02*
X162039999Y-121255000I199999J0D01*
G01*
G37*
%TD*%
%TO.C,C10*%
G36*
G01*
X162039999Y-104393000D02*
X163080001Y-104393000D01*
G75*
G02*
X163280000Y-104592999I0J-199999D01*
G01*
X163280000Y-105113001D01*
G75*
G02*
X163080001Y-105313000I-199999J0D01*
G01*
X162039999Y-105313000D01*
G75*
G02*
X161840000Y-105113001I0J199999D01*
G01*
X161840000Y-104592999D01*
G75*
G02*
X162039999Y-104393000I199999J0D01*
G01*
G37*
G36*
G01*
X162039999Y-101443000D02*
X163080001Y-101443000D01*
G75*
G02*
X163280000Y-101642999I0J-199999D01*
G01*
X163280000Y-102163001D01*
G75*
G02*
X163080001Y-102363000I-199999J0D01*
G01*
X162039999Y-102363000D01*
G75*
G02*
X161840000Y-102163001I0J199999D01*
G01*
X161840000Y-101642999D01*
G75*
G02*
X162039999Y-101443000I199999J0D01*
G01*
G37*
%TD*%
%TO.C,C9*%
G36*
G01*
X123580000Y-123287000D02*
X123308000Y-123287000D01*
G75*
G02*
X123196000Y-123175000I0J112000D01*
G01*
X123196000Y-122951000D01*
G75*
G02*
X123308000Y-122839000I112000J0D01*
G01*
X123580000Y-122839000D01*
G75*
G02*
X123692000Y-122951000I0J-112000D01*
G01*
X123692000Y-123175000D01*
G75*
G02*
X123580000Y-123287000I-112000J0D01*
G01*
G37*
G36*
G01*
X123580000Y-124247000D02*
X123308000Y-124247000D01*
G75*
G02*
X123196000Y-124135000I0J112000D01*
G01*
X123196000Y-123911000D01*
G75*
G02*
X123308000Y-123799000I112000J0D01*
G01*
X123580000Y-123799000D01*
G75*
G02*
X123692000Y-123911000I0J-112000D01*
G01*
X123692000Y-124135000D01*
G75*
G02*
X123580000Y-124247000I-112000J0D01*
G01*
G37*
%TD*%
%TO.C,C8*%
G36*
G01*
X129531000Y-123827000D02*
X129803000Y-123827000D01*
G75*
G02*
X129915000Y-123939000I0J-112000D01*
G01*
X129915000Y-124163000D01*
G75*
G02*
X129803000Y-124275000I-112000J0D01*
G01*
X129531000Y-124275000D01*
G75*
G02*
X129419000Y-124163000I0J112000D01*
G01*
X129419000Y-123939000D01*
G75*
G02*
X129531000Y-123827000I112000J0D01*
G01*
G37*
G36*
G01*
X129531000Y-122867000D02*
X129803000Y-122867000D01*
G75*
G02*
X129915000Y-122979000I0J-112000D01*
G01*
X129915000Y-123203000D01*
G75*
G02*
X129803000Y-123315000I-112000J0D01*
G01*
X129531000Y-123315000D01*
G75*
G02*
X129419000Y-123203000I0J112000D01*
G01*
X129419000Y-122979000D01*
G75*
G02*
X129531000Y-122867000I112000J0D01*
G01*
G37*
%TD*%
%TO.C,C7*%
G36*
G01*
X118620000Y-122945000D02*
X118620000Y-122673000D01*
G75*
G02*
X118732000Y-122561000I112000J0D01*
G01*
X118956000Y-122561000D01*
G75*
G02*
X119068000Y-122673000I0J-112000D01*
G01*
X119068000Y-122945000D01*
G75*
G02*
X118956000Y-123057000I-112000J0D01*
G01*
X118732000Y-123057000D01*
G75*
G02*
X118620000Y-122945000I0J112000D01*
G01*
G37*
G36*
G01*
X117660000Y-122945000D02*
X117660000Y-122673000D01*
G75*
G02*
X117772000Y-122561000I112000J0D01*
G01*
X117996000Y-122561000D01*
G75*
G02*
X118108000Y-122673000I0J-112000D01*
G01*
X118108000Y-122945000D01*
G75*
G02*
X117996000Y-123057000I-112000J0D01*
G01*
X117772000Y-123057000D01*
G75*
G02*
X117660000Y-122945000I0J112000D01*
G01*
G37*
%TD*%
%TO.C,C1*%
G36*
G01*
X103761000Y-112785000D02*
X103761000Y-112513000D01*
G75*
G02*
X103873000Y-112401000I112000J0D01*
G01*
X104097000Y-112401000D01*
G75*
G02*
X104209000Y-112513000I0J-112000D01*
G01*
X104209000Y-112785000D01*
G75*
G02*
X104097000Y-112897000I-112000J0D01*
G01*
X103873000Y-112897000D01*
G75*
G02*
X103761000Y-112785000I0J112000D01*
G01*
G37*
G36*
G01*
X102801000Y-112785000D02*
X102801000Y-112513000D01*
G75*
G02*
X102913000Y-112401000I112000J0D01*
G01*
X103137000Y-112401000D01*
G75*
G02*
X103249000Y-112513000I0J-112000D01*
G01*
X103249000Y-112785000D01*
G75*
G02*
X103137000Y-112897000I-112000J0D01*
G01*
X102913000Y-112897000D01*
G75*
G02*
X102801000Y-112785000I0J112000D01*
G01*
G37*
%TD*%
M02*
