M48
; DRILL file {KiCad 5.1.7} date Sat Nov 14 02:02:50 2020
; FORMAT={-:-/ absolute / metric / decimal}
; #@! TF.CreationDate,2020-11-14T02:02:50+01:00
; #@! TF.GenerationSoftware,Kicad,Pcbnew,5.1.7
; #@! TF.FileFunction,Plated,1,2,PTH
FMAT,2
METRIC
T1C0.300
T2C0.500
T3C0.800
T4C0.900
T5C1.000
T6C1.800
T7C3.200
%
G90
G05
T1
X102.87Y-147.574
X110.109Y-142.24
X110.109Y-145.796
X112.141Y-148.082
X123.444Y-125.095
X124.587Y-123.19
X124.841Y-131.988
X124.841Y-132.715
X126.492Y-131.572
X127.635Y-130.81
X128.651Y-124.079
X129.667Y-122.047
X148.209Y-116.034
X148.209Y-116.884
X152.527Y-116.034
X152.527Y-116.884
X164.338Y-101.854
X164.338Y-124.714
X180.721Y-128.27
T2
X185.751Y-95.1
X186.454Y-93.403
X186.454Y-96.797
X188.151Y-92.7
X188.151Y-97.5
X189.848Y-93.403
X189.848Y-96.797
X190.551Y-95.1
X185.751Y-151.615
X186.454Y-149.918
X186.454Y-153.312
X188.151Y-149.215
X188.151Y-154.015
X189.848Y-149.918
X189.848Y-153.312
X190.551Y-151.615
T3
X43.6Y-134.025
X43.6Y-149.265
X46.14Y-134.025
X46.14Y-149.265
X48.68Y-134.025
X48.68Y-149.265
X51.22Y-134.025
X51.22Y-149.265
X53.76Y-134.025
X53.76Y-149.265
X56.3Y-134.025
X56.3Y-149.265
X58.84Y-134.025
X58.84Y-149.265
X61.38Y-134.025
X61.38Y-149.265
X63.92Y-134.025
X63.92Y-149.265
X66.46Y-134.025
X66.46Y-149.265
X69.0Y-134.025
X69.0Y-149.265
X71.54Y-134.025
X71.54Y-149.265
X74.08Y-134.025
X74.08Y-149.265
X76.62Y-134.025
X76.62Y-149.265
X79.16Y-134.025
X79.16Y-149.265
X81.7Y-134.025
X81.7Y-149.265
T4
X177.77Y-106.3
X177.77Y-108.59
X177.77Y-117.73
X177.77Y-120.02
X182.57Y-110.61
X182.57Y-112.65
X182.57Y-114.69
X182.57Y-116.73
X184.35Y-109.59
X184.35Y-111.63
X184.35Y-113.67
X184.35Y-115.71
T5
X58.415Y-55.69
X58.415Y-58.23
X58.415Y-60.77
X58.415Y-63.31
X60.955Y-55.69
X60.955Y-58.23
X60.955Y-60.77
X60.955Y-63.31
X44.015Y-55.69
X44.015Y-58.23
X44.015Y-60.77
X44.015Y-63.31
X44.015Y-65.85
X44.015Y-68.39
X44.015Y-70.93
X44.015Y-73.47
X46.555Y-55.69
X46.555Y-58.23
X46.555Y-60.77
X46.555Y-63.31
X46.555Y-65.85
X46.555Y-68.39
X46.555Y-70.93
X46.555Y-73.47
X65.615Y-55.69
X65.615Y-58.23
X65.615Y-60.77
X68.155Y-55.69
X68.155Y-58.23
X68.155Y-60.77
X65.615Y-65.39
X65.615Y-67.93
X68.155Y-65.39
X68.155Y-67.93
X51.215Y-70.49
X53.755Y-70.49
X51.215Y-55.69
X51.215Y-58.23
X51.215Y-60.77
X51.215Y-63.31
X51.215Y-65.85
X53.755Y-55.69
X53.755Y-58.23
X53.755Y-60.77
X53.755Y-63.31
X53.755Y-65.85
X58.415Y-67.94
X60.955Y-67.94
T6
X183.33Y-104.96
X183.33Y-121.36
T7
X188.151Y-95.1
X188.151Y-151.615
T0
M30
