%TF.GenerationSoftware,KiCad,Pcbnew,5.1.7*%
%TF.CreationDate,2020-11-14T02:02:55+01:00*%
%TF.ProjectId,ISA8019,49534138-3031-4392-9e6b-696361645f70,rev?*%
%TF.SameCoordinates,Original*%
%TF.FileFunction,Legend,Top*%
%TF.FilePolarity,Positive*%
%FSLAX46Y46*%
G04 Gerber Fmt 4.6, Leading zero omitted, Abs format (unit mm)*
G04 Created by KiCad (PCBNEW 5.1.7) date 2020-11-14 02:02:55*
%MOMM*%
%LPD*%
G01*
G04 APERTURE LIST*
%ADD10C,0.190500*%
%ADD11C,0.120000*%
%ADD12C,0.150000*%
G04 APERTURE END LIST*
D10*
X191072000Y-151615000D02*
G75*
G03*
X191072000Y-151615000I-2921000J0D01*
G01*
X191072000Y-95100000D02*
G75*
G03*
X191072000Y-95100000I-2921000J0D01*
G01*
D11*
%TO.C,J1*%
X170300000Y-163150000D02*
X170300000Y-154200000D01*
X170300000Y-154200000D02*
X170700000Y-154200000D01*
X83950000Y-163150000D02*
X83950000Y-155550000D01*
X83950000Y-155550000D02*
X88900000Y-155550000D01*
X88900000Y-155550000D02*
X88900000Y-163150000D01*
X35550000Y-163150000D02*
X35550000Y-154200000D01*
X35550000Y-154200000D02*
X35150000Y-154200000D01*
%TO.C,FB1*%
X181281000Y-125457378D02*
X181281000Y-126256622D01*
X180161000Y-125457378D02*
X180161000Y-126256622D01*
%TO.C,R22*%
X71791760Y-53979601D02*
X72099042Y-53979601D01*
X71791760Y-54739601D02*
X72099042Y-54739601D01*
%TO.C,R21*%
X60301760Y-70879601D02*
X60609042Y-70879601D01*
X60301760Y-71639601D02*
X60609042Y-71639601D01*
%TO.C,R20*%
X60301760Y-72869601D02*
X60609042Y-72869601D01*
X60301760Y-73629601D02*
X60609042Y-73629601D01*
%TO.C,R19*%
X55841760Y-74859601D02*
X56149042Y-74859601D01*
X55841760Y-75619601D02*
X56149042Y-75619601D01*
%TO.C,R18*%
X74701760Y-57959601D02*
X75009042Y-57959601D01*
X74701760Y-58719601D02*
X75009042Y-58719601D01*
%TO.C,R17*%
X71791760Y-59949601D02*
X72099042Y-59949601D01*
X71791760Y-60709601D02*
X72099042Y-60709601D01*
%TO.C,R16*%
X77611760Y-53979601D02*
X77919042Y-53979601D01*
X77611760Y-54739601D02*
X77919042Y-54739601D01*
%TO.C,R15*%
X71791760Y-61939601D02*
X72099042Y-61939601D01*
X71791760Y-62699601D02*
X72099042Y-62699601D01*
%TO.C,R14*%
X80521760Y-53979601D02*
X80829042Y-53979601D01*
X80521760Y-54739601D02*
X80829042Y-54739601D01*
%TO.C,R13*%
X77611760Y-55969601D02*
X77919042Y-55969601D01*
X77611760Y-56729601D02*
X77919042Y-56729601D01*
%TO.C,R12*%
X71791760Y-57959601D02*
X72099042Y-57959601D01*
X71791760Y-58719601D02*
X72099042Y-58719601D01*
%TO.C,R11*%
X74701760Y-59949601D02*
X75009042Y-59949601D01*
X74701760Y-60709601D02*
X75009042Y-60709601D01*
%TO.C,R10*%
X74701760Y-55969601D02*
X75009042Y-55969601D01*
X74701760Y-56729601D02*
X75009042Y-56729601D01*
%TO.C,R9*%
X74701760Y-53979601D02*
X75009042Y-53979601D01*
X74701760Y-54739601D02*
X75009042Y-54739601D01*
%TO.C,R8*%
X57391760Y-72869601D02*
X57699042Y-72869601D01*
X57391760Y-73629601D02*
X57699042Y-73629601D01*
%TO.C,R7*%
X71791760Y-55969601D02*
X72099042Y-55969601D01*
X71791760Y-56729601D02*
X72099042Y-56729601D01*
%TO.C,R6*%
X57391760Y-70879601D02*
X57699042Y-70879601D01*
X57391760Y-71639601D02*
X57699042Y-71639601D01*
%TO.C,J9*%
X64285401Y-62099601D02*
X69485401Y-62099601D01*
X64285401Y-56959601D02*
X64285401Y-62099601D01*
X69485401Y-54359601D02*
X69485401Y-62099601D01*
X64285401Y-56959601D02*
X66885401Y-56959601D01*
X66885401Y-56959601D02*
X66885401Y-54359601D01*
X66885401Y-54359601D02*
X69485401Y-54359601D01*
X64285401Y-55689601D02*
X64285401Y-54359601D01*
X64285401Y-54359601D02*
X65615401Y-54359601D01*
%TO.C,J8*%
X64285401Y-69259601D02*
X69485401Y-69259601D01*
X64285401Y-66659601D02*
X64285401Y-69259601D01*
X69485401Y-64059601D02*
X69485401Y-69259601D01*
X64285401Y-66659601D02*
X66885401Y-66659601D01*
X66885401Y-66659601D02*
X66885401Y-64059601D01*
X66885401Y-64059601D02*
X69485401Y-64059601D01*
X64285401Y-65389601D02*
X64285401Y-64059601D01*
X64285401Y-64059601D02*
X65615401Y-64059601D01*
%TO.C,J7*%
X57085401Y-64639601D02*
X62285401Y-64639601D01*
X57085401Y-56959601D02*
X57085401Y-64639601D01*
X62285401Y-54359601D02*
X62285401Y-64639601D01*
X57085401Y-56959601D02*
X59685401Y-56959601D01*
X59685401Y-56959601D02*
X59685401Y-54359601D01*
X59685401Y-54359601D02*
X62285401Y-54359601D01*
X57085401Y-55689601D02*
X57085401Y-54359601D01*
X57085401Y-54359601D02*
X58415401Y-54359601D01*
%TO.C,J6*%
X49885401Y-67179601D02*
X55085401Y-67179601D01*
X49885401Y-56959601D02*
X49885401Y-67179601D01*
X55085401Y-54359601D02*
X55085401Y-67179601D01*
X49885401Y-56959601D02*
X52485401Y-56959601D01*
X52485401Y-56959601D02*
X52485401Y-54359601D01*
X52485401Y-54359601D02*
X55085401Y-54359601D01*
X49885401Y-55689601D02*
X49885401Y-54359601D01*
X49885401Y-54359601D02*
X51215401Y-54359601D01*
%TO.C,J5*%
X57085401Y-69269601D02*
X62285401Y-69269601D01*
X57085401Y-69209601D02*
X57085401Y-69269601D01*
X62285401Y-66609601D02*
X62285401Y-69269601D01*
X57085401Y-69209601D02*
X59685401Y-69209601D01*
X59685401Y-69209601D02*
X59685401Y-66609601D01*
X59685401Y-66609601D02*
X62285401Y-66609601D01*
X57085401Y-67939601D02*
X57085401Y-66609601D01*
X57085401Y-66609601D02*
X58415401Y-66609601D01*
%TO.C,J4*%
X49885401Y-71819601D02*
X55085401Y-71819601D01*
X49885401Y-71759601D02*
X49885401Y-71819601D01*
X55085401Y-69159601D02*
X55085401Y-71819601D01*
X49885401Y-71759601D02*
X52485401Y-71759601D01*
X52485401Y-71759601D02*
X52485401Y-69159601D01*
X52485401Y-69159601D02*
X55085401Y-69159601D01*
X49885401Y-70489601D02*
X49885401Y-69159601D01*
X49885401Y-69159601D02*
X51215401Y-69159601D01*
%TO.C,J3*%
X42685401Y-74799601D02*
X47885401Y-74799601D01*
X42685401Y-56959601D02*
X42685401Y-74799601D01*
X47885401Y-54359601D02*
X47885401Y-74799601D01*
X42685401Y-56959601D02*
X45285401Y-56959601D01*
X45285401Y-56959601D02*
X45285401Y-54359601D01*
X45285401Y-54359601D02*
X47885401Y-54359601D01*
X42685401Y-55689601D02*
X42685401Y-54359601D01*
X42685401Y-54359601D02*
X44015401Y-54359601D01*
%TO.C,C15*%
X126257164Y-130450000D02*
X126472836Y-130450000D01*
X126257164Y-131170000D02*
X126472836Y-131170000D01*
%TO.C,C6*%
X94509000Y-133048836D02*
X94509000Y-132833164D01*
X95229000Y-133048836D02*
X95229000Y-132833164D01*
%TO.C,C5*%
X77715565Y-119214601D02*
X77931237Y-119214601D01*
X77715565Y-119934601D02*
X77931237Y-119934601D01*
%TO.C,C4*%
X104216810Y-146736307D02*
X104064307Y-146888810D01*
X103707693Y-146227190D02*
X103555190Y-146379693D01*
%TO.C,C3*%
X112501000Y-146704164D02*
X112501000Y-146919836D01*
X111781000Y-146704164D02*
X111781000Y-146919836D01*
%TO.C,C2*%
X51004149Y-73579601D02*
X52426653Y-73579601D01*
X51004149Y-75399601D02*
X52426653Y-75399601D01*
%TO.C,J2*%
X190890000Y-121460000D02*
X192490000Y-121460000D01*
X192490000Y-121460000D02*
X192490000Y-104860000D01*
X192490000Y-104860000D02*
X190890000Y-104860000D01*
X176490000Y-120160000D02*
X176490000Y-121460000D01*
X176490000Y-121460000D02*
X177890000Y-121460000D01*
X176490000Y-106160000D02*
X176490000Y-104860000D01*
X176490000Y-104860000D02*
X177890000Y-104860000D01*
%TO.C,Y1*%
X128269000Y-121698000D02*
X124969000Y-121698000D01*
X124969000Y-121698000D02*
X124969000Y-125698000D01*
%TO.C,U3*%
X83030000Y-140645000D02*
X83030000Y-135585000D01*
X83030000Y-135585000D02*
X42270000Y-135585000D01*
X42270000Y-135585000D02*
X42270000Y-147705000D01*
X42270000Y-147705000D02*
X83030000Y-147705000D01*
X83030000Y-147705000D02*
X83030000Y-142645000D01*
X83090000Y-132585000D02*
X42210000Y-132585000D01*
X42210000Y-132585000D02*
X42210000Y-150705000D01*
X42210000Y-150705000D02*
X83090000Y-150705000D01*
X83090000Y-150705000D02*
X83090000Y-132585000D01*
X83030000Y-142645000D02*
G75*
G02*
X83030000Y-140645000I0J1000000D01*
G01*
%TO.C,U2*%
X104795000Y-118237000D02*
X104795000Y-116287000D01*
X104795000Y-118237000D02*
X104795000Y-120187000D01*
X99675000Y-118237000D02*
X99675000Y-116287000D01*
X99675000Y-118237000D02*
X99675000Y-121687000D01*
%TO.C,U1*%
X100140000Y-126990000D02*
X100365000Y-126990000D01*
X122160000Y-126990000D02*
X121350000Y-126990000D01*
X101265000Y-143010000D02*
X101265000Y-144900000D01*
X122160000Y-127500000D02*
X122160000Y-126990000D01*
X122160000Y-143010000D02*
X121350000Y-143010000D01*
X122160000Y-142535000D02*
X122160000Y-143010000D01*
X100140000Y-142535000D02*
X100140000Y-143010000D01*
X100140000Y-143010000D02*
X101265000Y-143010000D01*
X100140000Y-127465000D02*
X100140000Y-126990000D01*
D12*
%TO.C,T1*%
X161225000Y-107959000D02*
X161225000Y-108234000D01*
X168975000Y-107959000D02*
X168975000Y-108314000D01*
X168975000Y-118609000D02*
X168975000Y-118254000D01*
X161225000Y-118609000D02*
X161225000Y-118254000D01*
X161225000Y-107959000D02*
X168975000Y-107959000D01*
X161225000Y-118609000D02*
X168975000Y-118609000D01*
X161225000Y-108234000D02*
X159700000Y-108234000D01*
D11*
%TO.C,R5*%
X177138359Y-128269000D02*
X177445641Y-128269000D01*
X177138359Y-127509000D02*
X177445641Y-127509000D01*
%TO.C,R4*%
X177138359Y-130430000D02*
X177445641Y-130430000D01*
X177138359Y-131190000D02*
X177445641Y-131190000D01*
%TO.C,R3*%
X158241000Y-116305359D02*
X158241000Y-116612641D01*
X157481000Y-116305359D02*
X157481000Y-116612641D01*
%TO.C,R2*%
X122394940Y-125853341D02*
X122177659Y-125636060D01*
X122932341Y-125315940D02*
X122715060Y-125098659D01*
%TO.C,R1*%
X122960359Y-101010000D02*
X123267641Y-101010000D01*
X122960359Y-101770000D02*
X123267641Y-101770000D01*
%TO.C,C14*%
X174138000Y-108000748D02*
X174138000Y-109423252D01*
X172318000Y-108000748D02*
X172318000Y-109423252D01*
%TO.C,C13*%
X174138000Y-117144748D02*
X174138000Y-118567252D01*
X172318000Y-117144748D02*
X172318000Y-118567252D01*
%TO.C,C12*%
X108731164Y-122449000D02*
X108946836Y-122449000D01*
X108731164Y-123169000D02*
X108946836Y-123169000D01*
%TO.C,C11*%
X163470000Y-122478748D02*
X163470000Y-123901252D01*
X161650000Y-122478748D02*
X161650000Y-123901252D01*
%TO.C,C10*%
X163470000Y-102666748D02*
X163470000Y-104089252D01*
X161650000Y-102666748D02*
X161650000Y-104089252D01*
%TO.C,C9*%
X123084000Y-123650836D02*
X123084000Y-123435164D01*
X123804000Y-123650836D02*
X123804000Y-123435164D01*
%TO.C,C8*%
X130027000Y-123463164D02*
X130027000Y-123678836D01*
X129307000Y-123463164D02*
X129307000Y-123678836D01*
%TO.C,C7*%
X118256164Y-122449000D02*
X118471836Y-122449000D01*
X118256164Y-123169000D02*
X118471836Y-123169000D01*
%TO.C,C1*%
X103397164Y-112289000D02*
X103612836Y-112289000D01*
X103397164Y-113009000D02*
X103612836Y-113009000D01*
%TO.C,FB1*%
D12*
X182199571Y-126690333D02*
X182199571Y-127023666D01*
X182723380Y-127023666D02*
X181723380Y-127023666D01*
X181723380Y-126547476D01*
X182199571Y-125833190D02*
X182247190Y-125690333D01*
X182294809Y-125642714D01*
X182390047Y-125595095D01*
X182532904Y-125595095D01*
X182628142Y-125642714D01*
X182675761Y-125690333D01*
X182723380Y-125785571D01*
X182723380Y-126166523D01*
X181723380Y-126166523D01*
X181723380Y-125833190D01*
X181771000Y-125737952D01*
X181818619Y-125690333D01*
X181913857Y-125642714D01*
X182009095Y-125642714D01*
X182104333Y-125690333D01*
X182151952Y-125737952D01*
X182199571Y-125833190D01*
X182199571Y-126166523D01*
X182723380Y-124642714D02*
X182723380Y-125214142D01*
X182723380Y-124928428D02*
X181723380Y-124928428D01*
X181866238Y-125023666D01*
X181961476Y-125118904D01*
X182009095Y-125214142D01*
%TO.C,H4*%
X187389095Y-91352380D02*
X187389095Y-90352380D01*
X187389095Y-90828571D02*
X187960523Y-90828571D01*
X187960523Y-91352380D02*
X187960523Y-90352380D01*
X188865285Y-90685714D02*
X188865285Y-91352380D01*
X188627190Y-90304761D02*
X188389095Y-91019047D01*
X189008142Y-91019047D01*
%TO.C,H3*%
X187389095Y-147867380D02*
X187389095Y-146867380D01*
X187389095Y-147343571D02*
X187960523Y-147343571D01*
X187960523Y-147867380D02*
X187960523Y-146867380D01*
X188341476Y-146867380D02*
X188960523Y-146867380D01*
X188627190Y-147248333D01*
X188770047Y-147248333D01*
X188865285Y-147295952D01*
X188912904Y-147343571D01*
X188960523Y-147438809D01*
X188960523Y-147676904D01*
X188912904Y-147772142D01*
X188865285Y-147819761D01*
X188770047Y-147867380D01*
X188484333Y-147867380D01*
X188389095Y-147819761D01*
X188341476Y-147772142D01*
%TO.C,R22*%
X71302543Y-53641981D02*
X70969210Y-53165791D01*
X70731115Y-53641981D02*
X70731115Y-52641981D01*
X71112067Y-52641981D01*
X71207305Y-52689601D01*
X71254924Y-52737220D01*
X71302543Y-52832458D01*
X71302543Y-52975315D01*
X71254924Y-53070553D01*
X71207305Y-53118172D01*
X71112067Y-53165791D01*
X70731115Y-53165791D01*
X71683496Y-52737220D02*
X71731115Y-52689601D01*
X71826353Y-52641981D01*
X72064448Y-52641981D01*
X72159686Y-52689601D01*
X72207305Y-52737220D01*
X72254924Y-52832458D01*
X72254924Y-52927696D01*
X72207305Y-53070553D01*
X71635877Y-53641981D01*
X72254924Y-53641981D01*
X72635877Y-52737220D02*
X72683496Y-52689601D01*
X72778734Y-52641981D01*
X73016829Y-52641981D01*
X73112067Y-52689601D01*
X73159686Y-52737220D01*
X73207305Y-52832458D01*
X73207305Y-52927696D01*
X73159686Y-53070553D01*
X72588258Y-53641981D01*
X73207305Y-53641981D01*
%TO.C,R21*%
X59812543Y-70541981D02*
X59479210Y-70065791D01*
X59241115Y-70541981D02*
X59241115Y-69541981D01*
X59622067Y-69541981D01*
X59717305Y-69589601D01*
X59764924Y-69637220D01*
X59812543Y-69732458D01*
X59812543Y-69875315D01*
X59764924Y-69970553D01*
X59717305Y-70018172D01*
X59622067Y-70065791D01*
X59241115Y-70065791D01*
X60193496Y-69637220D02*
X60241115Y-69589601D01*
X60336353Y-69541981D01*
X60574448Y-69541981D01*
X60669686Y-69589601D01*
X60717305Y-69637220D01*
X60764924Y-69732458D01*
X60764924Y-69827696D01*
X60717305Y-69970553D01*
X60145877Y-70541981D01*
X60764924Y-70541981D01*
X61717305Y-70541981D02*
X61145877Y-70541981D01*
X61431591Y-70541981D02*
X61431591Y-69541981D01*
X61336353Y-69684839D01*
X61241115Y-69780077D01*
X61145877Y-69827696D01*
%TO.C,R20*%
X59812543Y-72531981D02*
X59479210Y-72055791D01*
X59241115Y-72531981D02*
X59241115Y-71531981D01*
X59622067Y-71531981D01*
X59717305Y-71579601D01*
X59764924Y-71627220D01*
X59812543Y-71722458D01*
X59812543Y-71865315D01*
X59764924Y-71960553D01*
X59717305Y-72008172D01*
X59622067Y-72055791D01*
X59241115Y-72055791D01*
X60193496Y-71627220D02*
X60241115Y-71579601D01*
X60336353Y-71531981D01*
X60574448Y-71531981D01*
X60669686Y-71579601D01*
X60717305Y-71627220D01*
X60764924Y-71722458D01*
X60764924Y-71817696D01*
X60717305Y-71960553D01*
X60145877Y-72531981D01*
X60764924Y-72531981D01*
X61383972Y-71531981D02*
X61479210Y-71531981D01*
X61574448Y-71579601D01*
X61622067Y-71627220D01*
X61669686Y-71722458D01*
X61717305Y-71912934D01*
X61717305Y-72151029D01*
X61669686Y-72341505D01*
X61622067Y-72436743D01*
X61574448Y-72484362D01*
X61479210Y-72531981D01*
X61383972Y-72531981D01*
X61288734Y-72484362D01*
X61241115Y-72436743D01*
X61193496Y-72341505D01*
X61145877Y-72151029D01*
X61145877Y-71912934D01*
X61193496Y-71722458D01*
X61241115Y-71627220D01*
X61288734Y-71579601D01*
X61383972Y-71531981D01*
%TO.C,R19*%
X55352543Y-74521981D02*
X55019210Y-74045791D01*
X54781115Y-74521981D02*
X54781115Y-73521981D01*
X55162067Y-73521981D01*
X55257305Y-73569601D01*
X55304924Y-73617220D01*
X55352543Y-73712458D01*
X55352543Y-73855315D01*
X55304924Y-73950553D01*
X55257305Y-73998172D01*
X55162067Y-74045791D01*
X54781115Y-74045791D01*
X56304924Y-74521981D02*
X55733496Y-74521981D01*
X56019210Y-74521981D02*
X56019210Y-73521981D01*
X55923972Y-73664839D01*
X55828734Y-73760077D01*
X55733496Y-73807696D01*
X56781115Y-74521981D02*
X56971591Y-74521981D01*
X57066829Y-74474362D01*
X57114448Y-74426743D01*
X57209686Y-74283886D01*
X57257305Y-74093410D01*
X57257305Y-73712458D01*
X57209686Y-73617220D01*
X57162067Y-73569601D01*
X57066829Y-73521981D01*
X56876353Y-73521981D01*
X56781115Y-73569601D01*
X56733496Y-73617220D01*
X56685877Y-73712458D01*
X56685877Y-73950553D01*
X56733496Y-74045791D01*
X56781115Y-74093410D01*
X56876353Y-74141029D01*
X57066829Y-74141029D01*
X57162067Y-74093410D01*
X57209686Y-74045791D01*
X57257305Y-73950553D01*
%TO.C,R18*%
X74212543Y-57621981D02*
X73879210Y-57145791D01*
X73641115Y-57621981D02*
X73641115Y-56621981D01*
X74022067Y-56621981D01*
X74117305Y-56669601D01*
X74164924Y-56717220D01*
X74212543Y-56812458D01*
X74212543Y-56955315D01*
X74164924Y-57050553D01*
X74117305Y-57098172D01*
X74022067Y-57145791D01*
X73641115Y-57145791D01*
X75164924Y-57621981D02*
X74593496Y-57621981D01*
X74879210Y-57621981D02*
X74879210Y-56621981D01*
X74783972Y-56764839D01*
X74688734Y-56860077D01*
X74593496Y-56907696D01*
X75736353Y-57050553D02*
X75641115Y-57002934D01*
X75593496Y-56955315D01*
X75545877Y-56860077D01*
X75545877Y-56812458D01*
X75593496Y-56717220D01*
X75641115Y-56669601D01*
X75736353Y-56621981D01*
X75926829Y-56621981D01*
X76022067Y-56669601D01*
X76069686Y-56717220D01*
X76117305Y-56812458D01*
X76117305Y-56860077D01*
X76069686Y-56955315D01*
X76022067Y-57002934D01*
X75926829Y-57050553D01*
X75736353Y-57050553D01*
X75641115Y-57098172D01*
X75593496Y-57145791D01*
X75545877Y-57241029D01*
X75545877Y-57431505D01*
X75593496Y-57526743D01*
X75641115Y-57574362D01*
X75736353Y-57621981D01*
X75926829Y-57621981D01*
X76022067Y-57574362D01*
X76069686Y-57526743D01*
X76117305Y-57431505D01*
X76117305Y-57241029D01*
X76069686Y-57145791D01*
X76022067Y-57098172D01*
X75926829Y-57050553D01*
%TO.C,R17*%
X71302543Y-59611981D02*
X70969210Y-59135791D01*
X70731115Y-59611981D02*
X70731115Y-58611981D01*
X71112067Y-58611981D01*
X71207305Y-58659601D01*
X71254924Y-58707220D01*
X71302543Y-58802458D01*
X71302543Y-58945315D01*
X71254924Y-59040553D01*
X71207305Y-59088172D01*
X71112067Y-59135791D01*
X70731115Y-59135791D01*
X72254924Y-59611981D02*
X71683496Y-59611981D01*
X71969210Y-59611981D02*
X71969210Y-58611981D01*
X71873972Y-58754839D01*
X71778734Y-58850077D01*
X71683496Y-58897696D01*
X72588258Y-58611981D02*
X73254924Y-58611981D01*
X72826353Y-59611981D01*
%TO.C,R16*%
X77122543Y-53641981D02*
X76789210Y-53165791D01*
X76551115Y-53641981D02*
X76551115Y-52641981D01*
X76932067Y-52641981D01*
X77027305Y-52689601D01*
X77074924Y-52737220D01*
X77122543Y-52832458D01*
X77122543Y-52975315D01*
X77074924Y-53070553D01*
X77027305Y-53118172D01*
X76932067Y-53165791D01*
X76551115Y-53165791D01*
X78074924Y-53641981D02*
X77503496Y-53641981D01*
X77789210Y-53641981D02*
X77789210Y-52641981D01*
X77693972Y-52784839D01*
X77598734Y-52880077D01*
X77503496Y-52927696D01*
X78932067Y-52641981D02*
X78741591Y-52641981D01*
X78646353Y-52689601D01*
X78598734Y-52737220D01*
X78503496Y-52880077D01*
X78455877Y-53070553D01*
X78455877Y-53451505D01*
X78503496Y-53546743D01*
X78551115Y-53594362D01*
X78646353Y-53641981D01*
X78836829Y-53641981D01*
X78932067Y-53594362D01*
X78979686Y-53546743D01*
X79027305Y-53451505D01*
X79027305Y-53213410D01*
X78979686Y-53118172D01*
X78932067Y-53070553D01*
X78836829Y-53022934D01*
X78646353Y-53022934D01*
X78551115Y-53070553D01*
X78503496Y-53118172D01*
X78455877Y-53213410D01*
%TO.C,R15*%
X71302543Y-61601981D02*
X70969210Y-61125791D01*
X70731115Y-61601981D02*
X70731115Y-60601981D01*
X71112067Y-60601981D01*
X71207305Y-60649601D01*
X71254924Y-60697220D01*
X71302543Y-60792458D01*
X71302543Y-60935315D01*
X71254924Y-61030553D01*
X71207305Y-61078172D01*
X71112067Y-61125791D01*
X70731115Y-61125791D01*
X72254924Y-61601981D02*
X71683496Y-61601981D01*
X71969210Y-61601981D02*
X71969210Y-60601981D01*
X71873972Y-60744839D01*
X71778734Y-60840077D01*
X71683496Y-60887696D01*
X73159686Y-60601981D02*
X72683496Y-60601981D01*
X72635877Y-61078172D01*
X72683496Y-61030553D01*
X72778734Y-60982934D01*
X73016829Y-60982934D01*
X73112067Y-61030553D01*
X73159686Y-61078172D01*
X73207305Y-61173410D01*
X73207305Y-61411505D01*
X73159686Y-61506743D01*
X73112067Y-61554362D01*
X73016829Y-61601981D01*
X72778734Y-61601981D01*
X72683496Y-61554362D01*
X72635877Y-61506743D01*
%TO.C,R14*%
X80032543Y-53641981D02*
X79699210Y-53165791D01*
X79461115Y-53641981D02*
X79461115Y-52641981D01*
X79842067Y-52641981D01*
X79937305Y-52689601D01*
X79984924Y-52737220D01*
X80032543Y-52832458D01*
X80032543Y-52975315D01*
X79984924Y-53070553D01*
X79937305Y-53118172D01*
X79842067Y-53165791D01*
X79461115Y-53165791D01*
X80984924Y-53641981D02*
X80413496Y-53641981D01*
X80699210Y-53641981D02*
X80699210Y-52641981D01*
X80603972Y-52784839D01*
X80508734Y-52880077D01*
X80413496Y-52927696D01*
X81842067Y-52975315D02*
X81842067Y-53641981D01*
X81603972Y-52594362D02*
X81365877Y-53308648D01*
X81984924Y-53308648D01*
%TO.C,R13*%
X77122543Y-55631981D02*
X76789210Y-55155791D01*
X76551115Y-55631981D02*
X76551115Y-54631981D01*
X76932067Y-54631981D01*
X77027305Y-54679601D01*
X77074924Y-54727220D01*
X77122543Y-54822458D01*
X77122543Y-54965315D01*
X77074924Y-55060553D01*
X77027305Y-55108172D01*
X76932067Y-55155791D01*
X76551115Y-55155791D01*
X78074924Y-55631981D02*
X77503496Y-55631981D01*
X77789210Y-55631981D02*
X77789210Y-54631981D01*
X77693972Y-54774839D01*
X77598734Y-54870077D01*
X77503496Y-54917696D01*
X78408258Y-54631981D02*
X79027305Y-54631981D01*
X78693972Y-55012934D01*
X78836829Y-55012934D01*
X78932067Y-55060553D01*
X78979686Y-55108172D01*
X79027305Y-55203410D01*
X79027305Y-55441505D01*
X78979686Y-55536743D01*
X78932067Y-55584362D01*
X78836829Y-55631981D01*
X78551115Y-55631981D01*
X78455877Y-55584362D01*
X78408258Y-55536743D01*
%TO.C,R12*%
X71302543Y-57621981D02*
X70969210Y-57145791D01*
X70731115Y-57621981D02*
X70731115Y-56621981D01*
X71112067Y-56621981D01*
X71207305Y-56669601D01*
X71254924Y-56717220D01*
X71302543Y-56812458D01*
X71302543Y-56955315D01*
X71254924Y-57050553D01*
X71207305Y-57098172D01*
X71112067Y-57145791D01*
X70731115Y-57145791D01*
X72254924Y-57621981D02*
X71683496Y-57621981D01*
X71969210Y-57621981D02*
X71969210Y-56621981D01*
X71873972Y-56764839D01*
X71778734Y-56860077D01*
X71683496Y-56907696D01*
X72635877Y-56717220D02*
X72683496Y-56669601D01*
X72778734Y-56621981D01*
X73016829Y-56621981D01*
X73112067Y-56669601D01*
X73159686Y-56717220D01*
X73207305Y-56812458D01*
X73207305Y-56907696D01*
X73159686Y-57050553D01*
X72588258Y-57621981D01*
X73207305Y-57621981D01*
%TO.C,R11*%
X74212543Y-59611981D02*
X73879210Y-59135791D01*
X73641115Y-59611981D02*
X73641115Y-58611981D01*
X74022067Y-58611981D01*
X74117305Y-58659601D01*
X74164924Y-58707220D01*
X74212543Y-58802458D01*
X74212543Y-58945315D01*
X74164924Y-59040553D01*
X74117305Y-59088172D01*
X74022067Y-59135791D01*
X73641115Y-59135791D01*
X75164924Y-59611981D02*
X74593496Y-59611981D01*
X74879210Y-59611981D02*
X74879210Y-58611981D01*
X74783972Y-58754839D01*
X74688734Y-58850077D01*
X74593496Y-58897696D01*
X76117305Y-59611981D02*
X75545877Y-59611981D01*
X75831591Y-59611981D02*
X75831591Y-58611981D01*
X75736353Y-58754839D01*
X75641115Y-58850077D01*
X75545877Y-58897696D01*
%TO.C,R10*%
X74212543Y-55631981D02*
X73879210Y-55155791D01*
X73641115Y-55631981D02*
X73641115Y-54631981D01*
X74022067Y-54631981D01*
X74117305Y-54679601D01*
X74164924Y-54727220D01*
X74212543Y-54822458D01*
X74212543Y-54965315D01*
X74164924Y-55060553D01*
X74117305Y-55108172D01*
X74022067Y-55155791D01*
X73641115Y-55155791D01*
X75164924Y-55631981D02*
X74593496Y-55631981D01*
X74879210Y-55631981D02*
X74879210Y-54631981D01*
X74783972Y-54774839D01*
X74688734Y-54870077D01*
X74593496Y-54917696D01*
X75783972Y-54631981D02*
X75879210Y-54631981D01*
X75974448Y-54679601D01*
X76022067Y-54727220D01*
X76069686Y-54822458D01*
X76117305Y-55012934D01*
X76117305Y-55251029D01*
X76069686Y-55441505D01*
X76022067Y-55536743D01*
X75974448Y-55584362D01*
X75879210Y-55631981D01*
X75783972Y-55631981D01*
X75688734Y-55584362D01*
X75641115Y-55536743D01*
X75593496Y-55441505D01*
X75545877Y-55251029D01*
X75545877Y-55012934D01*
X75593496Y-54822458D01*
X75641115Y-54727220D01*
X75688734Y-54679601D01*
X75783972Y-54631981D01*
%TO.C,R9*%
X74688734Y-53641981D02*
X74355401Y-53165791D01*
X74117305Y-53641981D02*
X74117305Y-52641981D01*
X74498258Y-52641981D01*
X74593496Y-52689601D01*
X74641115Y-52737220D01*
X74688734Y-52832458D01*
X74688734Y-52975315D01*
X74641115Y-53070553D01*
X74593496Y-53118172D01*
X74498258Y-53165791D01*
X74117305Y-53165791D01*
X75164924Y-53641981D02*
X75355401Y-53641981D01*
X75450639Y-53594362D01*
X75498258Y-53546743D01*
X75593496Y-53403886D01*
X75641115Y-53213410D01*
X75641115Y-52832458D01*
X75593496Y-52737220D01*
X75545877Y-52689601D01*
X75450639Y-52641981D01*
X75260162Y-52641981D01*
X75164924Y-52689601D01*
X75117305Y-52737220D01*
X75069686Y-52832458D01*
X75069686Y-53070553D01*
X75117305Y-53165791D01*
X75164924Y-53213410D01*
X75260162Y-53261029D01*
X75450639Y-53261029D01*
X75545877Y-53213410D01*
X75593496Y-53165791D01*
X75641115Y-53070553D01*
%TO.C,R8*%
X57378734Y-72531981D02*
X57045401Y-72055791D01*
X56807305Y-72531981D02*
X56807305Y-71531981D01*
X57188258Y-71531981D01*
X57283496Y-71579601D01*
X57331115Y-71627220D01*
X57378734Y-71722458D01*
X57378734Y-71865315D01*
X57331115Y-71960553D01*
X57283496Y-72008172D01*
X57188258Y-72055791D01*
X56807305Y-72055791D01*
X57950162Y-71960553D02*
X57854924Y-71912934D01*
X57807305Y-71865315D01*
X57759686Y-71770077D01*
X57759686Y-71722458D01*
X57807305Y-71627220D01*
X57854924Y-71579601D01*
X57950162Y-71531981D01*
X58140639Y-71531981D01*
X58235877Y-71579601D01*
X58283496Y-71627220D01*
X58331115Y-71722458D01*
X58331115Y-71770077D01*
X58283496Y-71865315D01*
X58235877Y-71912934D01*
X58140639Y-71960553D01*
X57950162Y-71960553D01*
X57854924Y-72008172D01*
X57807305Y-72055791D01*
X57759686Y-72151029D01*
X57759686Y-72341505D01*
X57807305Y-72436743D01*
X57854924Y-72484362D01*
X57950162Y-72531981D01*
X58140639Y-72531981D01*
X58235877Y-72484362D01*
X58283496Y-72436743D01*
X58331115Y-72341505D01*
X58331115Y-72151029D01*
X58283496Y-72055791D01*
X58235877Y-72008172D01*
X58140639Y-71960553D01*
%TO.C,R7*%
X71778734Y-55631981D02*
X71445401Y-55155791D01*
X71207305Y-55631981D02*
X71207305Y-54631981D01*
X71588258Y-54631981D01*
X71683496Y-54679601D01*
X71731115Y-54727220D01*
X71778734Y-54822458D01*
X71778734Y-54965315D01*
X71731115Y-55060553D01*
X71683496Y-55108172D01*
X71588258Y-55155791D01*
X71207305Y-55155791D01*
X72112067Y-54631981D02*
X72778734Y-54631981D01*
X72350162Y-55631981D01*
%TO.C,R6*%
X57378734Y-70541981D02*
X57045401Y-70065791D01*
X56807305Y-70541981D02*
X56807305Y-69541981D01*
X57188258Y-69541981D01*
X57283496Y-69589601D01*
X57331115Y-69637220D01*
X57378734Y-69732458D01*
X57378734Y-69875315D01*
X57331115Y-69970553D01*
X57283496Y-70018172D01*
X57188258Y-70065791D01*
X56807305Y-70065791D01*
X58235877Y-69541981D02*
X58045401Y-69541981D01*
X57950162Y-69589601D01*
X57902543Y-69637220D01*
X57807305Y-69780077D01*
X57759686Y-69970553D01*
X57759686Y-70351505D01*
X57807305Y-70446743D01*
X57854924Y-70494362D01*
X57950162Y-70541981D01*
X58140639Y-70541981D01*
X58235877Y-70494362D01*
X58283496Y-70446743D01*
X58331115Y-70351505D01*
X58331115Y-70113410D01*
X58283496Y-70018172D01*
X58235877Y-69970553D01*
X58140639Y-69922934D01*
X57950162Y-69922934D01*
X57854924Y-69970553D01*
X57807305Y-70018172D01*
X57759686Y-70113410D01*
%TO.C,J9*%
X66552067Y-52811981D02*
X66552067Y-53526267D01*
X66504448Y-53669124D01*
X66409210Y-53764362D01*
X66266353Y-53811981D01*
X66171115Y-53811981D01*
X67075877Y-53811981D02*
X67266353Y-53811981D01*
X67361591Y-53764362D01*
X67409210Y-53716743D01*
X67504448Y-53573886D01*
X67552067Y-53383410D01*
X67552067Y-53002458D01*
X67504448Y-52907220D01*
X67456829Y-52859601D01*
X67361591Y-52811981D01*
X67171115Y-52811981D01*
X67075877Y-52859601D01*
X67028258Y-52907220D01*
X66980639Y-53002458D01*
X66980639Y-53240553D01*
X67028258Y-53335791D01*
X67075877Y-53383410D01*
X67171115Y-53431029D01*
X67361591Y-53431029D01*
X67456829Y-53383410D01*
X67504448Y-53335791D01*
X67552067Y-53240553D01*
%TO.C,J8*%
X66552067Y-62511981D02*
X66552067Y-63226267D01*
X66504448Y-63369124D01*
X66409210Y-63464362D01*
X66266353Y-63511981D01*
X66171115Y-63511981D01*
X67171115Y-62940553D02*
X67075877Y-62892934D01*
X67028258Y-62845315D01*
X66980639Y-62750077D01*
X66980639Y-62702458D01*
X67028258Y-62607220D01*
X67075877Y-62559601D01*
X67171115Y-62511981D01*
X67361591Y-62511981D01*
X67456829Y-62559601D01*
X67504448Y-62607220D01*
X67552067Y-62702458D01*
X67552067Y-62750077D01*
X67504448Y-62845315D01*
X67456829Y-62892934D01*
X67361591Y-62940553D01*
X67171115Y-62940553D01*
X67075877Y-62988172D01*
X67028258Y-63035791D01*
X66980639Y-63131029D01*
X66980639Y-63321505D01*
X67028258Y-63416743D01*
X67075877Y-63464362D01*
X67171115Y-63511981D01*
X67361591Y-63511981D01*
X67456829Y-63464362D01*
X67504448Y-63416743D01*
X67552067Y-63321505D01*
X67552067Y-63131029D01*
X67504448Y-63035791D01*
X67456829Y-62988172D01*
X67361591Y-62940553D01*
%TO.C,J7*%
X59352067Y-52811981D02*
X59352067Y-53526267D01*
X59304448Y-53669124D01*
X59209210Y-53764362D01*
X59066353Y-53811981D01*
X58971115Y-53811981D01*
X59733020Y-52811981D02*
X60399686Y-52811981D01*
X59971115Y-53811981D01*
%TO.C,J6*%
X52152067Y-52811981D02*
X52152067Y-53526267D01*
X52104448Y-53669124D01*
X52009210Y-53764362D01*
X51866353Y-53811981D01*
X51771115Y-53811981D01*
X53056829Y-52811981D02*
X52866353Y-52811981D01*
X52771115Y-52859601D01*
X52723496Y-52907220D01*
X52628258Y-53050077D01*
X52580639Y-53240553D01*
X52580639Y-53621505D01*
X52628258Y-53716743D01*
X52675877Y-53764362D01*
X52771115Y-53811981D01*
X52961591Y-53811981D01*
X53056829Y-53764362D01*
X53104448Y-53716743D01*
X53152067Y-53621505D01*
X53152067Y-53383410D01*
X53104448Y-53288172D01*
X53056829Y-53240553D01*
X52961591Y-53192934D01*
X52771115Y-53192934D01*
X52675877Y-53240553D01*
X52628258Y-53288172D01*
X52580639Y-53383410D01*
%TO.C,J5*%
X59352067Y-65061981D02*
X59352067Y-65776267D01*
X59304448Y-65919124D01*
X59209210Y-66014362D01*
X59066353Y-66061981D01*
X58971115Y-66061981D01*
X60304448Y-65061981D02*
X59828258Y-65061981D01*
X59780639Y-65538172D01*
X59828258Y-65490553D01*
X59923496Y-65442934D01*
X60161591Y-65442934D01*
X60256829Y-65490553D01*
X60304448Y-65538172D01*
X60352067Y-65633410D01*
X60352067Y-65871505D01*
X60304448Y-65966743D01*
X60256829Y-66014362D01*
X60161591Y-66061981D01*
X59923496Y-66061981D01*
X59828258Y-66014362D01*
X59780639Y-65966743D01*
%TO.C,J4*%
X52152067Y-67611981D02*
X52152067Y-68326267D01*
X52104448Y-68469124D01*
X52009210Y-68564362D01*
X51866353Y-68611981D01*
X51771115Y-68611981D01*
X53056829Y-67945315D02*
X53056829Y-68611981D01*
X52818734Y-67564362D02*
X52580639Y-68278648D01*
X53199686Y-68278648D01*
%TO.C,J3*%
X44952067Y-52811981D02*
X44952067Y-53526267D01*
X44904448Y-53669124D01*
X44809210Y-53764362D01*
X44666353Y-53811981D01*
X44571115Y-53811981D01*
X45333020Y-52811981D02*
X45952067Y-52811981D01*
X45618734Y-53192934D01*
X45761591Y-53192934D01*
X45856829Y-53240553D01*
X45904448Y-53288172D01*
X45952067Y-53383410D01*
X45952067Y-53621505D01*
X45904448Y-53716743D01*
X45856829Y-53764362D01*
X45761591Y-53811981D01*
X45475877Y-53811981D01*
X45380639Y-53764362D01*
X45333020Y-53716743D01*
%TO.C,C15*%
X125722142Y-130007142D02*
X125674523Y-130054761D01*
X125531666Y-130102380D01*
X125436428Y-130102380D01*
X125293571Y-130054761D01*
X125198333Y-129959523D01*
X125150714Y-129864285D01*
X125103095Y-129673809D01*
X125103095Y-129530952D01*
X125150714Y-129340476D01*
X125198333Y-129245238D01*
X125293571Y-129150000D01*
X125436428Y-129102380D01*
X125531666Y-129102380D01*
X125674523Y-129150000D01*
X125722142Y-129197619D01*
X126674523Y-130102380D02*
X126103095Y-130102380D01*
X126388809Y-130102380D02*
X126388809Y-129102380D01*
X126293571Y-129245238D01*
X126198333Y-129340476D01*
X126103095Y-129388095D01*
X127579285Y-129102380D02*
X127103095Y-129102380D01*
X127055476Y-129578571D01*
X127103095Y-129530952D01*
X127198333Y-129483333D01*
X127436428Y-129483333D01*
X127531666Y-129530952D01*
X127579285Y-129578571D01*
X127626904Y-129673809D01*
X127626904Y-129911904D01*
X127579285Y-130007142D01*
X127531666Y-130054761D01*
X127436428Y-130102380D01*
X127198333Y-130102380D01*
X127103095Y-130054761D01*
X127055476Y-130007142D01*
%TO.C,C6*%
X94066142Y-133107666D02*
X94113761Y-133155285D01*
X94161380Y-133298142D01*
X94161380Y-133393380D01*
X94113761Y-133536238D01*
X94018523Y-133631476D01*
X93923285Y-133679095D01*
X93732809Y-133726714D01*
X93589952Y-133726714D01*
X93399476Y-133679095D01*
X93304238Y-133631476D01*
X93209000Y-133536238D01*
X93161380Y-133393380D01*
X93161380Y-133298142D01*
X93209000Y-133155285D01*
X93256619Y-133107666D01*
X93161380Y-132250523D02*
X93161380Y-132441000D01*
X93209000Y-132536238D01*
X93256619Y-132583857D01*
X93399476Y-132679095D01*
X93589952Y-132726714D01*
X93970904Y-132726714D01*
X94066142Y-132679095D01*
X94113761Y-132631476D01*
X94161380Y-132536238D01*
X94161380Y-132345761D01*
X94113761Y-132250523D01*
X94066142Y-132202904D01*
X93970904Y-132155285D01*
X93732809Y-132155285D01*
X93637571Y-132202904D01*
X93589952Y-132250523D01*
X93542333Y-132345761D01*
X93542333Y-132536238D01*
X93589952Y-132631476D01*
X93637571Y-132679095D01*
X93732809Y-132726714D01*
%TO.C,C5*%
X77656734Y-118771743D02*
X77609115Y-118819362D01*
X77466258Y-118866981D01*
X77371020Y-118866981D01*
X77228162Y-118819362D01*
X77132924Y-118724124D01*
X77085305Y-118628886D01*
X77037686Y-118438410D01*
X77037686Y-118295553D01*
X77085305Y-118105077D01*
X77132924Y-118009839D01*
X77228162Y-117914601D01*
X77371020Y-117866981D01*
X77466258Y-117866981D01*
X77609115Y-117914601D01*
X77656734Y-117962220D01*
X78561496Y-117866981D02*
X78085305Y-117866981D01*
X78037686Y-118343172D01*
X78085305Y-118295553D01*
X78180543Y-118247934D01*
X78418639Y-118247934D01*
X78513877Y-118295553D01*
X78561496Y-118343172D01*
X78609115Y-118438410D01*
X78609115Y-118676505D01*
X78561496Y-118771743D01*
X78513877Y-118819362D01*
X78418639Y-118866981D01*
X78180543Y-118866981D01*
X78085305Y-118819362D01*
X78037686Y-118771743D01*
%TO.C,C4*%
X104840931Y-147748633D02*
X104840931Y-147815976D01*
X104773587Y-147950663D01*
X104706244Y-148018007D01*
X104571556Y-148085350D01*
X104436869Y-148085350D01*
X104335854Y-148051679D01*
X104167495Y-147950663D01*
X104066480Y-147849648D01*
X103965465Y-147681289D01*
X103931793Y-147580274D01*
X103931793Y-147445587D01*
X103999137Y-147310900D01*
X104066480Y-147243556D01*
X104201167Y-147176213D01*
X104268511Y-147176213D01*
X105042961Y-146738480D02*
X105514366Y-147209885D01*
X104605228Y-146637465D02*
X104941946Y-147310900D01*
X105379679Y-146873167D01*
%TO.C,C3*%
X113658142Y-146978666D02*
X113705761Y-147026285D01*
X113753380Y-147169142D01*
X113753380Y-147264380D01*
X113705761Y-147407238D01*
X113610523Y-147502476D01*
X113515285Y-147550095D01*
X113324809Y-147597714D01*
X113181952Y-147597714D01*
X112991476Y-147550095D01*
X112896238Y-147502476D01*
X112801000Y-147407238D01*
X112753380Y-147264380D01*
X112753380Y-147169142D01*
X112801000Y-147026285D01*
X112848619Y-146978666D01*
X112753380Y-146645333D02*
X112753380Y-146026285D01*
X113134333Y-146359619D01*
X113134333Y-146216761D01*
X113181952Y-146121523D01*
X113229571Y-146073904D01*
X113324809Y-146026285D01*
X113562904Y-146026285D01*
X113658142Y-146073904D01*
X113705761Y-146121523D01*
X113753380Y-146216761D01*
X113753380Y-146502476D01*
X113705761Y-146597714D01*
X113658142Y-146645333D01*
%TO.C,C2*%
X51548734Y-72996743D02*
X51501115Y-73044362D01*
X51358258Y-73091981D01*
X51263020Y-73091981D01*
X51120162Y-73044362D01*
X51024924Y-72949124D01*
X50977305Y-72853886D01*
X50929686Y-72663410D01*
X50929686Y-72520553D01*
X50977305Y-72330077D01*
X51024924Y-72234839D01*
X51120162Y-72139601D01*
X51263020Y-72091981D01*
X51358258Y-72091981D01*
X51501115Y-72139601D01*
X51548734Y-72187220D01*
X51929686Y-72187220D02*
X51977305Y-72139601D01*
X52072543Y-72091981D01*
X52310639Y-72091981D01*
X52405877Y-72139601D01*
X52453496Y-72187220D01*
X52501115Y-72282458D01*
X52501115Y-72377696D01*
X52453496Y-72520553D01*
X51882067Y-73091981D01*
X52501115Y-73091981D01*
%TO.C,J2*%
X174542380Y-113493333D02*
X175256666Y-113493333D01*
X175399523Y-113540952D01*
X175494761Y-113636190D01*
X175542380Y-113779047D01*
X175542380Y-113874285D01*
X174637619Y-113064761D02*
X174590000Y-113017142D01*
X174542380Y-112921904D01*
X174542380Y-112683809D01*
X174590000Y-112588571D01*
X174637619Y-112540952D01*
X174732857Y-112493333D01*
X174828095Y-112493333D01*
X174970952Y-112540952D01*
X175542380Y-113112380D01*
X175542380Y-112493333D01*
%TO.C,H2*%
X194786809Y-161837714D02*
X195167761Y-161837714D01*
X194929666Y-161504380D02*
X194929666Y-162361523D01*
X194977285Y-162456761D01*
X195072523Y-162504380D01*
X195167761Y-162504380D01*
X195643952Y-162504380D02*
X195548714Y-162456761D01*
X195501095Y-162409142D01*
X195453476Y-162313904D01*
X195453476Y-162028190D01*
X195501095Y-161932952D01*
X195548714Y-161885333D01*
X195643952Y-161837714D01*
X195786809Y-161837714D01*
X195882047Y-161885333D01*
X195929666Y-161932952D01*
X195977285Y-162028190D01*
X195977285Y-162313904D01*
X195929666Y-162409142D01*
X195882047Y-162456761D01*
X195786809Y-162504380D01*
X195643952Y-162504380D01*
X196548714Y-162504380D02*
X196453476Y-162456761D01*
X196405857Y-162409142D01*
X196358238Y-162313904D01*
X196358238Y-162028190D01*
X196405857Y-161932952D01*
X196453476Y-161885333D01*
X196548714Y-161837714D01*
X196691571Y-161837714D01*
X196786809Y-161885333D01*
X196834428Y-161932952D01*
X196882047Y-162028190D01*
X196882047Y-162313904D01*
X196834428Y-162409142D01*
X196786809Y-162456761D01*
X196691571Y-162504380D01*
X196548714Y-162504380D01*
X197453476Y-162504380D02*
X197358238Y-162456761D01*
X197310619Y-162361523D01*
X197310619Y-161504380D01*
X197834428Y-162504380D02*
X197834428Y-161837714D01*
X197834428Y-161504380D02*
X197786809Y-161552000D01*
X197834428Y-161599619D01*
X197882047Y-161552000D01*
X197834428Y-161504380D01*
X197834428Y-161599619D01*
X198310619Y-161837714D02*
X198310619Y-162504380D01*
X198310619Y-161932952D02*
X198358238Y-161885333D01*
X198453476Y-161837714D01*
X198596333Y-161837714D01*
X198691571Y-161885333D01*
X198739190Y-161980571D01*
X198739190Y-162504380D01*
X199643952Y-161837714D02*
X199643952Y-162647238D01*
X199596333Y-162742476D01*
X199548714Y-162790095D01*
X199453476Y-162837714D01*
X199310619Y-162837714D01*
X199215380Y-162790095D01*
X199643952Y-162456761D02*
X199548714Y-162504380D01*
X199358238Y-162504380D01*
X199263000Y-162456761D01*
X199215380Y-162409142D01*
X199167761Y-162313904D01*
X199167761Y-162028190D01*
X199215380Y-161932952D01*
X199263000Y-161885333D01*
X199358238Y-161837714D01*
X199548714Y-161837714D01*
X199643952Y-161885333D01*
X200882047Y-162504380D02*
X200882047Y-161504380D01*
X201310619Y-162504380D02*
X201310619Y-161980571D01*
X201263000Y-161885333D01*
X201167761Y-161837714D01*
X201024904Y-161837714D01*
X200929666Y-161885333D01*
X200882047Y-161932952D01*
X201929666Y-162504380D02*
X201834428Y-162456761D01*
X201786809Y-162409142D01*
X201739190Y-162313904D01*
X201739190Y-162028190D01*
X201786809Y-161932952D01*
X201834428Y-161885333D01*
X201929666Y-161837714D01*
X202072523Y-161837714D01*
X202167761Y-161885333D01*
X202215380Y-161932952D01*
X202263000Y-162028190D01*
X202263000Y-162313904D01*
X202215380Y-162409142D01*
X202167761Y-162456761D01*
X202072523Y-162504380D01*
X201929666Y-162504380D01*
X202834428Y-162504380D02*
X202739190Y-162456761D01*
X202691571Y-162361523D01*
X202691571Y-161504380D01*
X203596333Y-162456761D02*
X203501095Y-162504380D01*
X203310619Y-162504380D01*
X203215380Y-162456761D01*
X203167761Y-162361523D01*
X203167761Y-161980571D01*
X203215380Y-161885333D01*
X203310619Y-161837714D01*
X203501095Y-161837714D01*
X203596333Y-161885333D01*
X203643952Y-161980571D01*
X203643952Y-162075809D01*
X203167761Y-162171047D01*
%TO.C,H1*%
X26130809Y-90336714D02*
X26511761Y-90336714D01*
X26273666Y-90003380D02*
X26273666Y-90860523D01*
X26321285Y-90955761D01*
X26416523Y-91003380D01*
X26511761Y-91003380D01*
X26987952Y-91003380D02*
X26892714Y-90955761D01*
X26845095Y-90908142D01*
X26797476Y-90812904D01*
X26797476Y-90527190D01*
X26845095Y-90431952D01*
X26892714Y-90384333D01*
X26987952Y-90336714D01*
X27130809Y-90336714D01*
X27226047Y-90384333D01*
X27273666Y-90431952D01*
X27321285Y-90527190D01*
X27321285Y-90812904D01*
X27273666Y-90908142D01*
X27226047Y-90955761D01*
X27130809Y-91003380D01*
X26987952Y-91003380D01*
X27892714Y-91003380D02*
X27797476Y-90955761D01*
X27749857Y-90908142D01*
X27702238Y-90812904D01*
X27702238Y-90527190D01*
X27749857Y-90431952D01*
X27797476Y-90384333D01*
X27892714Y-90336714D01*
X28035571Y-90336714D01*
X28130809Y-90384333D01*
X28178428Y-90431952D01*
X28226047Y-90527190D01*
X28226047Y-90812904D01*
X28178428Y-90908142D01*
X28130809Y-90955761D01*
X28035571Y-91003380D01*
X27892714Y-91003380D01*
X28797476Y-91003380D02*
X28702238Y-90955761D01*
X28654619Y-90860523D01*
X28654619Y-90003380D01*
X29178428Y-91003380D02*
X29178428Y-90336714D01*
X29178428Y-90003380D02*
X29130809Y-90051000D01*
X29178428Y-90098619D01*
X29226047Y-90051000D01*
X29178428Y-90003380D01*
X29178428Y-90098619D01*
X29654619Y-90336714D02*
X29654619Y-91003380D01*
X29654619Y-90431952D02*
X29702238Y-90384333D01*
X29797476Y-90336714D01*
X29940333Y-90336714D01*
X30035571Y-90384333D01*
X30083190Y-90479571D01*
X30083190Y-91003380D01*
X30987952Y-90336714D02*
X30987952Y-91146238D01*
X30940333Y-91241476D01*
X30892714Y-91289095D01*
X30797476Y-91336714D01*
X30654619Y-91336714D01*
X30559380Y-91289095D01*
X30987952Y-90955761D02*
X30892714Y-91003380D01*
X30702238Y-91003380D01*
X30607000Y-90955761D01*
X30559380Y-90908142D01*
X30511761Y-90812904D01*
X30511761Y-90527190D01*
X30559380Y-90431952D01*
X30607000Y-90384333D01*
X30702238Y-90336714D01*
X30892714Y-90336714D01*
X30987952Y-90384333D01*
X32226047Y-91003380D02*
X32226047Y-90003380D01*
X32654619Y-91003380D02*
X32654619Y-90479571D01*
X32607000Y-90384333D01*
X32511761Y-90336714D01*
X32368904Y-90336714D01*
X32273666Y-90384333D01*
X32226047Y-90431952D01*
X33273666Y-91003380D02*
X33178428Y-90955761D01*
X33130809Y-90908142D01*
X33083190Y-90812904D01*
X33083190Y-90527190D01*
X33130809Y-90431952D01*
X33178428Y-90384333D01*
X33273666Y-90336714D01*
X33416523Y-90336714D01*
X33511761Y-90384333D01*
X33559380Y-90431952D01*
X33607000Y-90527190D01*
X33607000Y-90812904D01*
X33559380Y-90908142D01*
X33511761Y-90955761D01*
X33416523Y-91003380D01*
X33273666Y-91003380D01*
X34178428Y-91003380D02*
X34083190Y-90955761D01*
X34035571Y-90860523D01*
X34035571Y-90003380D01*
X34940333Y-90955761D02*
X34845095Y-91003380D01*
X34654619Y-91003380D01*
X34559380Y-90955761D01*
X34511761Y-90860523D01*
X34511761Y-90479571D01*
X34559380Y-90384333D01*
X34654619Y-90336714D01*
X34845095Y-90336714D01*
X34940333Y-90384333D01*
X34987952Y-90479571D01*
X34987952Y-90574809D01*
X34511761Y-90670047D01*
%TO.C,Y1*%
X129045190Y-124174190D02*
X129521380Y-124174190D01*
X128521380Y-124507523D02*
X129045190Y-124174190D01*
X128521380Y-123840857D01*
X129521380Y-122983714D02*
X129521380Y-123555142D01*
X129521380Y-123269428D02*
X128521380Y-123269428D01*
X128664238Y-123364666D01*
X128759476Y-123459904D01*
X128807095Y-123555142D01*
%TO.C,U3*%
X83482380Y-142406904D02*
X84291904Y-142406904D01*
X84387142Y-142359285D01*
X84434761Y-142311666D01*
X84482380Y-142216428D01*
X84482380Y-142025952D01*
X84434761Y-141930714D01*
X84387142Y-141883095D01*
X84291904Y-141835476D01*
X83482380Y-141835476D01*
X83482380Y-141454523D02*
X83482380Y-140835476D01*
X83863333Y-141168809D01*
X83863333Y-141025952D01*
X83910952Y-140930714D01*
X83958571Y-140883095D01*
X84053809Y-140835476D01*
X84291904Y-140835476D01*
X84387142Y-140883095D01*
X84434761Y-140930714D01*
X84482380Y-141025952D01*
X84482380Y-141311666D01*
X84434761Y-141406904D01*
X84387142Y-141454523D01*
%TO.C,U2*%
X98287380Y-118998904D02*
X99096904Y-118998904D01*
X99192142Y-118951285D01*
X99239761Y-118903666D01*
X99287380Y-118808428D01*
X99287380Y-118617952D01*
X99239761Y-118522714D01*
X99192142Y-118475095D01*
X99096904Y-118427476D01*
X98287380Y-118427476D01*
X98382619Y-117998904D02*
X98335000Y-117951285D01*
X98287380Y-117856047D01*
X98287380Y-117617952D01*
X98335000Y-117522714D01*
X98382619Y-117475095D01*
X98477857Y-117427476D01*
X98573095Y-117427476D01*
X98715952Y-117475095D01*
X99287380Y-118046523D01*
X99287380Y-117427476D01*
%TO.C,U1*%
X111102380Y-135761904D02*
X111911904Y-135761904D01*
X112007142Y-135714285D01*
X112054761Y-135666666D01*
X112102380Y-135571428D01*
X112102380Y-135380952D01*
X112054761Y-135285714D01*
X112007142Y-135238095D01*
X111911904Y-135190476D01*
X111102380Y-135190476D01*
X112102380Y-134190476D02*
X112102380Y-134761904D01*
X112102380Y-134476190D02*
X111102380Y-134476190D01*
X111245238Y-134571428D01*
X111340476Y-134666666D01*
X111388095Y-134761904D01*
%TO.C,T1*%
X164338095Y-106486380D02*
X164909523Y-106486380D01*
X164623809Y-107486380D02*
X164623809Y-106486380D01*
X165766666Y-107486380D02*
X165195238Y-107486380D01*
X165480952Y-107486380D02*
X165480952Y-106486380D01*
X165385714Y-106629238D01*
X165290476Y-106724476D01*
X165195238Y-106772095D01*
%TO.C,R5*%
X177125333Y-127171380D02*
X176792000Y-126695190D01*
X176553904Y-127171380D02*
X176553904Y-126171380D01*
X176934857Y-126171380D01*
X177030095Y-126219000D01*
X177077714Y-126266619D01*
X177125333Y-126361857D01*
X177125333Y-126504714D01*
X177077714Y-126599952D01*
X177030095Y-126647571D01*
X176934857Y-126695190D01*
X176553904Y-126695190D01*
X178030095Y-126171380D02*
X177553904Y-126171380D01*
X177506285Y-126647571D01*
X177553904Y-126599952D01*
X177649142Y-126552333D01*
X177887238Y-126552333D01*
X177982476Y-126599952D01*
X178030095Y-126647571D01*
X178077714Y-126742809D01*
X178077714Y-126980904D01*
X178030095Y-127076142D01*
X177982476Y-127123761D01*
X177887238Y-127171380D01*
X177649142Y-127171380D01*
X177553904Y-127123761D01*
X177506285Y-127076142D01*
%TO.C,R4*%
X177125333Y-130092380D02*
X176792000Y-129616190D01*
X176553904Y-130092380D02*
X176553904Y-129092380D01*
X176934857Y-129092380D01*
X177030095Y-129140000D01*
X177077714Y-129187619D01*
X177125333Y-129282857D01*
X177125333Y-129425714D01*
X177077714Y-129520952D01*
X177030095Y-129568571D01*
X176934857Y-129616190D01*
X176553904Y-129616190D01*
X177982476Y-129425714D02*
X177982476Y-130092380D01*
X177744380Y-129044761D02*
X177506285Y-129759047D01*
X178125333Y-129759047D01*
%TO.C,R3*%
X159483380Y-116625666D02*
X159007190Y-116959000D01*
X159483380Y-117197095D02*
X158483380Y-117197095D01*
X158483380Y-116816142D01*
X158531000Y-116720904D01*
X158578619Y-116673285D01*
X158673857Y-116625666D01*
X158816714Y-116625666D01*
X158911952Y-116673285D01*
X158959571Y-116720904D01*
X159007190Y-116816142D01*
X159007190Y-117197095D01*
X158483380Y-116292333D02*
X158483380Y-115673285D01*
X158864333Y-116006619D01*
X158864333Y-115863761D01*
X158911952Y-115768523D01*
X158959571Y-115720904D01*
X159054809Y-115673285D01*
X159292904Y-115673285D01*
X159388142Y-115720904D01*
X159435761Y-115768523D01*
X159483380Y-115863761D01*
X159483380Y-116149476D01*
X159435761Y-116244714D01*
X159388142Y-116292333D01*
%TO.C,R2*%
X121289952Y-126505345D02*
X121390967Y-125932925D01*
X120885891Y-126101284D02*
X121592997Y-125394177D01*
X121862372Y-125663551D01*
X121896043Y-125764566D01*
X121896043Y-125831910D01*
X121862372Y-125932925D01*
X121761356Y-126033940D01*
X121660341Y-126067612D01*
X121592997Y-126067612D01*
X121491982Y-126033940D01*
X121222608Y-125764566D01*
X122199089Y-126134956D02*
X122266433Y-126134956D01*
X122367448Y-126168627D01*
X122535807Y-126336986D01*
X122569478Y-126438002D01*
X122569478Y-126505345D01*
X122535807Y-126606360D01*
X122468463Y-126673704D01*
X122333776Y-126741047D01*
X121525654Y-126741047D01*
X121963387Y-127178780D01*
%TO.C,R1*%
X122947333Y-100672380D02*
X122614000Y-100196190D01*
X122375904Y-100672380D02*
X122375904Y-99672380D01*
X122756857Y-99672380D01*
X122852095Y-99720000D01*
X122899714Y-99767619D01*
X122947333Y-99862857D01*
X122947333Y-100005714D01*
X122899714Y-100100952D01*
X122852095Y-100148571D01*
X122756857Y-100196190D01*
X122375904Y-100196190D01*
X123899714Y-100672380D02*
X123328285Y-100672380D01*
X123614000Y-100672380D02*
X123614000Y-99672380D01*
X123518761Y-99815238D01*
X123423523Y-99910476D01*
X123328285Y-99958095D01*
%TO.C,C14*%
X175435142Y-109354857D02*
X175482761Y-109402476D01*
X175530380Y-109545333D01*
X175530380Y-109640571D01*
X175482761Y-109783428D01*
X175387523Y-109878666D01*
X175292285Y-109926285D01*
X175101809Y-109973904D01*
X174958952Y-109973904D01*
X174768476Y-109926285D01*
X174673238Y-109878666D01*
X174578000Y-109783428D01*
X174530380Y-109640571D01*
X174530380Y-109545333D01*
X174578000Y-109402476D01*
X174625619Y-109354857D01*
X175530380Y-108402476D02*
X175530380Y-108973904D01*
X175530380Y-108688190D02*
X174530380Y-108688190D01*
X174673238Y-108783428D01*
X174768476Y-108878666D01*
X174816095Y-108973904D01*
X174863714Y-107545333D02*
X175530380Y-107545333D01*
X174482761Y-107783428D02*
X175197047Y-108021523D01*
X175197047Y-107402476D01*
%TO.C,C13*%
X175435142Y-118498857D02*
X175482761Y-118546476D01*
X175530380Y-118689333D01*
X175530380Y-118784571D01*
X175482761Y-118927428D01*
X175387523Y-119022666D01*
X175292285Y-119070285D01*
X175101809Y-119117904D01*
X174958952Y-119117904D01*
X174768476Y-119070285D01*
X174673238Y-119022666D01*
X174578000Y-118927428D01*
X174530380Y-118784571D01*
X174530380Y-118689333D01*
X174578000Y-118546476D01*
X174625619Y-118498857D01*
X175530380Y-117546476D02*
X175530380Y-118117904D01*
X175530380Y-117832190D02*
X174530380Y-117832190D01*
X174673238Y-117927428D01*
X174768476Y-118022666D01*
X174816095Y-118117904D01*
X174530380Y-117213142D02*
X174530380Y-116594095D01*
X174911333Y-116927428D01*
X174911333Y-116784571D01*
X174958952Y-116689333D01*
X175006571Y-116641714D01*
X175101809Y-116594095D01*
X175339904Y-116594095D01*
X175435142Y-116641714D01*
X175482761Y-116689333D01*
X175530380Y-116784571D01*
X175530380Y-117070285D01*
X175482761Y-117165523D01*
X175435142Y-117213142D01*
%TO.C,C12*%
X108196142Y-122006142D02*
X108148523Y-122053761D01*
X108005666Y-122101380D01*
X107910428Y-122101380D01*
X107767571Y-122053761D01*
X107672333Y-121958523D01*
X107624714Y-121863285D01*
X107577095Y-121672809D01*
X107577095Y-121529952D01*
X107624714Y-121339476D01*
X107672333Y-121244238D01*
X107767571Y-121149000D01*
X107910428Y-121101380D01*
X108005666Y-121101380D01*
X108148523Y-121149000D01*
X108196142Y-121196619D01*
X109148523Y-122101380D02*
X108577095Y-122101380D01*
X108862809Y-122101380D02*
X108862809Y-121101380D01*
X108767571Y-121244238D01*
X108672333Y-121339476D01*
X108577095Y-121387095D01*
X109529476Y-121196619D02*
X109577095Y-121149000D01*
X109672333Y-121101380D01*
X109910428Y-121101380D01*
X110005666Y-121149000D01*
X110053285Y-121196619D01*
X110100904Y-121291857D01*
X110100904Y-121387095D01*
X110053285Y-121529952D01*
X109481857Y-122101380D01*
X110100904Y-122101380D01*
%TO.C,C11*%
X164767142Y-123832857D02*
X164814761Y-123880476D01*
X164862380Y-124023333D01*
X164862380Y-124118571D01*
X164814761Y-124261428D01*
X164719523Y-124356666D01*
X164624285Y-124404285D01*
X164433809Y-124451904D01*
X164290952Y-124451904D01*
X164100476Y-124404285D01*
X164005238Y-124356666D01*
X163910000Y-124261428D01*
X163862380Y-124118571D01*
X163862380Y-124023333D01*
X163910000Y-123880476D01*
X163957619Y-123832857D01*
X164862380Y-122880476D02*
X164862380Y-123451904D01*
X164862380Y-123166190D02*
X163862380Y-123166190D01*
X164005238Y-123261428D01*
X164100476Y-123356666D01*
X164148095Y-123451904D01*
X164862380Y-121928095D02*
X164862380Y-122499523D01*
X164862380Y-122213809D02*
X163862380Y-122213809D01*
X164005238Y-122309047D01*
X164100476Y-122404285D01*
X164148095Y-122499523D01*
%TO.C,C10*%
X164767142Y-104020857D02*
X164814761Y-104068476D01*
X164862380Y-104211333D01*
X164862380Y-104306571D01*
X164814761Y-104449428D01*
X164719523Y-104544666D01*
X164624285Y-104592285D01*
X164433809Y-104639904D01*
X164290952Y-104639904D01*
X164100476Y-104592285D01*
X164005238Y-104544666D01*
X163910000Y-104449428D01*
X163862380Y-104306571D01*
X163862380Y-104211333D01*
X163910000Y-104068476D01*
X163957619Y-104020857D01*
X164862380Y-103068476D02*
X164862380Y-103639904D01*
X164862380Y-103354190D02*
X163862380Y-103354190D01*
X164005238Y-103449428D01*
X164100476Y-103544666D01*
X164148095Y-103639904D01*
X163862380Y-102449428D02*
X163862380Y-102354190D01*
X163910000Y-102258952D01*
X163957619Y-102211333D01*
X164052857Y-102163714D01*
X164243333Y-102116095D01*
X164481428Y-102116095D01*
X164671904Y-102163714D01*
X164767142Y-102211333D01*
X164814761Y-102258952D01*
X164862380Y-102354190D01*
X164862380Y-102449428D01*
X164814761Y-102544666D01*
X164767142Y-102592285D01*
X164671904Y-102639904D01*
X164481428Y-102687523D01*
X164243333Y-102687523D01*
X164052857Y-102639904D01*
X163957619Y-102592285D01*
X163910000Y-102544666D01*
X163862380Y-102449428D01*
%TO.C,C9*%
X122641142Y-123709666D02*
X122688761Y-123757285D01*
X122736380Y-123900142D01*
X122736380Y-123995380D01*
X122688761Y-124138238D01*
X122593523Y-124233476D01*
X122498285Y-124281095D01*
X122307809Y-124328714D01*
X122164952Y-124328714D01*
X121974476Y-124281095D01*
X121879238Y-124233476D01*
X121784000Y-124138238D01*
X121736380Y-123995380D01*
X121736380Y-123900142D01*
X121784000Y-123757285D01*
X121831619Y-123709666D01*
X122736380Y-123233476D02*
X122736380Y-123043000D01*
X122688761Y-122947761D01*
X122641142Y-122900142D01*
X122498285Y-122804904D01*
X122307809Y-122757285D01*
X121926857Y-122757285D01*
X121831619Y-122804904D01*
X121784000Y-122852523D01*
X121736380Y-122947761D01*
X121736380Y-123138238D01*
X121784000Y-123233476D01*
X121831619Y-123281095D01*
X121926857Y-123328714D01*
X122164952Y-123328714D01*
X122260190Y-123281095D01*
X122307809Y-123233476D01*
X122355428Y-123138238D01*
X122355428Y-122947761D01*
X122307809Y-122852523D01*
X122260190Y-122804904D01*
X122164952Y-122757285D01*
%TO.C,C8*%
X131184142Y-123737666D02*
X131231761Y-123785285D01*
X131279380Y-123928142D01*
X131279380Y-124023380D01*
X131231761Y-124166238D01*
X131136523Y-124261476D01*
X131041285Y-124309095D01*
X130850809Y-124356714D01*
X130707952Y-124356714D01*
X130517476Y-124309095D01*
X130422238Y-124261476D01*
X130327000Y-124166238D01*
X130279380Y-124023380D01*
X130279380Y-123928142D01*
X130327000Y-123785285D01*
X130374619Y-123737666D01*
X130707952Y-123166238D02*
X130660333Y-123261476D01*
X130612714Y-123309095D01*
X130517476Y-123356714D01*
X130469857Y-123356714D01*
X130374619Y-123309095D01*
X130327000Y-123261476D01*
X130279380Y-123166238D01*
X130279380Y-122975761D01*
X130327000Y-122880523D01*
X130374619Y-122832904D01*
X130469857Y-122785285D01*
X130517476Y-122785285D01*
X130612714Y-122832904D01*
X130660333Y-122880523D01*
X130707952Y-122975761D01*
X130707952Y-123166238D01*
X130755571Y-123261476D01*
X130803190Y-123309095D01*
X130898428Y-123356714D01*
X131088904Y-123356714D01*
X131184142Y-123309095D01*
X131231761Y-123261476D01*
X131279380Y-123166238D01*
X131279380Y-122975761D01*
X131231761Y-122880523D01*
X131184142Y-122832904D01*
X131088904Y-122785285D01*
X130898428Y-122785285D01*
X130803190Y-122832904D01*
X130755571Y-122880523D01*
X130707952Y-122975761D01*
%TO.C,C7*%
X118197333Y-122006142D02*
X118149714Y-122053761D01*
X118006857Y-122101380D01*
X117911619Y-122101380D01*
X117768761Y-122053761D01*
X117673523Y-121958523D01*
X117625904Y-121863285D01*
X117578285Y-121672809D01*
X117578285Y-121529952D01*
X117625904Y-121339476D01*
X117673523Y-121244238D01*
X117768761Y-121149000D01*
X117911619Y-121101380D01*
X118006857Y-121101380D01*
X118149714Y-121149000D01*
X118197333Y-121196619D01*
X118530666Y-121101380D02*
X119197333Y-121101380D01*
X118768761Y-122101380D01*
%TO.C,C1*%
X103338333Y-111846142D02*
X103290714Y-111893761D01*
X103147857Y-111941380D01*
X103052619Y-111941380D01*
X102909761Y-111893761D01*
X102814523Y-111798523D01*
X102766904Y-111703285D01*
X102719285Y-111512809D01*
X102719285Y-111369952D01*
X102766904Y-111179476D01*
X102814523Y-111084238D01*
X102909761Y-110989000D01*
X103052619Y-110941380D01*
X103147857Y-110941380D01*
X103290714Y-110989000D01*
X103338333Y-111036619D01*
X104290714Y-111941380D02*
X103719285Y-111941380D01*
X104005000Y-111941380D02*
X104005000Y-110941380D01*
X103909761Y-111084238D01*
X103814523Y-111179476D01*
X103719285Y-111227095D01*
%TD*%
M02*
