%TF.GenerationSoftware,KiCad,Pcbnew,5.1.7*%
%TF.CreationDate,2020-11-14T02:02:55+01:00*%
%TF.ProjectId,ISA8019,49534138-3031-4392-9e6b-696361645f70,rev?*%
%TF.SameCoordinates,Original*%
%TF.FileFunction,Soldermask,Top*%
%TF.FilePolarity,Negative*%
%FSLAX46Y46*%
G04 Gerber Fmt 4.6, Leading zero omitted, Abs format (unit mm)*
G04 Created by KiCad (PCBNEW 5.1.7) date 2020-11-14 02:02:55*
%MOMM*%
%LPD*%
G01*
G04 APERTURE LIST*
%ADD10R,1.780000X7.620000*%
%ADD11C,0.800000*%
%ADD12C,6.400000*%
%ADD13R,1.700000X1.700000*%
%ADD14O,1.700000X1.700000*%
%ADD15C,1.400000*%
%ADD16C,2.500000*%
%ADD17C,3.200000*%
%ADD18C,1.152000*%
%ADD19R,1.200000X1.400000*%
%ADD20O,1.600000X2.400000*%
%ADD21R,1.600000X2.400000*%
%ADD22R,1.500000X0.600000*%
G04 APERTURE END LIST*
D10*
%TO.C,J1*%
X38160000Y-159300000D03*
X40700000Y-159300000D03*
X43240000Y-159300000D03*
X45780000Y-159300000D03*
X48320000Y-159300000D03*
X50860000Y-159300000D03*
X53400000Y-159300000D03*
X55940000Y-159300000D03*
X58480000Y-159300000D03*
X61020000Y-159300000D03*
X63560000Y-159300000D03*
X66100000Y-159300000D03*
X68640000Y-159300000D03*
X71180000Y-159300000D03*
X73720000Y-159300000D03*
X76260000Y-159300000D03*
X78800000Y-159300000D03*
X81340000Y-159300000D03*
X91500000Y-159300000D03*
X94040000Y-159300000D03*
X96580000Y-159300000D03*
X99120000Y-159300000D03*
X101660000Y-159300000D03*
X104200000Y-159300000D03*
X106740000Y-159300000D03*
X109280000Y-159300000D03*
X111820000Y-159300000D03*
X114360000Y-159300000D03*
X116900000Y-159300000D03*
X119440000Y-159300000D03*
X121980000Y-159300000D03*
X124520000Y-159300000D03*
X127060000Y-159300000D03*
X129600000Y-159300000D03*
X132140000Y-159300000D03*
X134680000Y-159300000D03*
X137220000Y-159300000D03*
X139760000Y-159300000D03*
X142300000Y-159300000D03*
X144840000Y-159300000D03*
X147380000Y-159300000D03*
X149920000Y-159300000D03*
X152460000Y-159300000D03*
X155000000Y-159300000D03*
X157540000Y-159300000D03*
X160080000Y-159300000D03*
X162620000Y-159300000D03*
X165160000Y-159300000D03*
X167700000Y-159300000D03*
%TD*%
%TO.C,FB1*%
G36*
G01*
X180339750Y-126482000D02*
X181102250Y-126482000D01*
G75*
G02*
X181321000Y-126700750I0J-218750D01*
G01*
X181321000Y-127138250D01*
G75*
G02*
X181102250Y-127357000I-218750J0D01*
G01*
X180339750Y-127357000D01*
G75*
G02*
X180121000Y-127138250I0J218750D01*
G01*
X180121000Y-126700750D01*
G75*
G02*
X180339750Y-126482000I218750J0D01*
G01*
G37*
G36*
G01*
X180339750Y-124357000D02*
X181102250Y-124357000D01*
G75*
G02*
X181321000Y-124575750I0J-218750D01*
G01*
X181321000Y-125013250D01*
G75*
G02*
X181102250Y-125232000I-218750J0D01*
G01*
X180339750Y-125232000D01*
G75*
G02*
X180121000Y-125013250I0J218750D01*
G01*
X180121000Y-124575750D01*
G75*
G02*
X180339750Y-124357000I218750J0D01*
G01*
G37*
%TD*%
D11*
%TO.C,H4*%
X189848056Y-93402944D03*
X188151000Y-92700000D03*
X186453944Y-93402944D03*
X185751000Y-95100000D03*
X186453944Y-96797056D03*
X188151000Y-97500000D03*
X189848056Y-96797056D03*
X190551000Y-95100000D03*
D12*
X188151000Y-95100000D03*
%TD*%
D11*
%TO.C,H3*%
X189848056Y-149917944D03*
X188151000Y-149215000D03*
X186453944Y-149917944D03*
X185751000Y-151615000D03*
X186453944Y-153312056D03*
X188151000Y-154015000D03*
X189848056Y-153312056D03*
X190551000Y-151615000D03*
D12*
X188151000Y-151615000D03*
%TD*%
%TO.C,R22*%
G36*
G01*
X71165401Y-54544601D02*
X71165401Y-54174601D01*
G75*
G02*
X71300401Y-54039601I135000J0D01*
G01*
X71570401Y-54039601D01*
G75*
G02*
X71705401Y-54174601I0J-135000D01*
G01*
X71705401Y-54544601D01*
G75*
G02*
X71570401Y-54679601I-135000J0D01*
G01*
X71300401Y-54679601D01*
G75*
G02*
X71165401Y-54544601I0J135000D01*
G01*
G37*
G36*
G01*
X72185401Y-54544601D02*
X72185401Y-54174601D01*
G75*
G02*
X72320401Y-54039601I135000J0D01*
G01*
X72590401Y-54039601D01*
G75*
G02*
X72725401Y-54174601I0J-135000D01*
G01*
X72725401Y-54544601D01*
G75*
G02*
X72590401Y-54679601I-135000J0D01*
G01*
X72320401Y-54679601D01*
G75*
G02*
X72185401Y-54544601I0J135000D01*
G01*
G37*
%TD*%
%TO.C,R21*%
G36*
G01*
X59675401Y-71444601D02*
X59675401Y-71074601D01*
G75*
G02*
X59810401Y-70939601I135000J0D01*
G01*
X60080401Y-70939601D01*
G75*
G02*
X60215401Y-71074601I0J-135000D01*
G01*
X60215401Y-71444601D01*
G75*
G02*
X60080401Y-71579601I-135000J0D01*
G01*
X59810401Y-71579601D01*
G75*
G02*
X59675401Y-71444601I0J135000D01*
G01*
G37*
G36*
G01*
X60695401Y-71444601D02*
X60695401Y-71074601D01*
G75*
G02*
X60830401Y-70939601I135000J0D01*
G01*
X61100401Y-70939601D01*
G75*
G02*
X61235401Y-71074601I0J-135000D01*
G01*
X61235401Y-71444601D01*
G75*
G02*
X61100401Y-71579601I-135000J0D01*
G01*
X60830401Y-71579601D01*
G75*
G02*
X60695401Y-71444601I0J135000D01*
G01*
G37*
%TD*%
%TO.C,R20*%
G36*
G01*
X59675401Y-73434601D02*
X59675401Y-73064601D01*
G75*
G02*
X59810401Y-72929601I135000J0D01*
G01*
X60080401Y-72929601D01*
G75*
G02*
X60215401Y-73064601I0J-135000D01*
G01*
X60215401Y-73434601D01*
G75*
G02*
X60080401Y-73569601I-135000J0D01*
G01*
X59810401Y-73569601D01*
G75*
G02*
X59675401Y-73434601I0J135000D01*
G01*
G37*
G36*
G01*
X60695401Y-73434601D02*
X60695401Y-73064601D01*
G75*
G02*
X60830401Y-72929601I135000J0D01*
G01*
X61100401Y-72929601D01*
G75*
G02*
X61235401Y-73064601I0J-135000D01*
G01*
X61235401Y-73434601D01*
G75*
G02*
X61100401Y-73569601I-135000J0D01*
G01*
X60830401Y-73569601D01*
G75*
G02*
X60695401Y-73434601I0J135000D01*
G01*
G37*
%TD*%
%TO.C,R19*%
G36*
G01*
X55215401Y-75424601D02*
X55215401Y-75054601D01*
G75*
G02*
X55350401Y-74919601I135000J0D01*
G01*
X55620401Y-74919601D01*
G75*
G02*
X55755401Y-75054601I0J-135000D01*
G01*
X55755401Y-75424601D01*
G75*
G02*
X55620401Y-75559601I-135000J0D01*
G01*
X55350401Y-75559601D01*
G75*
G02*
X55215401Y-75424601I0J135000D01*
G01*
G37*
G36*
G01*
X56235401Y-75424601D02*
X56235401Y-75054601D01*
G75*
G02*
X56370401Y-74919601I135000J0D01*
G01*
X56640401Y-74919601D01*
G75*
G02*
X56775401Y-75054601I0J-135000D01*
G01*
X56775401Y-75424601D01*
G75*
G02*
X56640401Y-75559601I-135000J0D01*
G01*
X56370401Y-75559601D01*
G75*
G02*
X56235401Y-75424601I0J135000D01*
G01*
G37*
%TD*%
%TO.C,R18*%
G36*
G01*
X74075401Y-58524601D02*
X74075401Y-58154601D01*
G75*
G02*
X74210401Y-58019601I135000J0D01*
G01*
X74480401Y-58019601D01*
G75*
G02*
X74615401Y-58154601I0J-135000D01*
G01*
X74615401Y-58524601D01*
G75*
G02*
X74480401Y-58659601I-135000J0D01*
G01*
X74210401Y-58659601D01*
G75*
G02*
X74075401Y-58524601I0J135000D01*
G01*
G37*
G36*
G01*
X75095401Y-58524601D02*
X75095401Y-58154601D01*
G75*
G02*
X75230401Y-58019601I135000J0D01*
G01*
X75500401Y-58019601D01*
G75*
G02*
X75635401Y-58154601I0J-135000D01*
G01*
X75635401Y-58524601D01*
G75*
G02*
X75500401Y-58659601I-135000J0D01*
G01*
X75230401Y-58659601D01*
G75*
G02*
X75095401Y-58524601I0J135000D01*
G01*
G37*
%TD*%
%TO.C,R17*%
G36*
G01*
X71165401Y-60514601D02*
X71165401Y-60144601D01*
G75*
G02*
X71300401Y-60009601I135000J0D01*
G01*
X71570401Y-60009601D01*
G75*
G02*
X71705401Y-60144601I0J-135000D01*
G01*
X71705401Y-60514601D01*
G75*
G02*
X71570401Y-60649601I-135000J0D01*
G01*
X71300401Y-60649601D01*
G75*
G02*
X71165401Y-60514601I0J135000D01*
G01*
G37*
G36*
G01*
X72185401Y-60514601D02*
X72185401Y-60144601D01*
G75*
G02*
X72320401Y-60009601I135000J0D01*
G01*
X72590401Y-60009601D01*
G75*
G02*
X72725401Y-60144601I0J-135000D01*
G01*
X72725401Y-60514601D01*
G75*
G02*
X72590401Y-60649601I-135000J0D01*
G01*
X72320401Y-60649601D01*
G75*
G02*
X72185401Y-60514601I0J135000D01*
G01*
G37*
%TD*%
%TO.C,R16*%
G36*
G01*
X76985401Y-54544601D02*
X76985401Y-54174601D01*
G75*
G02*
X77120401Y-54039601I135000J0D01*
G01*
X77390401Y-54039601D01*
G75*
G02*
X77525401Y-54174601I0J-135000D01*
G01*
X77525401Y-54544601D01*
G75*
G02*
X77390401Y-54679601I-135000J0D01*
G01*
X77120401Y-54679601D01*
G75*
G02*
X76985401Y-54544601I0J135000D01*
G01*
G37*
G36*
G01*
X78005401Y-54544601D02*
X78005401Y-54174601D01*
G75*
G02*
X78140401Y-54039601I135000J0D01*
G01*
X78410401Y-54039601D01*
G75*
G02*
X78545401Y-54174601I0J-135000D01*
G01*
X78545401Y-54544601D01*
G75*
G02*
X78410401Y-54679601I-135000J0D01*
G01*
X78140401Y-54679601D01*
G75*
G02*
X78005401Y-54544601I0J135000D01*
G01*
G37*
%TD*%
%TO.C,R15*%
G36*
G01*
X71165401Y-62504601D02*
X71165401Y-62134601D01*
G75*
G02*
X71300401Y-61999601I135000J0D01*
G01*
X71570401Y-61999601D01*
G75*
G02*
X71705401Y-62134601I0J-135000D01*
G01*
X71705401Y-62504601D01*
G75*
G02*
X71570401Y-62639601I-135000J0D01*
G01*
X71300401Y-62639601D01*
G75*
G02*
X71165401Y-62504601I0J135000D01*
G01*
G37*
G36*
G01*
X72185401Y-62504601D02*
X72185401Y-62134601D01*
G75*
G02*
X72320401Y-61999601I135000J0D01*
G01*
X72590401Y-61999601D01*
G75*
G02*
X72725401Y-62134601I0J-135000D01*
G01*
X72725401Y-62504601D01*
G75*
G02*
X72590401Y-62639601I-135000J0D01*
G01*
X72320401Y-62639601D01*
G75*
G02*
X72185401Y-62504601I0J135000D01*
G01*
G37*
%TD*%
%TO.C,R14*%
G36*
G01*
X79895401Y-54544601D02*
X79895401Y-54174601D01*
G75*
G02*
X80030401Y-54039601I135000J0D01*
G01*
X80300401Y-54039601D01*
G75*
G02*
X80435401Y-54174601I0J-135000D01*
G01*
X80435401Y-54544601D01*
G75*
G02*
X80300401Y-54679601I-135000J0D01*
G01*
X80030401Y-54679601D01*
G75*
G02*
X79895401Y-54544601I0J135000D01*
G01*
G37*
G36*
G01*
X80915401Y-54544601D02*
X80915401Y-54174601D01*
G75*
G02*
X81050401Y-54039601I135000J0D01*
G01*
X81320401Y-54039601D01*
G75*
G02*
X81455401Y-54174601I0J-135000D01*
G01*
X81455401Y-54544601D01*
G75*
G02*
X81320401Y-54679601I-135000J0D01*
G01*
X81050401Y-54679601D01*
G75*
G02*
X80915401Y-54544601I0J135000D01*
G01*
G37*
%TD*%
%TO.C,R13*%
G36*
G01*
X76985401Y-56534601D02*
X76985401Y-56164601D01*
G75*
G02*
X77120401Y-56029601I135000J0D01*
G01*
X77390401Y-56029601D01*
G75*
G02*
X77525401Y-56164601I0J-135000D01*
G01*
X77525401Y-56534601D01*
G75*
G02*
X77390401Y-56669601I-135000J0D01*
G01*
X77120401Y-56669601D01*
G75*
G02*
X76985401Y-56534601I0J135000D01*
G01*
G37*
G36*
G01*
X78005401Y-56534601D02*
X78005401Y-56164601D01*
G75*
G02*
X78140401Y-56029601I135000J0D01*
G01*
X78410401Y-56029601D01*
G75*
G02*
X78545401Y-56164601I0J-135000D01*
G01*
X78545401Y-56534601D01*
G75*
G02*
X78410401Y-56669601I-135000J0D01*
G01*
X78140401Y-56669601D01*
G75*
G02*
X78005401Y-56534601I0J135000D01*
G01*
G37*
%TD*%
%TO.C,R12*%
G36*
G01*
X71165401Y-58524601D02*
X71165401Y-58154601D01*
G75*
G02*
X71300401Y-58019601I135000J0D01*
G01*
X71570401Y-58019601D01*
G75*
G02*
X71705401Y-58154601I0J-135000D01*
G01*
X71705401Y-58524601D01*
G75*
G02*
X71570401Y-58659601I-135000J0D01*
G01*
X71300401Y-58659601D01*
G75*
G02*
X71165401Y-58524601I0J135000D01*
G01*
G37*
G36*
G01*
X72185401Y-58524601D02*
X72185401Y-58154601D01*
G75*
G02*
X72320401Y-58019601I135000J0D01*
G01*
X72590401Y-58019601D01*
G75*
G02*
X72725401Y-58154601I0J-135000D01*
G01*
X72725401Y-58524601D01*
G75*
G02*
X72590401Y-58659601I-135000J0D01*
G01*
X72320401Y-58659601D01*
G75*
G02*
X72185401Y-58524601I0J135000D01*
G01*
G37*
%TD*%
%TO.C,R11*%
G36*
G01*
X74075401Y-60514601D02*
X74075401Y-60144601D01*
G75*
G02*
X74210401Y-60009601I135000J0D01*
G01*
X74480401Y-60009601D01*
G75*
G02*
X74615401Y-60144601I0J-135000D01*
G01*
X74615401Y-60514601D01*
G75*
G02*
X74480401Y-60649601I-135000J0D01*
G01*
X74210401Y-60649601D01*
G75*
G02*
X74075401Y-60514601I0J135000D01*
G01*
G37*
G36*
G01*
X75095401Y-60514601D02*
X75095401Y-60144601D01*
G75*
G02*
X75230401Y-60009601I135000J0D01*
G01*
X75500401Y-60009601D01*
G75*
G02*
X75635401Y-60144601I0J-135000D01*
G01*
X75635401Y-60514601D01*
G75*
G02*
X75500401Y-60649601I-135000J0D01*
G01*
X75230401Y-60649601D01*
G75*
G02*
X75095401Y-60514601I0J135000D01*
G01*
G37*
%TD*%
%TO.C,R10*%
G36*
G01*
X74075401Y-56534601D02*
X74075401Y-56164601D01*
G75*
G02*
X74210401Y-56029601I135000J0D01*
G01*
X74480401Y-56029601D01*
G75*
G02*
X74615401Y-56164601I0J-135000D01*
G01*
X74615401Y-56534601D01*
G75*
G02*
X74480401Y-56669601I-135000J0D01*
G01*
X74210401Y-56669601D01*
G75*
G02*
X74075401Y-56534601I0J135000D01*
G01*
G37*
G36*
G01*
X75095401Y-56534601D02*
X75095401Y-56164601D01*
G75*
G02*
X75230401Y-56029601I135000J0D01*
G01*
X75500401Y-56029601D01*
G75*
G02*
X75635401Y-56164601I0J-135000D01*
G01*
X75635401Y-56534601D01*
G75*
G02*
X75500401Y-56669601I-135000J0D01*
G01*
X75230401Y-56669601D01*
G75*
G02*
X75095401Y-56534601I0J135000D01*
G01*
G37*
%TD*%
%TO.C,R9*%
G36*
G01*
X74075401Y-54544601D02*
X74075401Y-54174601D01*
G75*
G02*
X74210401Y-54039601I135000J0D01*
G01*
X74480401Y-54039601D01*
G75*
G02*
X74615401Y-54174601I0J-135000D01*
G01*
X74615401Y-54544601D01*
G75*
G02*
X74480401Y-54679601I-135000J0D01*
G01*
X74210401Y-54679601D01*
G75*
G02*
X74075401Y-54544601I0J135000D01*
G01*
G37*
G36*
G01*
X75095401Y-54544601D02*
X75095401Y-54174601D01*
G75*
G02*
X75230401Y-54039601I135000J0D01*
G01*
X75500401Y-54039601D01*
G75*
G02*
X75635401Y-54174601I0J-135000D01*
G01*
X75635401Y-54544601D01*
G75*
G02*
X75500401Y-54679601I-135000J0D01*
G01*
X75230401Y-54679601D01*
G75*
G02*
X75095401Y-54544601I0J135000D01*
G01*
G37*
%TD*%
%TO.C,R8*%
G36*
G01*
X56765401Y-73434601D02*
X56765401Y-73064601D01*
G75*
G02*
X56900401Y-72929601I135000J0D01*
G01*
X57170401Y-72929601D01*
G75*
G02*
X57305401Y-73064601I0J-135000D01*
G01*
X57305401Y-73434601D01*
G75*
G02*
X57170401Y-73569601I-135000J0D01*
G01*
X56900401Y-73569601D01*
G75*
G02*
X56765401Y-73434601I0J135000D01*
G01*
G37*
G36*
G01*
X57785401Y-73434601D02*
X57785401Y-73064601D01*
G75*
G02*
X57920401Y-72929601I135000J0D01*
G01*
X58190401Y-72929601D01*
G75*
G02*
X58325401Y-73064601I0J-135000D01*
G01*
X58325401Y-73434601D01*
G75*
G02*
X58190401Y-73569601I-135000J0D01*
G01*
X57920401Y-73569601D01*
G75*
G02*
X57785401Y-73434601I0J135000D01*
G01*
G37*
%TD*%
%TO.C,R7*%
G36*
G01*
X71165401Y-56534601D02*
X71165401Y-56164601D01*
G75*
G02*
X71300401Y-56029601I135000J0D01*
G01*
X71570401Y-56029601D01*
G75*
G02*
X71705401Y-56164601I0J-135000D01*
G01*
X71705401Y-56534601D01*
G75*
G02*
X71570401Y-56669601I-135000J0D01*
G01*
X71300401Y-56669601D01*
G75*
G02*
X71165401Y-56534601I0J135000D01*
G01*
G37*
G36*
G01*
X72185401Y-56534601D02*
X72185401Y-56164601D01*
G75*
G02*
X72320401Y-56029601I135000J0D01*
G01*
X72590401Y-56029601D01*
G75*
G02*
X72725401Y-56164601I0J-135000D01*
G01*
X72725401Y-56534601D01*
G75*
G02*
X72590401Y-56669601I-135000J0D01*
G01*
X72320401Y-56669601D01*
G75*
G02*
X72185401Y-56534601I0J135000D01*
G01*
G37*
%TD*%
%TO.C,R6*%
G36*
G01*
X56765401Y-71444601D02*
X56765401Y-71074601D01*
G75*
G02*
X56900401Y-70939601I135000J0D01*
G01*
X57170401Y-70939601D01*
G75*
G02*
X57305401Y-71074601I0J-135000D01*
G01*
X57305401Y-71444601D01*
G75*
G02*
X57170401Y-71579601I-135000J0D01*
G01*
X56900401Y-71579601D01*
G75*
G02*
X56765401Y-71444601I0J135000D01*
G01*
G37*
G36*
G01*
X57785401Y-71444601D02*
X57785401Y-71074601D01*
G75*
G02*
X57920401Y-70939601I135000J0D01*
G01*
X58190401Y-70939601D01*
G75*
G02*
X58325401Y-71074601I0J-135000D01*
G01*
X58325401Y-71444601D01*
G75*
G02*
X58190401Y-71579601I-135000J0D01*
G01*
X57920401Y-71579601D01*
G75*
G02*
X57785401Y-71444601I0J135000D01*
G01*
G37*
%TD*%
D13*
%TO.C,J9*%
X65615401Y-55689601D03*
D14*
X68155401Y-55689601D03*
X65615401Y-58229601D03*
X68155401Y-58229601D03*
X65615401Y-60769601D03*
X68155401Y-60769601D03*
%TD*%
D13*
%TO.C,J8*%
X65615401Y-65389601D03*
D14*
X68155401Y-65389601D03*
X65615401Y-67929601D03*
X68155401Y-67929601D03*
%TD*%
D13*
%TO.C,J7*%
X58415401Y-55689601D03*
D14*
X60955401Y-55689601D03*
X58415401Y-58229601D03*
X60955401Y-58229601D03*
X58415401Y-60769601D03*
X60955401Y-60769601D03*
X58415401Y-63309601D03*
X60955401Y-63309601D03*
%TD*%
D13*
%TO.C,J6*%
X51215401Y-55689601D03*
D14*
X53755401Y-55689601D03*
X51215401Y-58229601D03*
X53755401Y-58229601D03*
X51215401Y-60769601D03*
X53755401Y-60769601D03*
X51215401Y-63309601D03*
X53755401Y-63309601D03*
X51215401Y-65849601D03*
X53755401Y-65849601D03*
%TD*%
D13*
%TO.C,J5*%
X58415401Y-67939601D03*
D14*
X60955401Y-67939601D03*
%TD*%
D13*
%TO.C,J4*%
X51215401Y-70489601D03*
D14*
X53755401Y-70489601D03*
%TD*%
D13*
%TO.C,J3*%
X44015401Y-55689601D03*
D14*
X46555401Y-55689601D03*
X44015401Y-58229601D03*
X46555401Y-58229601D03*
X44015401Y-60769601D03*
X46555401Y-60769601D03*
X44015401Y-63309601D03*
X46555401Y-63309601D03*
X44015401Y-65849601D03*
X46555401Y-65849601D03*
X44015401Y-68389601D03*
X46555401Y-68389601D03*
X44015401Y-70929601D03*
X46555401Y-70929601D03*
X44015401Y-73469601D03*
X46555401Y-73469601D03*
%TD*%
%TO.C,C15*%
G36*
G01*
X125605000Y-130980000D02*
X125605000Y-130640000D01*
G75*
G02*
X125745000Y-130500000I140000J0D01*
G01*
X126025000Y-130500000D01*
G75*
G02*
X126165000Y-130640000I0J-140000D01*
G01*
X126165000Y-130980000D01*
G75*
G02*
X126025000Y-131120000I-140000J0D01*
G01*
X125745000Y-131120000D01*
G75*
G02*
X125605000Y-130980000I0J140000D01*
G01*
G37*
G36*
G01*
X126565000Y-130980000D02*
X126565000Y-130640000D01*
G75*
G02*
X126705000Y-130500000I140000J0D01*
G01*
X126985000Y-130500000D01*
G75*
G02*
X127125000Y-130640000I0J-140000D01*
G01*
X127125000Y-130980000D01*
G75*
G02*
X126985000Y-131120000I-140000J0D01*
G01*
X126705000Y-131120000D01*
G75*
G02*
X126565000Y-130980000I0J140000D01*
G01*
G37*
%TD*%
%TO.C,C6*%
G36*
G01*
X95039000Y-133701000D02*
X94699000Y-133701000D01*
G75*
G02*
X94559000Y-133561000I0J140000D01*
G01*
X94559000Y-133281000D01*
G75*
G02*
X94699000Y-133141000I140000J0D01*
G01*
X95039000Y-133141000D01*
G75*
G02*
X95179000Y-133281000I0J-140000D01*
G01*
X95179000Y-133561000D01*
G75*
G02*
X95039000Y-133701000I-140000J0D01*
G01*
G37*
G36*
G01*
X95039000Y-132741000D02*
X94699000Y-132741000D01*
G75*
G02*
X94559000Y-132601000I0J140000D01*
G01*
X94559000Y-132321000D01*
G75*
G02*
X94699000Y-132181000I140000J0D01*
G01*
X95039000Y-132181000D01*
G75*
G02*
X95179000Y-132321000I0J-140000D01*
G01*
X95179000Y-132601000D01*
G75*
G02*
X95039000Y-132741000I-140000J0D01*
G01*
G37*
%TD*%
%TO.C,C5*%
G36*
G01*
X77063401Y-119744601D02*
X77063401Y-119404601D01*
G75*
G02*
X77203401Y-119264601I140000J0D01*
G01*
X77483401Y-119264601D01*
G75*
G02*
X77623401Y-119404601I0J-140000D01*
G01*
X77623401Y-119744601D01*
G75*
G02*
X77483401Y-119884601I-140000J0D01*
G01*
X77203401Y-119884601D01*
G75*
G02*
X77063401Y-119744601I0J140000D01*
G01*
G37*
G36*
G01*
X78023401Y-119744601D02*
X78023401Y-119404601D01*
G75*
G02*
X78163401Y-119264601I140000J0D01*
G01*
X78443401Y-119264601D01*
G75*
G02*
X78583401Y-119404601I0J-140000D01*
G01*
X78583401Y-119744601D01*
G75*
G02*
X78443401Y-119884601I-140000J0D01*
G01*
X78163401Y-119884601D01*
G75*
G02*
X78023401Y-119744601I0J140000D01*
G01*
G37*
%TD*%
%TO.C,C4*%
G36*
G01*
X104303193Y-145900391D02*
X104543609Y-146140807D01*
G75*
G02*
X104543609Y-146338797I-98995J-98995D01*
G01*
X104345619Y-146536787D01*
G75*
G02*
X104147629Y-146536787I-98995J98995D01*
G01*
X103907213Y-146296371D01*
G75*
G02*
X103907213Y-146098381I98995J98995D01*
G01*
X104105203Y-145900391D01*
G75*
G02*
X104303193Y-145900391I98995J-98995D01*
G01*
G37*
G36*
G01*
X103624371Y-146579213D02*
X103864787Y-146819629D01*
G75*
G02*
X103864787Y-147017619I-98995J-98995D01*
G01*
X103666797Y-147215609D01*
G75*
G02*
X103468807Y-147215609I-98995J98995D01*
G01*
X103228391Y-146975193D01*
G75*
G02*
X103228391Y-146777203I98995J98995D01*
G01*
X103426381Y-146579213D01*
G75*
G02*
X103624371Y-146579213I98995J-98995D01*
G01*
G37*
%TD*%
%TO.C,C3*%
G36*
G01*
X111971000Y-146052000D02*
X112311000Y-146052000D01*
G75*
G02*
X112451000Y-146192000I0J-140000D01*
G01*
X112451000Y-146472000D01*
G75*
G02*
X112311000Y-146612000I-140000J0D01*
G01*
X111971000Y-146612000D01*
G75*
G02*
X111831000Y-146472000I0J140000D01*
G01*
X111831000Y-146192000D01*
G75*
G02*
X111971000Y-146052000I140000J0D01*
G01*
G37*
G36*
G01*
X111971000Y-147012000D02*
X112311000Y-147012000D01*
G75*
G02*
X112451000Y-147152000I0J-140000D01*
G01*
X112451000Y-147432000D01*
G75*
G02*
X112311000Y-147572000I-140000J0D01*
G01*
X111971000Y-147572000D01*
G75*
G02*
X111831000Y-147432000I0J140000D01*
G01*
X111831000Y-147152000D01*
G75*
G02*
X111971000Y-147012000I140000J0D01*
G01*
G37*
%TD*%
%TO.C,C2*%
G36*
G01*
X49665401Y-75139602D02*
X49665401Y-73839600D01*
G75*
G02*
X49915400Y-73589601I249999J0D01*
G01*
X50565402Y-73589601D01*
G75*
G02*
X50815401Y-73839600I0J-249999D01*
G01*
X50815401Y-75139602D01*
G75*
G02*
X50565402Y-75389601I-249999J0D01*
G01*
X49915400Y-75389601D01*
G75*
G02*
X49665401Y-75139602I0J249999D01*
G01*
G37*
G36*
G01*
X52615401Y-75139602D02*
X52615401Y-73839600D01*
G75*
G02*
X52865400Y-73589601I249999J0D01*
G01*
X53515402Y-73589601D01*
G75*
G02*
X53765401Y-73839600I0J-249999D01*
G01*
X53765401Y-75139602D01*
G75*
G02*
X53515402Y-75389601I-249999J0D01*
G01*
X52865400Y-75389601D01*
G75*
G02*
X52615401Y-75139602I0J249999D01*
G01*
G37*
%TD*%
D15*
%TO.C,J2*%
X177770000Y-117730000D03*
X177770000Y-120020000D03*
X177770000Y-108590000D03*
X177770000Y-106300000D03*
X182570000Y-116730000D03*
X184350000Y-115710000D03*
X182570000Y-114690000D03*
X184350000Y-113670000D03*
X182570000Y-112650000D03*
X184350000Y-111630000D03*
X182570000Y-110610000D03*
X184350000Y-109590000D03*
D16*
X183330000Y-121360000D03*
X183330000Y-104960000D03*
D17*
X186890000Y-119510000D03*
X186890000Y-106810000D03*
%TD*%
D18*
%TO.C,H2*%
X191770000Y-162179000D03*
%TD*%
%TO.C,H1*%
X36703000Y-90551000D03*
%TD*%
D19*
%TO.C,Y1*%
X127469000Y-122598000D03*
X127469000Y-124798000D03*
X125769000Y-124798000D03*
X125769000Y-122598000D03*
%TD*%
D20*
%TO.C,U3*%
X81700000Y-149265000D03*
X43600000Y-134025000D03*
X79160000Y-149265000D03*
X46140000Y-134025000D03*
X76620000Y-149265000D03*
X48680000Y-134025000D03*
X74080000Y-149265000D03*
X51220000Y-134025000D03*
X71540000Y-149265000D03*
X53760000Y-134025000D03*
X69000000Y-149265000D03*
X56300000Y-134025000D03*
X66460000Y-149265000D03*
X58840000Y-134025000D03*
X63920000Y-149265000D03*
X61380000Y-134025000D03*
X61380000Y-149265000D03*
X63920000Y-134025000D03*
X58840000Y-149265000D03*
X66460000Y-134025000D03*
X56300000Y-149265000D03*
X69000000Y-134025000D03*
X53760000Y-149265000D03*
X71540000Y-134025000D03*
X51220000Y-149265000D03*
X74080000Y-134025000D03*
X48680000Y-149265000D03*
X76620000Y-134025000D03*
X46140000Y-149265000D03*
X79160000Y-134025000D03*
X43600000Y-149265000D03*
D21*
X81700000Y-134025000D03*
%TD*%
%TO.C,U2*%
G36*
G01*
X100480000Y-116737000D02*
X100180000Y-116737000D01*
G75*
G02*
X100030000Y-116587000I0J150000D01*
G01*
X100030000Y-114937000D01*
G75*
G02*
X100180000Y-114787000I150000J0D01*
G01*
X100480000Y-114787000D01*
G75*
G02*
X100630000Y-114937000I0J-150000D01*
G01*
X100630000Y-116587000D01*
G75*
G02*
X100480000Y-116737000I-150000J0D01*
G01*
G37*
G36*
G01*
X101750000Y-116737000D02*
X101450000Y-116737000D01*
G75*
G02*
X101300000Y-116587000I0J150000D01*
G01*
X101300000Y-114937000D01*
G75*
G02*
X101450000Y-114787000I150000J0D01*
G01*
X101750000Y-114787000D01*
G75*
G02*
X101900000Y-114937000I0J-150000D01*
G01*
X101900000Y-116587000D01*
G75*
G02*
X101750000Y-116737000I-150000J0D01*
G01*
G37*
G36*
G01*
X103020000Y-116737000D02*
X102720000Y-116737000D01*
G75*
G02*
X102570000Y-116587000I0J150000D01*
G01*
X102570000Y-114937000D01*
G75*
G02*
X102720000Y-114787000I150000J0D01*
G01*
X103020000Y-114787000D01*
G75*
G02*
X103170000Y-114937000I0J-150000D01*
G01*
X103170000Y-116587000D01*
G75*
G02*
X103020000Y-116737000I-150000J0D01*
G01*
G37*
G36*
G01*
X104290000Y-116737000D02*
X103990000Y-116737000D01*
G75*
G02*
X103840000Y-116587000I0J150000D01*
G01*
X103840000Y-114937000D01*
G75*
G02*
X103990000Y-114787000I150000J0D01*
G01*
X104290000Y-114787000D01*
G75*
G02*
X104440000Y-114937000I0J-150000D01*
G01*
X104440000Y-116587000D01*
G75*
G02*
X104290000Y-116737000I-150000J0D01*
G01*
G37*
G36*
G01*
X104290000Y-121687000D02*
X103990000Y-121687000D01*
G75*
G02*
X103840000Y-121537000I0J150000D01*
G01*
X103840000Y-119887000D01*
G75*
G02*
X103990000Y-119737000I150000J0D01*
G01*
X104290000Y-119737000D01*
G75*
G02*
X104440000Y-119887000I0J-150000D01*
G01*
X104440000Y-121537000D01*
G75*
G02*
X104290000Y-121687000I-150000J0D01*
G01*
G37*
G36*
G01*
X103020000Y-121687000D02*
X102720000Y-121687000D01*
G75*
G02*
X102570000Y-121537000I0J150000D01*
G01*
X102570000Y-119887000D01*
G75*
G02*
X102720000Y-119737000I150000J0D01*
G01*
X103020000Y-119737000D01*
G75*
G02*
X103170000Y-119887000I0J-150000D01*
G01*
X103170000Y-121537000D01*
G75*
G02*
X103020000Y-121687000I-150000J0D01*
G01*
G37*
G36*
G01*
X101750000Y-121687000D02*
X101450000Y-121687000D01*
G75*
G02*
X101300000Y-121537000I0J150000D01*
G01*
X101300000Y-119887000D01*
G75*
G02*
X101450000Y-119737000I150000J0D01*
G01*
X101750000Y-119737000D01*
G75*
G02*
X101900000Y-119887000I0J-150000D01*
G01*
X101900000Y-121537000D01*
G75*
G02*
X101750000Y-121687000I-150000J0D01*
G01*
G37*
G36*
G01*
X100480000Y-121687000D02*
X100180000Y-121687000D01*
G75*
G02*
X100030000Y-121537000I0J150000D01*
G01*
X100030000Y-119887000D01*
G75*
G02*
X100180000Y-119737000I150000J0D01*
G01*
X100480000Y-119737000D01*
G75*
G02*
X100630000Y-119887000I0J-150000D01*
G01*
X100630000Y-121537000D01*
G75*
G02*
X100480000Y-121687000I-150000J0D01*
G01*
G37*
%TD*%
%TO.C,U1*%
G36*
G01*
X119375000Y-126850000D02*
X119175000Y-126850000D01*
G75*
G02*
X119075000Y-126750000I0J100000D01*
G01*
X119075000Y-125200000D01*
G75*
G02*
X119175000Y-125100000I100000J0D01*
G01*
X119375000Y-125100000D01*
G75*
G02*
X119475000Y-125200000I0J-100000D01*
G01*
X119475000Y-126750000D01*
G75*
G02*
X119375000Y-126850000I-100000J0D01*
G01*
G37*
G36*
G01*
X124050000Y-129025000D02*
X122500000Y-129025000D01*
G75*
G02*
X122400000Y-128925000I0J100000D01*
G01*
X122400000Y-128725000D01*
G75*
G02*
X122500000Y-128625000I100000J0D01*
G01*
X124050000Y-128625000D01*
G75*
G02*
X124150000Y-128725000I0J-100000D01*
G01*
X124150000Y-128925000D01*
G75*
G02*
X124050000Y-129025000I-100000J0D01*
G01*
G37*
G36*
G01*
X120675000Y-126850000D02*
X120475000Y-126850000D01*
G75*
G02*
X120375000Y-126750000I0J100000D01*
G01*
X120375000Y-125200000D01*
G75*
G02*
X120475000Y-125100000I100000J0D01*
G01*
X120675000Y-125100000D01*
G75*
G02*
X120775000Y-125200000I0J-100000D01*
G01*
X120775000Y-126750000D01*
G75*
G02*
X120675000Y-126850000I-100000J0D01*
G01*
G37*
G36*
G01*
X118075000Y-126850000D02*
X117875000Y-126850000D01*
G75*
G02*
X117775000Y-126750000I0J100000D01*
G01*
X117775000Y-125200000D01*
G75*
G02*
X117875000Y-125100000I100000J0D01*
G01*
X118075000Y-125100000D01*
G75*
G02*
X118175000Y-125200000I0J-100000D01*
G01*
X118175000Y-126750000D01*
G75*
G02*
X118075000Y-126850000I-100000J0D01*
G01*
G37*
G36*
G01*
X116775000Y-126850000D02*
X116575000Y-126850000D01*
G75*
G02*
X116475000Y-126750000I0J100000D01*
G01*
X116475000Y-125200000D01*
G75*
G02*
X116575000Y-125100000I100000J0D01*
G01*
X116775000Y-125100000D01*
G75*
G02*
X116875000Y-125200000I0J-100000D01*
G01*
X116875000Y-126750000D01*
G75*
G02*
X116775000Y-126850000I-100000J0D01*
G01*
G37*
G36*
G01*
X118725000Y-126850000D02*
X118525000Y-126850000D01*
G75*
G02*
X118425000Y-126750000I0J100000D01*
G01*
X118425000Y-125200000D01*
G75*
G02*
X118525000Y-125100000I100000J0D01*
G01*
X118725000Y-125100000D01*
G75*
G02*
X118825000Y-125200000I0J-100000D01*
G01*
X118825000Y-126750000D01*
G75*
G02*
X118725000Y-126850000I-100000J0D01*
G01*
G37*
G36*
G01*
X124050000Y-138775000D02*
X122500000Y-138775000D01*
G75*
G02*
X122400000Y-138675000I0J100000D01*
G01*
X122400000Y-138475000D01*
G75*
G02*
X122500000Y-138375000I100000J0D01*
G01*
X124050000Y-138375000D01*
G75*
G02*
X124150000Y-138475000I0J-100000D01*
G01*
X124150000Y-138675000D01*
G75*
G02*
X124050000Y-138775000I-100000J0D01*
G01*
G37*
G36*
G01*
X124050000Y-130975000D02*
X122500000Y-130975000D01*
G75*
G02*
X122400000Y-130875000I0J100000D01*
G01*
X122400000Y-130675000D01*
G75*
G02*
X122500000Y-130575000I100000J0D01*
G01*
X124050000Y-130575000D01*
G75*
G02*
X124150000Y-130675000I0J-100000D01*
G01*
X124150000Y-130875000D01*
G75*
G02*
X124050000Y-130975000I-100000J0D01*
G01*
G37*
G36*
G01*
X105725000Y-144900000D02*
X105525000Y-144900000D01*
G75*
G02*
X105425000Y-144800000I0J100000D01*
G01*
X105425000Y-143250000D01*
G75*
G02*
X105525000Y-143150000I100000J0D01*
G01*
X105725000Y-143150000D01*
G75*
G02*
X105825000Y-143250000I0J-100000D01*
G01*
X105825000Y-144800000D01*
G75*
G02*
X105725000Y-144900000I-100000J0D01*
G01*
G37*
G36*
G01*
X105075000Y-144900000D02*
X104875000Y-144900000D01*
G75*
G02*
X104775000Y-144800000I0J100000D01*
G01*
X104775000Y-143250000D01*
G75*
G02*
X104875000Y-143150000I100000J0D01*
G01*
X105075000Y-143150000D01*
G75*
G02*
X105175000Y-143250000I0J-100000D01*
G01*
X105175000Y-144800000D01*
G75*
G02*
X105075000Y-144900000I-100000J0D01*
G01*
G37*
G36*
G01*
X104425000Y-144900000D02*
X104225000Y-144900000D01*
G75*
G02*
X104125000Y-144800000I0J100000D01*
G01*
X104125000Y-143250000D01*
G75*
G02*
X104225000Y-143150000I100000J0D01*
G01*
X104425000Y-143150000D01*
G75*
G02*
X104525000Y-143250000I0J-100000D01*
G01*
X104525000Y-144800000D01*
G75*
G02*
X104425000Y-144900000I-100000J0D01*
G01*
G37*
G36*
G01*
X113525000Y-126850000D02*
X113325000Y-126850000D01*
G75*
G02*
X113225000Y-126750000I0J100000D01*
G01*
X113225000Y-125200000D01*
G75*
G02*
X113325000Y-125100000I100000J0D01*
G01*
X113525000Y-125100000D01*
G75*
G02*
X113625000Y-125200000I0J-100000D01*
G01*
X113625000Y-126750000D01*
G75*
G02*
X113525000Y-126850000I-100000J0D01*
G01*
G37*
G36*
G01*
X111575000Y-126850000D02*
X111375000Y-126850000D01*
G75*
G02*
X111275000Y-126750000I0J100000D01*
G01*
X111275000Y-125200000D01*
G75*
G02*
X111375000Y-125100000I100000J0D01*
G01*
X111575000Y-125100000D01*
G75*
G02*
X111675000Y-125200000I0J-100000D01*
G01*
X111675000Y-126750000D01*
G75*
G02*
X111575000Y-126850000I-100000J0D01*
G01*
G37*
G36*
G01*
X117425000Y-144900000D02*
X117225000Y-144900000D01*
G75*
G02*
X117125000Y-144800000I0J100000D01*
G01*
X117125000Y-143250000D01*
G75*
G02*
X117225000Y-143150000I100000J0D01*
G01*
X117425000Y-143150000D01*
G75*
G02*
X117525000Y-143250000I0J-100000D01*
G01*
X117525000Y-144800000D01*
G75*
G02*
X117425000Y-144900000I-100000J0D01*
G01*
G37*
G36*
G01*
X107025000Y-144900000D02*
X106825000Y-144900000D01*
G75*
G02*
X106725000Y-144800000I0J100000D01*
G01*
X106725000Y-143250000D01*
G75*
G02*
X106825000Y-143150000I100000J0D01*
G01*
X107025000Y-143150000D01*
G75*
G02*
X107125000Y-143250000I0J-100000D01*
G01*
X107125000Y-144800000D01*
G75*
G02*
X107025000Y-144900000I-100000J0D01*
G01*
G37*
G36*
G01*
X118725000Y-144900000D02*
X118525000Y-144900000D01*
G75*
G02*
X118425000Y-144800000I0J100000D01*
G01*
X118425000Y-143250000D01*
G75*
G02*
X118525000Y-143150000I100000J0D01*
G01*
X118725000Y-143150000D01*
G75*
G02*
X118825000Y-143250000I0J-100000D01*
G01*
X118825000Y-144800000D01*
G75*
G02*
X118725000Y-144900000I-100000J0D01*
G01*
G37*
G36*
G01*
X118075000Y-144900000D02*
X117875000Y-144900000D01*
G75*
G02*
X117775000Y-144800000I0J100000D01*
G01*
X117775000Y-143250000D01*
G75*
G02*
X117875000Y-143150000I100000J0D01*
G01*
X118075000Y-143150000D01*
G75*
G02*
X118175000Y-143250000I0J-100000D01*
G01*
X118175000Y-144800000D01*
G75*
G02*
X118075000Y-144900000I-100000J0D01*
G01*
G37*
G36*
G01*
X124050000Y-132925000D02*
X122500000Y-132925000D01*
G75*
G02*
X122400000Y-132825000I0J100000D01*
G01*
X122400000Y-132625000D01*
G75*
G02*
X122500000Y-132525000I100000J0D01*
G01*
X124050000Y-132525000D01*
G75*
G02*
X124150000Y-132625000I0J-100000D01*
G01*
X124150000Y-132825000D01*
G75*
G02*
X124050000Y-132925000I-100000J0D01*
G01*
G37*
G36*
G01*
X108325000Y-126850000D02*
X108125000Y-126850000D01*
G75*
G02*
X108025000Y-126750000I0J100000D01*
G01*
X108025000Y-125200000D01*
G75*
G02*
X108125000Y-125100000I100000J0D01*
G01*
X108325000Y-125100000D01*
G75*
G02*
X108425000Y-125200000I0J-100000D01*
G01*
X108425000Y-126750000D01*
G75*
G02*
X108325000Y-126850000I-100000J0D01*
G01*
G37*
G36*
G01*
X114825000Y-144900000D02*
X114625000Y-144900000D01*
G75*
G02*
X114525000Y-144800000I0J100000D01*
G01*
X114525000Y-143250000D01*
G75*
G02*
X114625000Y-143150000I100000J0D01*
G01*
X114825000Y-143150000D01*
G75*
G02*
X114925000Y-143250000I0J-100000D01*
G01*
X114925000Y-144800000D01*
G75*
G02*
X114825000Y-144900000I-100000J0D01*
G01*
G37*
G36*
G01*
X124050000Y-134225000D02*
X122500000Y-134225000D01*
G75*
G02*
X122400000Y-134125000I0J100000D01*
G01*
X122400000Y-133925000D01*
G75*
G02*
X122500000Y-133825000I100000J0D01*
G01*
X124050000Y-133825000D01*
G75*
G02*
X124150000Y-133925000I0J-100000D01*
G01*
X124150000Y-134125000D01*
G75*
G02*
X124050000Y-134225000I-100000J0D01*
G01*
G37*
G36*
G01*
X99900000Y-130325000D02*
X98350000Y-130325000D01*
G75*
G02*
X98250000Y-130225000I0J100000D01*
G01*
X98250000Y-130025000D01*
G75*
G02*
X98350000Y-129925000I100000J0D01*
G01*
X99900000Y-129925000D01*
G75*
G02*
X100000000Y-130025000I0J-100000D01*
G01*
X100000000Y-130225000D01*
G75*
G02*
X99900000Y-130325000I-100000J0D01*
G01*
G37*
G36*
G01*
X102475000Y-144900000D02*
X102275000Y-144900000D01*
G75*
G02*
X102175000Y-144800000I0J100000D01*
G01*
X102175000Y-143250000D01*
G75*
G02*
X102275000Y-143150000I100000J0D01*
G01*
X102475000Y-143150000D01*
G75*
G02*
X102575000Y-143250000I0J-100000D01*
G01*
X102575000Y-144800000D01*
G75*
G02*
X102475000Y-144900000I-100000J0D01*
G01*
G37*
G36*
G01*
X108325000Y-144900000D02*
X108125000Y-144900000D01*
G75*
G02*
X108025000Y-144800000I0J100000D01*
G01*
X108025000Y-143250000D01*
G75*
G02*
X108125000Y-143150000I100000J0D01*
G01*
X108325000Y-143150000D01*
G75*
G02*
X108425000Y-143250000I0J-100000D01*
G01*
X108425000Y-144800000D01*
G75*
G02*
X108325000Y-144900000I-100000J0D01*
G01*
G37*
G36*
G01*
X116125000Y-126850000D02*
X115925000Y-126850000D01*
G75*
G02*
X115825000Y-126750000I0J100000D01*
G01*
X115825000Y-125200000D01*
G75*
G02*
X115925000Y-125100000I100000J0D01*
G01*
X116125000Y-125100000D01*
G75*
G02*
X116225000Y-125200000I0J-100000D01*
G01*
X116225000Y-126750000D01*
G75*
G02*
X116125000Y-126850000I-100000J0D01*
G01*
G37*
G36*
G01*
X124050000Y-132275000D02*
X122500000Y-132275000D01*
G75*
G02*
X122400000Y-132175000I0J100000D01*
G01*
X122400000Y-131975000D01*
G75*
G02*
X122500000Y-131875000I100000J0D01*
G01*
X124050000Y-131875000D01*
G75*
G02*
X124150000Y-131975000I0J-100000D01*
G01*
X124150000Y-132175000D01*
G75*
G02*
X124050000Y-132275000I-100000J0D01*
G01*
G37*
G36*
G01*
X103775000Y-144900000D02*
X103575000Y-144900000D01*
G75*
G02*
X103475000Y-144800000I0J100000D01*
G01*
X103475000Y-143250000D01*
G75*
G02*
X103575000Y-143150000I100000J0D01*
G01*
X103775000Y-143150000D01*
G75*
G02*
X103875000Y-143250000I0J-100000D01*
G01*
X103875000Y-144800000D01*
G75*
G02*
X103775000Y-144900000I-100000J0D01*
G01*
G37*
G36*
G01*
X124050000Y-137475000D02*
X122500000Y-137475000D01*
G75*
G02*
X122400000Y-137375000I0J100000D01*
G01*
X122400000Y-137175000D01*
G75*
G02*
X122500000Y-137075000I100000J0D01*
G01*
X124050000Y-137075000D01*
G75*
G02*
X124150000Y-137175000I0J-100000D01*
G01*
X124150000Y-137375000D01*
G75*
G02*
X124050000Y-137475000I-100000J0D01*
G01*
G37*
G36*
G01*
X108975000Y-144900000D02*
X108775000Y-144900000D01*
G75*
G02*
X108675000Y-144800000I0J100000D01*
G01*
X108675000Y-143250000D01*
G75*
G02*
X108775000Y-143150000I100000J0D01*
G01*
X108975000Y-143150000D01*
G75*
G02*
X109075000Y-143250000I0J-100000D01*
G01*
X109075000Y-144800000D01*
G75*
G02*
X108975000Y-144900000I-100000J0D01*
G01*
G37*
G36*
G01*
X124050000Y-136825000D02*
X122500000Y-136825000D01*
G75*
G02*
X122400000Y-136725000I0J100000D01*
G01*
X122400000Y-136525000D01*
G75*
G02*
X122500000Y-136425000I100000J0D01*
G01*
X124050000Y-136425000D01*
G75*
G02*
X124150000Y-136525000I0J-100000D01*
G01*
X124150000Y-136725000D01*
G75*
G02*
X124050000Y-136825000I-100000J0D01*
G01*
G37*
G36*
G01*
X124050000Y-136175000D02*
X122500000Y-136175000D01*
G75*
G02*
X122400000Y-136075000I0J100000D01*
G01*
X122400000Y-135875000D01*
G75*
G02*
X122500000Y-135775000I100000J0D01*
G01*
X124050000Y-135775000D01*
G75*
G02*
X124150000Y-135875000I0J-100000D01*
G01*
X124150000Y-136075000D01*
G75*
G02*
X124050000Y-136175000I-100000J0D01*
G01*
G37*
G36*
G01*
X124050000Y-135525000D02*
X122500000Y-135525000D01*
G75*
G02*
X122400000Y-135425000I0J100000D01*
G01*
X122400000Y-135225000D01*
G75*
G02*
X122500000Y-135125000I100000J0D01*
G01*
X124050000Y-135125000D01*
G75*
G02*
X124150000Y-135225000I0J-100000D01*
G01*
X124150000Y-135425000D01*
G75*
G02*
X124050000Y-135525000I-100000J0D01*
G01*
G37*
G36*
G01*
X124050000Y-134875000D02*
X122500000Y-134875000D01*
G75*
G02*
X122400000Y-134775000I0J100000D01*
G01*
X122400000Y-134575000D01*
G75*
G02*
X122500000Y-134475000I100000J0D01*
G01*
X124050000Y-134475000D01*
G75*
G02*
X124150000Y-134575000I0J-100000D01*
G01*
X124150000Y-134775000D01*
G75*
G02*
X124050000Y-134875000I-100000J0D01*
G01*
G37*
G36*
G01*
X114175000Y-126850000D02*
X113975000Y-126850000D01*
G75*
G02*
X113875000Y-126750000I0J100000D01*
G01*
X113875000Y-125200000D01*
G75*
G02*
X113975000Y-125100000I100000J0D01*
G01*
X114175000Y-125100000D01*
G75*
G02*
X114275000Y-125200000I0J-100000D01*
G01*
X114275000Y-126750000D01*
G75*
G02*
X114175000Y-126850000I-100000J0D01*
G01*
G37*
G36*
G01*
X99900000Y-129025000D02*
X98350000Y-129025000D01*
G75*
G02*
X98250000Y-128925000I0J100000D01*
G01*
X98250000Y-128725000D01*
G75*
G02*
X98350000Y-128625000I100000J0D01*
G01*
X99900000Y-128625000D01*
G75*
G02*
X100000000Y-128725000I0J-100000D01*
G01*
X100000000Y-128925000D01*
G75*
G02*
X99900000Y-129025000I-100000J0D01*
G01*
G37*
G36*
G01*
X112225000Y-126850000D02*
X112025000Y-126850000D01*
G75*
G02*
X111925000Y-126750000I0J100000D01*
G01*
X111925000Y-125200000D01*
G75*
G02*
X112025000Y-125100000I100000J0D01*
G01*
X112225000Y-125100000D01*
G75*
G02*
X112325000Y-125200000I0J-100000D01*
G01*
X112325000Y-126750000D01*
G75*
G02*
X112225000Y-126850000I-100000J0D01*
G01*
G37*
G36*
G01*
X112875000Y-126850000D02*
X112675000Y-126850000D01*
G75*
G02*
X112575000Y-126750000I0J100000D01*
G01*
X112575000Y-125200000D01*
G75*
G02*
X112675000Y-125100000I100000J0D01*
G01*
X112875000Y-125100000D01*
G75*
G02*
X112975000Y-125200000I0J-100000D01*
G01*
X112975000Y-126750000D01*
G75*
G02*
X112875000Y-126850000I-100000J0D01*
G01*
G37*
G36*
G01*
X119375000Y-144900000D02*
X119175000Y-144900000D01*
G75*
G02*
X119075000Y-144800000I0J100000D01*
G01*
X119075000Y-143250000D01*
G75*
G02*
X119175000Y-143150000I100000J0D01*
G01*
X119375000Y-143150000D01*
G75*
G02*
X119475000Y-143250000I0J-100000D01*
G01*
X119475000Y-144800000D01*
G75*
G02*
X119375000Y-144900000I-100000J0D01*
G01*
G37*
G36*
G01*
X107025000Y-126850000D02*
X106825000Y-126850000D01*
G75*
G02*
X106725000Y-126750000I0J100000D01*
G01*
X106725000Y-125200000D01*
G75*
G02*
X106825000Y-125100000I100000J0D01*
G01*
X107025000Y-125100000D01*
G75*
G02*
X107125000Y-125200000I0J-100000D01*
G01*
X107125000Y-126750000D01*
G75*
G02*
X107025000Y-126850000I-100000J0D01*
G01*
G37*
G36*
G01*
X108975000Y-126850000D02*
X108775000Y-126850000D01*
G75*
G02*
X108675000Y-126750000I0J100000D01*
G01*
X108675000Y-125200000D01*
G75*
G02*
X108775000Y-125100000I100000J0D01*
G01*
X108975000Y-125100000D01*
G75*
G02*
X109075000Y-125200000I0J-100000D01*
G01*
X109075000Y-126750000D01*
G75*
G02*
X108975000Y-126850000I-100000J0D01*
G01*
G37*
G36*
G01*
X107675000Y-144900000D02*
X107475000Y-144900000D01*
G75*
G02*
X107375000Y-144800000I0J100000D01*
G01*
X107375000Y-143250000D01*
G75*
G02*
X107475000Y-143150000I100000J0D01*
G01*
X107675000Y-143150000D01*
G75*
G02*
X107775000Y-143250000I0J-100000D01*
G01*
X107775000Y-144800000D01*
G75*
G02*
X107675000Y-144900000I-100000J0D01*
G01*
G37*
G36*
G01*
X116775000Y-144900000D02*
X116575000Y-144900000D01*
G75*
G02*
X116475000Y-144800000I0J100000D01*
G01*
X116475000Y-143250000D01*
G75*
G02*
X116575000Y-143150000I100000J0D01*
G01*
X116775000Y-143150000D01*
G75*
G02*
X116875000Y-143250000I0J-100000D01*
G01*
X116875000Y-144800000D01*
G75*
G02*
X116775000Y-144900000I-100000J0D01*
G01*
G37*
G36*
G01*
X99900000Y-129675000D02*
X98350000Y-129675000D01*
G75*
G02*
X98250000Y-129575000I0J100000D01*
G01*
X98250000Y-129375000D01*
G75*
G02*
X98350000Y-129275000I100000J0D01*
G01*
X99900000Y-129275000D01*
G75*
G02*
X100000000Y-129375000I0J-100000D01*
G01*
X100000000Y-129575000D01*
G75*
G02*
X99900000Y-129675000I-100000J0D01*
G01*
G37*
G36*
G01*
X116125000Y-144900000D02*
X115925000Y-144900000D01*
G75*
G02*
X115825000Y-144800000I0J100000D01*
G01*
X115825000Y-143250000D01*
G75*
G02*
X115925000Y-143150000I100000J0D01*
G01*
X116125000Y-143150000D01*
G75*
G02*
X116225000Y-143250000I0J-100000D01*
G01*
X116225000Y-144800000D01*
G75*
G02*
X116125000Y-144900000I-100000J0D01*
G01*
G37*
G36*
G01*
X115475000Y-144900000D02*
X115275000Y-144900000D01*
G75*
G02*
X115175000Y-144800000I0J100000D01*
G01*
X115175000Y-143250000D01*
G75*
G02*
X115275000Y-143150000I100000J0D01*
G01*
X115475000Y-143150000D01*
G75*
G02*
X115575000Y-143250000I0J-100000D01*
G01*
X115575000Y-144800000D01*
G75*
G02*
X115475000Y-144900000I-100000J0D01*
G01*
G37*
G36*
G01*
X101825000Y-144900000D02*
X101625000Y-144900000D01*
G75*
G02*
X101525000Y-144800000I0J100000D01*
G01*
X101525000Y-143250000D01*
G75*
G02*
X101625000Y-143150000I100000J0D01*
G01*
X101825000Y-143150000D01*
G75*
G02*
X101925000Y-143250000I0J-100000D01*
G01*
X101925000Y-144800000D01*
G75*
G02*
X101825000Y-144900000I-100000J0D01*
G01*
G37*
G36*
G01*
X106375000Y-144900000D02*
X106175000Y-144900000D01*
G75*
G02*
X106075000Y-144800000I0J100000D01*
G01*
X106075000Y-143250000D01*
G75*
G02*
X106175000Y-143150000I100000J0D01*
G01*
X106375000Y-143150000D01*
G75*
G02*
X106475000Y-143250000I0J-100000D01*
G01*
X106475000Y-144800000D01*
G75*
G02*
X106375000Y-144900000I-100000J0D01*
G01*
G37*
G36*
G01*
X106375000Y-126850000D02*
X106175000Y-126850000D01*
G75*
G02*
X106075000Y-126750000I0J100000D01*
G01*
X106075000Y-125200000D01*
G75*
G02*
X106175000Y-125100000I100000J0D01*
G01*
X106375000Y-125100000D01*
G75*
G02*
X106475000Y-125200000I0J-100000D01*
G01*
X106475000Y-126750000D01*
G75*
G02*
X106375000Y-126850000I-100000J0D01*
G01*
G37*
G36*
G01*
X107675000Y-126850000D02*
X107475000Y-126850000D01*
G75*
G02*
X107375000Y-126750000I0J100000D01*
G01*
X107375000Y-125200000D01*
G75*
G02*
X107475000Y-125100000I100000J0D01*
G01*
X107675000Y-125100000D01*
G75*
G02*
X107775000Y-125200000I0J-100000D01*
G01*
X107775000Y-126750000D01*
G75*
G02*
X107675000Y-126850000I-100000J0D01*
G01*
G37*
G36*
G01*
X124050000Y-133575000D02*
X122500000Y-133575000D01*
G75*
G02*
X122400000Y-133475000I0J100000D01*
G01*
X122400000Y-133275000D01*
G75*
G02*
X122500000Y-133175000I100000J0D01*
G01*
X124050000Y-133175000D01*
G75*
G02*
X124150000Y-133275000I0J-100000D01*
G01*
X124150000Y-133475000D01*
G75*
G02*
X124050000Y-133575000I-100000J0D01*
G01*
G37*
G36*
G01*
X117425000Y-126850000D02*
X117225000Y-126850000D01*
G75*
G02*
X117125000Y-126750000I0J100000D01*
G01*
X117125000Y-125200000D01*
G75*
G02*
X117225000Y-125100000I100000J0D01*
G01*
X117425000Y-125100000D01*
G75*
G02*
X117525000Y-125200000I0J-100000D01*
G01*
X117525000Y-126750000D01*
G75*
G02*
X117425000Y-126850000I-100000J0D01*
G01*
G37*
G36*
G01*
X99900000Y-130975000D02*
X98350000Y-130975000D01*
G75*
G02*
X98250000Y-130875000I0J100000D01*
G01*
X98250000Y-130675000D01*
G75*
G02*
X98350000Y-130575000I100000J0D01*
G01*
X99900000Y-130575000D01*
G75*
G02*
X100000000Y-130675000I0J-100000D01*
G01*
X100000000Y-130875000D01*
G75*
G02*
X99900000Y-130975000I-100000J0D01*
G01*
G37*
G36*
G01*
X114175000Y-144900000D02*
X113975000Y-144900000D01*
G75*
G02*
X113875000Y-144800000I0J100000D01*
G01*
X113875000Y-143250000D01*
G75*
G02*
X113975000Y-143150000I100000J0D01*
G01*
X114175000Y-143150000D01*
G75*
G02*
X114275000Y-143250000I0J-100000D01*
G01*
X114275000Y-144800000D01*
G75*
G02*
X114175000Y-144900000I-100000J0D01*
G01*
G37*
G36*
G01*
X105725000Y-126850000D02*
X105525000Y-126850000D01*
G75*
G02*
X105425000Y-126750000I0J100000D01*
G01*
X105425000Y-125200000D01*
G75*
G02*
X105525000Y-125100000I100000J0D01*
G01*
X105725000Y-125100000D01*
G75*
G02*
X105825000Y-125200000I0J-100000D01*
G01*
X105825000Y-126750000D01*
G75*
G02*
X105725000Y-126850000I-100000J0D01*
G01*
G37*
G36*
G01*
X113525000Y-144900000D02*
X113325000Y-144900000D01*
G75*
G02*
X113225000Y-144800000I0J100000D01*
G01*
X113225000Y-143250000D01*
G75*
G02*
X113325000Y-143150000I100000J0D01*
G01*
X113525000Y-143150000D01*
G75*
G02*
X113625000Y-143250000I0J-100000D01*
G01*
X113625000Y-144800000D01*
G75*
G02*
X113525000Y-144900000I-100000J0D01*
G01*
G37*
G36*
G01*
X124050000Y-131625000D02*
X122500000Y-131625000D01*
G75*
G02*
X122400000Y-131525000I0J100000D01*
G01*
X122400000Y-131325000D01*
G75*
G02*
X122500000Y-131225000I100000J0D01*
G01*
X124050000Y-131225000D01*
G75*
G02*
X124150000Y-131325000I0J-100000D01*
G01*
X124150000Y-131525000D01*
G75*
G02*
X124050000Y-131625000I-100000J0D01*
G01*
G37*
G36*
G01*
X110925000Y-126850000D02*
X110725000Y-126850000D01*
G75*
G02*
X110625000Y-126750000I0J100000D01*
G01*
X110625000Y-125200000D01*
G75*
G02*
X110725000Y-125100000I100000J0D01*
G01*
X110925000Y-125100000D01*
G75*
G02*
X111025000Y-125200000I0J-100000D01*
G01*
X111025000Y-126750000D01*
G75*
G02*
X110925000Y-126850000I-100000J0D01*
G01*
G37*
G36*
G01*
X110275000Y-126850000D02*
X110075000Y-126850000D01*
G75*
G02*
X109975000Y-126750000I0J100000D01*
G01*
X109975000Y-125200000D01*
G75*
G02*
X110075000Y-125100000I100000J0D01*
G01*
X110275000Y-125100000D01*
G75*
G02*
X110375000Y-125200000I0J-100000D01*
G01*
X110375000Y-126750000D01*
G75*
G02*
X110275000Y-126850000I-100000J0D01*
G01*
G37*
G36*
G01*
X109625000Y-126850000D02*
X109425000Y-126850000D01*
G75*
G02*
X109325000Y-126750000I0J100000D01*
G01*
X109325000Y-125200000D01*
G75*
G02*
X109425000Y-125100000I100000J0D01*
G01*
X109625000Y-125100000D01*
G75*
G02*
X109725000Y-125200000I0J-100000D01*
G01*
X109725000Y-126750000D01*
G75*
G02*
X109625000Y-126850000I-100000J0D01*
G01*
G37*
G36*
G01*
X105075000Y-126850000D02*
X104875000Y-126850000D01*
G75*
G02*
X104775000Y-126750000I0J100000D01*
G01*
X104775000Y-125200000D01*
G75*
G02*
X104875000Y-125100000I100000J0D01*
G01*
X105075000Y-125100000D01*
G75*
G02*
X105175000Y-125200000I0J-100000D01*
G01*
X105175000Y-126750000D01*
G75*
G02*
X105075000Y-126850000I-100000J0D01*
G01*
G37*
G36*
G01*
X104425000Y-126850000D02*
X104225000Y-126850000D01*
G75*
G02*
X104125000Y-126750000I0J100000D01*
G01*
X104125000Y-125200000D01*
G75*
G02*
X104225000Y-125100000I100000J0D01*
G01*
X104425000Y-125100000D01*
G75*
G02*
X104525000Y-125200000I0J-100000D01*
G01*
X104525000Y-126750000D01*
G75*
G02*
X104425000Y-126850000I-100000J0D01*
G01*
G37*
G36*
G01*
X103775000Y-126850000D02*
X103575000Y-126850000D01*
G75*
G02*
X103475000Y-126750000I0J100000D01*
G01*
X103475000Y-125200000D01*
G75*
G02*
X103575000Y-125100000I100000J0D01*
G01*
X103775000Y-125100000D01*
G75*
G02*
X103875000Y-125200000I0J-100000D01*
G01*
X103875000Y-126750000D01*
G75*
G02*
X103775000Y-126850000I-100000J0D01*
G01*
G37*
G36*
G01*
X103125000Y-126850000D02*
X102925000Y-126850000D01*
G75*
G02*
X102825000Y-126750000I0J100000D01*
G01*
X102825000Y-125200000D01*
G75*
G02*
X102925000Y-125100000I100000J0D01*
G01*
X103125000Y-125100000D01*
G75*
G02*
X103225000Y-125200000I0J-100000D01*
G01*
X103225000Y-126750000D01*
G75*
G02*
X103125000Y-126850000I-100000J0D01*
G01*
G37*
G36*
G01*
X112875000Y-144900000D02*
X112675000Y-144900000D01*
G75*
G02*
X112575000Y-144800000I0J100000D01*
G01*
X112575000Y-143250000D01*
G75*
G02*
X112675000Y-143150000I100000J0D01*
G01*
X112875000Y-143150000D01*
G75*
G02*
X112975000Y-143250000I0J-100000D01*
G01*
X112975000Y-144800000D01*
G75*
G02*
X112875000Y-144900000I-100000J0D01*
G01*
G37*
G36*
G01*
X114825000Y-126850000D02*
X114625000Y-126850000D01*
G75*
G02*
X114525000Y-126750000I0J100000D01*
G01*
X114525000Y-125200000D01*
G75*
G02*
X114625000Y-125100000I100000J0D01*
G01*
X114825000Y-125100000D01*
G75*
G02*
X114925000Y-125200000I0J-100000D01*
G01*
X114925000Y-126750000D01*
G75*
G02*
X114825000Y-126850000I-100000J0D01*
G01*
G37*
G36*
G01*
X103125000Y-144900000D02*
X102925000Y-144900000D01*
G75*
G02*
X102825000Y-144800000I0J100000D01*
G01*
X102825000Y-143250000D01*
G75*
G02*
X102925000Y-143150000I100000J0D01*
G01*
X103125000Y-143150000D01*
G75*
G02*
X103225000Y-143250000I0J-100000D01*
G01*
X103225000Y-144800000D01*
G75*
G02*
X103125000Y-144900000I-100000J0D01*
G01*
G37*
G36*
G01*
X112225000Y-144900000D02*
X112025000Y-144900000D01*
G75*
G02*
X111925000Y-144800000I0J100000D01*
G01*
X111925000Y-143250000D01*
G75*
G02*
X112025000Y-143150000I100000J0D01*
G01*
X112225000Y-143150000D01*
G75*
G02*
X112325000Y-143250000I0J-100000D01*
G01*
X112325000Y-144800000D01*
G75*
G02*
X112225000Y-144900000I-100000J0D01*
G01*
G37*
G36*
G01*
X111575000Y-144900000D02*
X111375000Y-144900000D01*
G75*
G02*
X111275000Y-144800000I0J100000D01*
G01*
X111275000Y-143250000D01*
G75*
G02*
X111375000Y-143150000I100000J0D01*
G01*
X111575000Y-143150000D01*
G75*
G02*
X111675000Y-143250000I0J-100000D01*
G01*
X111675000Y-144800000D01*
G75*
G02*
X111575000Y-144900000I-100000J0D01*
G01*
G37*
G36*
G01*
X110925000Y-144900000D02*
X110725000Y-144900000D01*
G75*
G02*
X110625000Y-144800000I0J100000D01*
G01*
X110625000Y-143250000D01*
G75*
G02*
X110725000Y-143150000I100000J0D01*
G01*
X110925000Y-143150000D01*
G75*
G02*
X111025000Y-143250000I0J-100000D01*
G01*
X111025000Y-144800000D01*
G75*
G02*
X110925000Y-144900000I-100000J0D01*
G01*
G37*
G36*
G01*
X110275000Y-144900000D02*
X110075000Y-144900000D01*
G75*
G02*
X109975000Y-144800000I0J100000D01*
G01*
X109975000Y-143250000D01*
G75*
G02*
X110075000Y-143150000I100000J0D01*
G01*
X110275000Y-143150000D01*
G75*
G02*
X110375000Y-143250000I0J-100000D01*
G01*
X110375000Y-144800000D01*
G75*
G02*
X110275000Y-144900000I-100000J0D01*
G01*
G37*
G36*
G01*
X109625000Y-144900000D02*
X109425000Y-144900000D01*
G75*
G02*
X109325000Y-144800000I0J100000D01*
G01*
X109325000Y-143250000D01*
G75*
G02*
X109425000Y-143150000I100000J0D01*
G01*
X109625000Y-143150000D01*
G75*
G02*
X109725000Y-143250000I0J-100000D01*
G01*
X109725000Y-144800000D01*
G75*
G02*
X109625000Y-144900000I-100000J0D01*
G01*
G37*
G36*
G01*
X115475000Y-126850000D02*
X115275000Y-126850000D01*
G75*
G02*
X115175000Y-126750000I0J100000D01*
G01*
X115175000Y-125200000D01*
G75*
G02*
X115275000Y-125100000I100000J0D01*
G01*
X115475000Y-125100000D01*
G75*
G02*
X115575000Y-125200000I0J-100000D01*
G01*
X115575000Y-126750000D01*
G75*
G02*
X115475000Y-126850000I-100000J0D01*
G01*
G37*
G36*
G01*
X124050000Y-141375000D02*
X122500000Y-141375000D01*
G75*
G02*
X122400000Y-141275000I0J100000D01*
G01*
X122400000Y-141075000D01*
G75*
G02*
X122500000Y-140975000I100000J0D01*
G01*
X124050000Y-140975000D01*
G75*
G02*
X124150000Y-141075000I0J-100000D01*
G01*
X124150000Y-141275000D01*
G75*
G02*
X124050000Y-141375000I-100000J0D01*
G01*
G37*
G36*
G01*
X120025000Y-144900000D02*
X119825000Y-144900000D01*
G75*
G02*
X119725000Y-144800000I0J100000D01*
G01*
X119725000Y-143250000D01*
G75*
G02*
X119825000Y-143150000I100000J0D01*
G01*
X120025000Y-143150000D01*
G75*
G02*
X120125000Y-143250000I0J-100000D01*
G01*
X120125000Y-144800000D01*
G75*
G02*
X120025000Y-144900000I-100000J0D01*
G01*
G37*
G36*
G01*
X120675000Y-144900000D02*
X120475000Y-144900000D01*
G75*
G02*
X120375000Y-144800000I0J100000D01*
G01*
X120375000Y-143250000D01*
G75*
G02*
X120475000Y-143150000I100000J0D01*
G01*
X120675000Y-143150000D01*
G75*
G02*
X120775000Y-143250000I0J-100000D01*
G01*
X120775000Y-144800000D01*
G75*
G02*
X120675000Y-144900000I-100000J0D01*
G01*
G37*
G36*
G01*
X99900000Y-138775000D02*
X98350000Y-138775000D01*
G75*
G02*
X98250000Y-138675000I0J100000D01*
G01*
X98250000Y-138475000D01*
G75*
G02*
X98350000Y-138375000I100000J0D01*
G01*
X99900000Y-138375000D01*
G75*
G02*
X100000000Y-138475000I0J-100000D01*
G01*
X100000000Y-138675000D01*
G75*
G02*
X99900000Y-138775000I-100000J0D01*
G01*
G37*
G36*
G01*
X99900000Y-139425000D02*
X98350000Y-139425000D01*
G75*
G02*
X98250000Y-139325000I0J100000D01*
G01*
X98250000Y-139125000D01*
G75*
G02*
X98350000Y-139025000I100000J0D01*
G01*
X99900000Y-139025000D01*
G75*
G02*
X100000000Y-139125000I0J-100000D01*
G01*
X100000000Y-139325000D01*
G75*
G02*
X99900000Y-139425000I-100000J0D01*
G01*
G37*
G36*
G01*
X99900000Y-140075000D02*
X98350000Y-140075000D01*
G75*
G02*
X98250000Y-139975000I0J100000D01*
G01*
X98250000Y-139775000D01*
G75*
G02*
X98350000Y-139675000I100000J0D01*
G01*
X99900000Y-139675000D01*
G75*
G02*
X100000000Y-139775000I0J-100000D01*
G01*
X100000000Y-139975000D01*
G75*
G02*
X99900000Y-140075000I-100000J0D01*
G01*
G37*
G36*
G01*
X99900000Y-140725000D02*
X98350000Y-140725000D01*
G75*
G02*
X98250000Y-140625000I0J100000D01*
G01*
X98250000Y-140425000D01*
G75*
G02*
X98350000Y-140325000I100000J0D01*
G01*
X99900000Y-140325000D01*
G75*
G02*
X100000000Y-140425000I0J-100000D01*
G01*
X100000000Y-140625000D01*
G75*
G02*
X99900000Y-140725000I-100000J0D01*
G01*
G37*
G36*
G01*
X99900000Y-141375000D02*
X98350000Y-141375000D01*
G75*
G02*
X98250000Y-141275000I0J100000D01*
G01*
X98250000Y-141075000D01*
G75*
G02*
X98350000Y-140975000I100000J0D01*
G01*
X99900000Y-140975000D01*
G75*
G02*
X100000000Y-141075000I0J-100000D01*
G01*
X100000000Y-141275000D01*
G75*
G02*
X99900000Y-141375000I-100000J0D01*
G01*
G37*
G36*
G01*
X99900000Y-134875000D02*
X98350000Y-134875000D01*
G75*
G02*
X98250000Y-134775000I0J100000D01*
G01*
X98250000Y-134575000D01*
G75*
G02*
X98350000Y-134475000I100000J0D01*
G01*
X99900000Y-134475000D01*
G75*
G02*
X100000000Y-134575000I0J-100000D01*
G01*
X100000000Y-134775000D01*
G75*
G02*
X99900000Y-134875000I-100000J0D01*
G01*
G37*
G36*
G01*
X99900000Y-135525000D02*
X98350000Y-135525000D01*
G75*
G02*
X98250000Y-135425000I0J100000D01*
G01*
X98250000Y-135225000D01*
G75*
G02*
X98350000Y-135125000I100000J0D01*
G01*
X99900000Y-135125000D01*
G75*
G02*
X100000000Y-135225000I0J-100000D01*
G01*
X100000000Y-135425000D01*
G75*
G02*
X99900000Y-135525000I-100000J0D01*
G01*
G37*
G36*
G01*
X99900000Y-136175000D02*
X98350000Y-136175000D01*
G75*
G02*
X98250000Y-136075000I0J100000D01*
G01*
X98250000Y-135875000D01*
G75*
G02*
X98350000Y-135775000I100000J0D01*
G01*
X99900000Y-135775000D01*
G75*
G02*
X100000000Y-135875000I0J-100000D01*
G01*
X100000000Y-136075000D01*
G75*
G02*
X99900000Y-136175000I-100000J0D01*
G01*
G37*
G36*
G01*
X99900000Y-136825000D02*
X98350000Y-136825000D01*
G75*
G02*
X98250000Y-136725000I0J100000D01*
G01*
X98250000Y-136525000D01*
G75*
G02*
X98350000Y-136425000I100000J0D01*
G01*
X99900000Y-136425000D01*
G75*
G02*
X100000000Y-136525000I0J-100000D01*
G01*
X100000000Y-136725000D01*
G75*
G02*
X99900000Y-136825000I-100000J0D01*
G01*
G37*
G36*
G01*
X99900000Y-137475000D02*
X98350000Y-137475000D01*
G75*
G02*
X98250000Y-137375000I0J100000D01*
G01*
X98250000Y-137175000D01*
G75*
G02*
X98350000Y-137075000I100000J0D01*
G01*
X99900000Y-137075000D01*
G75*
G02*
X100000000Y-137175000I0J-100000D01*
G01*
X100000000Y-137375000D01*
G75*
G02*
X99900000Y-137475000I-100000J0D01*
G01*
G37*
G36*
G01*
X99900000Y-138125000D02*
X98350000Y-138125000D01*
G75*
G02*
X98250000Y-138025000I0J100000D01*
G01*
X98250000Y-137825000D01*
G75*
G02*
X98350000Y-137725000I100000J0D01*
G01*
X99900000Y-137725000D01*
G75*
G02*
X100000000Y-137825000I0J-100000D01*
G01*
X100000000Y-138025000D01*
G75*
G02*
X99900000Y-138125000I-100000J0D01*
G01*
G37*
G36*
G01*
X99900000Y-131625000D02*
X98350000Y-131625000D01*
G75*
G02*
X98250000Y-131525000I0J100000D01*
G01*
X98250000Y-131325000D01*
G75*
G02*
X98350000Y-131225000I100000J0D01*
G01*
X99900000Y-131225000D01*
G75*
G02*
X100000000Y-131325000I0J-100000D01*
G01*
X100000000Y-131525000D01*
G75*
G02*
X99900000Y-131625000I-100000J0D01*
G01*
G37*
G36*
G01*
X99900000Y-132275000D02*
X98350000Y-132275000D01*
G75*
G02*
X98250000Y-132175000I0J100000D01*
G01*
X98250000Y-131975000D01*
G75*
G02*
X98350000Y-131875000I100000J0D01*
G01*
X99900000Y-131875000D01*
G75*
G02*
X100000000Y-131975000I0J-100000D01*
G01*
X100000000Y-132175000D01*
G75*
G02*
X99900000Y-132275000I-100000J0D01*
G01*
G37*
G36*
G01*
X99900000Y-132925000D02*
X98350000Y-132925000D01*
G75*
G02*
X98250000Y-132825000I0J100000D01*
G01*
X98250000Y-132625000D01*
G75*
G02*
X98350000Y-132525000I100000J0D01*
G01*
X99900000Y-132525000D01*
G75*
G02*
X100000000Y-132625000I0J-100000D01*
G01*
X100000000Y-132825000D01*
G75*
G02*
X99900000Y-132925000I-100000J0D01*
G01*
G37*
G36*
G01*
X99900000Y-133575000D02*
X98350000Y-133575000D01*
G75*
G02*
X98250000Y-133475000I0J100000D01*
G01*
X98250000Y-133275000D01*
G75*
G02*
X98350000Y-133175000I100000J0D01*
G01*
X99900000Y-133175000D01*
G75*
G02*
X100000000Y-133275000I0J-100000D01*
G01*
X100000000Y-133475000D01*
G75*
G02*
X99900000Y-133575000I-100000J0D01*
G01*
G37*
G36*
G01*
X99900000Y-134225000D02*
X98350000Y-134225000D01*
G75*
G02*
X98250000Y-134125000I0J100000D01*
G01*
X98250000Y-133925000D01*
G75*
G02*
X98350000Y-133825000I100000J0D01*
G01*
X99900000Y-133825000D01*
G75*
G02*
X100000000Y-133925000I0J-100000D01*
G01*
X100000000Y-134125000D01*
G75*
G02*
X99900000Y-134225000I-100000J0D01*
G01*
G37*
G36*
G01*
X102475000Y-126850000D02*
X102275000Y-126850000D01*
G75*
G02*
X102175000Y-126750000I0J100000D01*
G01*
X102175000Y-125200000D01*
G75*
G02*
X102275000Y-125100000I100000J0D01*
G01*
X102475000Y-125100000D01*
G75*
G02*
X102575000Y-125200000I0J-100000D01*
G01*
X102575000Y-126750000D01*
G75*
G02*
X102475000Y-126850000I-100000J0D01*
G01*
G37*
G36*
G01*
X101825000Y-126850000D02*
X101625000Y-126850000D01*
G75*
G02*
X101525000Y-126750000I0J100000D01*
G01*
X101525000Y-125200000D01*
G75*
G02*
X101625000Y-125100000I100000J0D01*
G01*
X101825000Y-125100000D01*
G75*
G02*
X101925000Y-125200000I0J-100000D01*
G01*
X101925000Y-126750000D01*
G75*
G02*
X101825000Y-126850000I-100000J0D01*
G01*
G37*
G36*
G01*
X124050000Y-139425000D02*
X122500000Y-139425000D01*
G75*
G02*
X122400000Y-139325000I0J100000D01*
G01*
X122400000Y-139125000D01*
G75*
G02*
X122500000Y-139025000I100000J0D01*
G01*
X124050000Y-139025000D01*
G75*
G02*
X124150000Y-139125000I0J-100000D01*
G01*
X124150000Y-139325000D01*
G75*
G02*
X124050000Y-139425000I-100000J0D01*
G01*
G37*
G36*
G01*
X124050000Y-140075000D02*
X122500000Y-140075000D01*
G75*
G02*
X122400000Y-139975000I0J100000D01*
G01*
X122400000Y-139775000D01*
G75*
G02*
X122500000Y-139675000I100000J0D01*
G01*
X124050000Y-139675000D01*
G75*
G02*
X124150000Y-139775000I0J-100000D01*
G01*
X124150000Y-139975000D01*
G75*
G02*
X124050000Y-140075000I-100000J0D01*
G01*
G37*
G36*
G01*
X124050000Y-140725000D02*
X122500000Y-140725000D01*
G75*
G02*
X122400000Y-140625000I0J100000D01*
G01*
X122400000Y-140425000D01*
G75*
G02*
X122500000Y-140325000I100000J0D01*
G01*
X124050000Y-140325000D01*
G75*
G02*
X124150000Y-140425000I0J-100000D01*
G01*
X124150000Y-140625000D01*
G75*
G02*
X124050000Y-140725000I-100000J0D01*
G01*
G37*
G36*
G01*
X124050000Y-138125000D02*
X122500000Y-138125000D01*
G75*
G02*
X122400000Y-138025000I0J100000D01*
G01*
X122400000Y-137825000D01*
G75*
G02*
X122500000Y-137725000I100000J0D01*
G01*
X124050000Y-137725000D01*
G75*
G02*
X124150000Y-137825000I0J-100000D01*
G01*
X124150000Y-138025000D01*
G75*
G02*
X124050000Y-138125000I-100000J0D01*
G01*
G37*
G36*
G01*
X124050000Y-130325000D02*
X122500000Y-130325000D01*
G75*
G02*
X122400000Y-130225000I0J100000D01*
G01*
X122400000Y-130025000D01*
G75*
G02*
X122500000Y-129925000I100000J0D01*
G01*
X124050000Y-129925000D01*
G75*
G02*
X124150000Y-130025000I0J-100000D01*
G01*
X124150000Y-130225000D01*
G75*
G02*
X124050000Y-130325000I-100000J0D01*
G01*
G37*
G36*
G01*
X120025000Y-126850000D02*
X119825000Y-126850000D01*
G75*
G02*
X119725000Y-126750000I0J100000D01*
G01*
X119725000Y-125200000D01*
G75*
G02*
X119825000Y-125100000I100000J0D01*
G01*
X120025000Y-125100000D01*
G75*
G02*
X120125000Y-125200000I0J-100000D01*
G01*
X120125000Y-126750000D01*
G75*
G02*
X120025000Y-126850000I-100000J0D01*
G01*
G37*
G36*
G01*
X124050000Y-129675000D02*
X122500000Y-129675000D01*
G75*
G02*
X122400000Y-129575000I0J100000D01*
G01*
X122400000Y-129375000D01*
G75*
G02*
X122500000Y-129275000I100000J0D01*
G01*
X124050000Y-129275000D01*
G75*
G02*
X124150000Y-129375000I0J-100000D01*
G01*
X124150000Y-129575000D01*
G75*
G02*
X124050000Y-129675000I-100000J0D01*
G01*
G37*
%TD*%
D22*
%TO.C,T1*%
X169750000Y-108839000D03*
X169750000Y-110109000D03*
X169750000Y-111379000D03*
X169750000Y-115189000D03*
X169750000Y-116459000D03*
X169750000Y-117729000D03*
X160450000Y-117729000D03*
X160450000Y-116459000D03*
X160450000Y-115189000D03*
X160450000Y-111379000D03*
X160450000Y-110109000D03*
X160450000Y-108839000D03*
%TD*%
%TO.C,R5*%
G36*
G01*
X176512000Y-128074000D02*
X176512000Y-127704000D01*
G75*
G02*
X176647000Y-127569000I135000J0D01*
G01*
X176917000Y-127569000D01*
G75*
G02*
X177052000Y-127704000I0J-135000D01*
G01*
X177052000Y-128074000D01*
G75*
G02*
X176917000Y-128209000I-135000J0D01*
G01*
X176647000Y-128209000D01*
G75*
G02*
X176512000Y-128074000I0J135000D01*
G01*
G37*
G36*
G01*
X177532000Y-128074000D02*
X177532000Y-127704000D01*
G75*
G02*
X177667000Y-127569000I135000J0D01*
G01*
X177937000Y-127569000D01*
G75*
G02*
X178072000Y-127704000I0J-135000D01*
G01*
X178072000Y-128074000D01*
G75*
G02*
X177937000Y-128209000I-135000J0D01*
G01*
X177667000Y-128209000D01*
G75*
G02*
X177532000Y-128074000I0J135000D01*
G01*
G37*
%TD*%
%TO.C,R4*%
G36*
G01*
X177532000Y-130995000D02*
X177532000Y-130625000D01*
G75*
G02*
X177667000Y-130490000I135000J0D01*
G01*
X177937000Y-130490000D01*
G75*
G02*
X178072000Y-130625000I0J-135000D01*
G01*
X178072000Y-130995000D01*
G75*
G02*
X177937000Y-131130000I-135000J0D01*
G01*
X177667000Y-131130000D01*
G75*
G02*
X177532000Y-130995000I0J135000D01*
G01*
G37*
G36*
G01*
X176512000Y-130995000D02*
X176512000Y-130625000D01*
G75*
G02*
X176647000Y-130490000I135000J0D01*
G01*
X176917000Y-130490000D01*
G75*
G02*
X177052000Y-130625000I0J-135000D01*
G01*
X177052000Y-130995000D01*
G75*
G02*
X176917000Y-131130000I-135000J0D01*
G01*
X176647000Y-131130000D01*
G75*
G02*
X176512000Y-130995000I0J135000D01*
G01*
G37*
%TD*%
%TO.C,R3*%
G36*
G01*
X157676000Y-116699000D02*
X158046000Y-116699000D01*
G75*
G02*
X158181000Y-116834000I0J-135000D01*
G01*
X158181000Y-117104000D01*
G75*
G02*
X158046000Y-117239000I-135000J0D01*
G01*
X157676000Y-117239000D01*
G75*
G02*
X157541000Y-117104000I0J135000D01*
G01*
X157541000Y-116834000D01*
G75*
G02*
X157676000Y-116699000I135000J0D01*
G01*
G37*
G36*
G01*
X157676000Y-115679000D02*
X158046000Y-115679000D01*
G75*
G02*
X158181000Y-115814000I0J-135000D01*
G01*
X158181000Y-116084000D01*
G75*
G02*
X158046000Y-116219000I-135000J0D01*
G01*
X157676000Y-116219000D01*
G75*
G02*
X157541000Y-116084000I0J135000D01*
G01*
X157541000Y-115814000D01*
G75*
G02*
X157676000Y-115679000I135000J0D01*
G01*
G37*
%TD*%
%TO.C,R2*%
G36*
G01*
X122516109Y-125175480D02*
X122254480Y-125437109D01*
G75*
G02*
X122063562Y-125437109I-95459J95459D01*
G01*
X121872643Y-125246190D01*
G75*
G02*
X121872643Y-125055272I95459J95459D01*
G01*
X122134272Y-124793643D01*
G75*
G02*
X122325190Y-124793643I95459J-95459D01*
G01*
X122516109Y-124984562D01*
G75*
G02*
X122516109Y-125175480I-95459J-95459D01*
G01*
G37*
G36*
G01*
X123237357Y-125896728D02*
X122975728Y-126158357D01*
G75*
G02*
X122784810Y-126158357I-95459J95459D01*
G01*
X122593891Y-125967438D01*
G75*
G02*
X122593891Y-125776520I95459J95459D01*
G01*
X122855520Y-125514891D01*
G75*
G02*
X123046438Y-125514891I95459J-95459D01*
G01*
X123237357Y-125705810D01*
G75*
G02*
X123237357Y-125896728I-95459J-95459D01*
G01*
G37*
%TD*%
%TO.C,R1*%
G36*
G01*
X123354000Y-101575000D02*
X123354000Y-101205000D01*
G75*
G02*
X123489000Y-101070000I135000J0D01*
G01*
X123759000Y-101070000D01*
G75*
G02*
X123894000Y-101205000I0J-135000D01*
G01*
X123894000Y-101575000D01*
G75*
G02*
X123759000Y-101710000I-135000J0D01*
G01*
X123489000Y-101710000D01*
G75*
G02*
X123354000Y-101575000I0J135000D01*
G01*
G37*
G36*
G01*
X122334000Y-101575000D02*
X122334000Y-101205000D01*
G75*
G02*
X122469000Y-101070000I135000J0D01*
G01*
X122739000Y-101070000D01*
G75*
G02*
X122874000Y-101205000I0J-135000D01*
G01*
X122874000Y-101575000D01*
G75*
G02*
X122739000Y-101710000I-135000J0D01*
G01*
X122469000Y-101710000D01*
G75*
G02*
X122334000Y-101575000I0J135000D01*
G01*
G37*
%TD*%
%TO.C,C14*%
G36*
G01*
X172577999Y-109612000D02*
X173878001Y-109612000D01*
G75*
G02*
X174128000Y-109861999I0J-249999D01*
G01*
X174128000Y-110512001D01*
G75*
G02*
X173878001Y-110762000I-249999J0D01*
G01*
X172577999Y-110762000D01*
G75*
G02*
X172328000Y-110512001I0J249999D01*
G01*
X172328000Y-109861999D01*
G75*
G02*
X172577999Y-109612000I249999J0D01*
G01*
G37*
G36*
G01*
X172577999Y-106662000D02*
X173878001Y-106662000D01*
G75*
G02*
X174128000Y-106911999I0J-249999D01*
G01*
X174128000Y-107562001D01*
G75*
G02*
X173878001Y-107812000I-249999J0D01*
G01*
X172577999Y-107812000D01*
G75*
G02*
X172328000Y-107562001I0J249999D01*
G01*
X172328000Y-106911999D01*
G75*
G02*
X172577999Y-106662000I249999J0D01*
G01*
G37*
%TD*%
%TO.C,C13*%
G36*
G01*
X172577999Y-118756000D02*
X173878001Y-118756000D01*
G75*
G02*
X174128000Y-119005999I0J-249999D01*
G01*
X174128000Y-119656001D01*
G75*
G02*
X173878001Y-119906000I-249999J0D01*
G01*
X172577999Y-119906000D01*
G75*
G02*
X172328000Y-119656001I0J249999D01*
G01*
X172328000Y-119005999D01*
G75*
G02*
X172577999Y-118756000I249999J0D01*
G01*
G37*
G36*
G01*
X172577999Y-115806000D02*
X173878001Y-115806000D01*
G75*
G02*
X174128000Y-116055999I0J-249999D01*
G01*
X174128000Y-116706001D01*
G75*
G02*
X173878001Y-116956000I-249999J0D01*
G01*
X172577999Y-116956000D01*
G75*
G02*
X172328000Y-116706001I0J249999D01*
G01*
X172328000Y-116055999D01*
G75*
G02*
X172577999Y-115806000I249999J0D01*
G01*
G37*
%TD*%
%TO.C,C12*%
G36*
G01*
X109039000Y-122979000D02*
X109039000Y-122639000D01*
G75*
G02*
X109179000Y-122499000I140000J0D01*
G01*
X109459000Y-122499000D01*
G75*
G02*
X109599000Y-122639000I0J-140000D01*
G01*
X109599000Y-122979000D01*
G75*
G02*
X109459000Y-123119000I-140000J0D01*
G01*
X109179000Y-123119000D01*
G75*
G02*
X109039000Y-122979000I0J140000D01*
G01*
G37*
G36*
G01*
X108079000Y-122979000D02*
X108079000Y-122639000D01*
G75*
G02*
X108219000Y-122499000I140000J0D01*
G01*
X108499000Y-122499000D01*
G75*
G02*
X108639000Y-122639000I0J-140000D01*
G01*
X108639000Y-122979000D01*
G75*
G02*
X108499000Y-123119000I-140000J0D01*
G01*
X108219000Y-123119000D01*
G75*
G02*
X108079000Y-122979000I0J140000D01*
G01*
G37*
%TD*%
%TO.C,C11*%
G36*
G01*
X161909999Y-124090000D02*
X163210001Y-124090000D01*
G75*
G02*
X163460000Y-124339999I0J-249999D01*
G01*
X163460000Y-124990001D01*
G75*
G02*
X163210001Y-125240000I-249999J0D01*
G01*
X161909999Y-125240000D01*
G75*
G02*
X161660000Y-124990001I0J249999D01*
G01*
X161660000Y-124339999D01*
G75*
G02*
X161909999Y-124090000I249999J0D01*
G01*
G37*
G36*
G01*
X161909999Y-121140000D02*
X163210001Y-121140000D01*
G75*
G02*
X163460000Y-121389999I0J-249999D01*
G01*
X163460000Y-122040001D01*
G75*
G02*
X163210001Y-122290000I-249999J0D01*
G01*
X161909999Y-122290000D01*
G75*
G02*
X161660000Y-122040001I0J249999D01*
G01*
X161660000Y-121389999D01*
G75*
G02*
X161909999Y-121140000I249999J0D01*
G01*
G37*
%TD*%
%TO.C,C10*%
G36*
G01*
X161909999Y-104278000D02*
X163210001Y-104278000D01*
G75*
G02*
X163460000Y-104527999I0J-249999D01*
G01*
X163460000Y-105178001D01*
G75*
G02*
X163210001Y-105428000I-249999J0D01*
G01*
X161909999Y-105428000D01*
G75*
G02*
X161660000Y-105178001I0J249999D01*
G01*
X161660000Y-104527999D01*
G75*
G02*
X161909999Y-104278000I249999J0D01*
G01*
G37*
G36*
G01*
X161909999Y-101328000D02*
X163210001Y-101328000D01*
G75*
G02*
X163460000Y-101577999I0J-249999D01*
G01*
X163460000Y-102228001D01*
G75*
G02*
X163210001Y-102478000I-249999J0D01*
G01*
X161909999Y-102478000D01*
G75*
G02*
X161660000Y-102228001I0J249999D01*
G01*
X161660000Y-101577999D01*
G75*
G02*
X161909999Y-101328000I249999J0D01*
G01*
G37*
%TD*%
%TO.C,C9*%
G36*
G01*
X123614000Y-123343000D02*
X123274000Y-123343000D01*
G75*
G02*
X123134000Y-123203000I0J140000D01*
G01*
X123134000Y-122923000D01*
G75*
G02*
X123274000Y-122783000I140000J0D01*
G01*
X123614000Y-122783000D01*
G75*
G02*
X123754000Y-122923000I0J-140000D01*
G01*
X123754000Y-123203000D01*
G75*
G02*
X123614000Y-123343000I-140000J0D01*
G01*
G37*
G36*
G01*
X123614000Y-124303000D02*
X123274000Y-124303000D01*
G75*
G02*
X123134000Y-124163000I0J140000D01*
G01*
X123134000Y-123883000D01*
G75*
G02*
X123274000Y-123743000I140000J0D01*
G01*
X123614000Y-123743000D01*
G75*
G02*
X123754000Y-123883000I0J-140000D01*
G01*
X123754000Y-124163000D01*
G75*
G02*
X123614000Y-124303000I-140000J0D01*
G01*
G37*
%TD*%
%TO.C,C8*%
G36*
G01*
X129497000Y-123771000D02*
X129837000Y-123771000D01*
G75*
G02*
X129977000Y-123911000I0J-140000D01*
G01*
X129977000Y-124191000D01*
G75*
G02*
X129837000Y-124331000I-140000J0D01*
G01*
X129497000Y-124331000D01*
G75*
G02*
X129357000Y-124191000I0J140000D01*
G01*
X129357000Y-123911000D01*
G75*
G02*
X129497000Y-123771000I140000J0D01*
G01*
G37*
G36*
G01*
X129497000Y-122811000D02*
X129837000Y-122811000D01*
G75*
G02*
X129977000Y-122951000I0J-140000D01*
G01*
X129977000Y-123231000D01*
G75*
G02*
X129837000Y-123371000I-140000J0D01*
G01*
X129497000Y-123371000D01*
G75*
G02*
X129357000Y-123231000I0J140000D01*
G01*
X129357000Y-122951000D01*
G75*
G02*
X129497000Y-122811000I140000J0D01*
G01*
G37*
%TD*%
%TO.C,C7*%
G36*
G01*
X118564000Y-122979000D02*
X118564000Y-122639000D01*
G75*
G02*
X118704000Y-122499000I140000J0D01*
G01*
X118984000Y-122499000D01*
G75*
G02*
X119124000Y-122639000I0J-140000D01*
G01*
X119124000Y-122979000D01*
G75*
G02*
X118984000Y-123119000I-140000J0D01*
G01*
X118704000Y-123119000D01*
G75*
G02*
X118564000Y-122979000I0J140000D01*
G01*
G37*
G36*
G01*
X117604000Y-122979000D02*
X117604000Y-122639000D01*
G75*
G02*
X117744000Y-122499000I140000J0D01*
G01*
X118024000Y-122499000D01*
G75*
G02*
X118164000Y-122639000I0J-140000D01*
G01*
X118164000Y-122979000D01*
G75*
G02*
X118024000Y-123119000I-140000J0D01*
G01*
X117744000Y-123119000D01*
G75*
G02*
X117604000Y-122979000I0J140000D01*
G01*
G37*
%TD*%
%TO.C,C1*%
G36*
G01*
X103705000Y-112819000D02*
X103705000Y-112479000D01*
G75*
G02*
X103845000Y-112339000I140000J0D01*
G01*
X104125000Y-112339000D01*
G75*
G02*
X104265000Y-112479000I0J-140000D01*
G01*
X104265000Y-112819000D01*
G75*
G02*
X104125000Y-112959000I-140000J0D01*
G01*
X103845000Y-112959000D01*
G75*
G02*
X103705000Y-112819000I0J140000D01*
G01*
G37*
G36*
G01*
X102745000Y-112819000D02*
X102745000Y-112479000D01*
G75*
G02*
X102885000Y-112339000I140000J0D01*
G01*
X103165000Y-112339000D01*
G75*
G02*
X103305000Y-112479000I0J-140000D01*
G01*
X103305000Y-112819000D01*
G75*
G02*
X103165000Y-112959000I-140000J0D01*
G01*
X102885000Y-112959000D01*
G75*
G02*
X102745000Y-112819000I0J140000D01*
G01*
G37*
%TD*%
M02*
