%TF.GenerationSoftware,KiCad,Pcbnew,5.1.7*%
%TF.CreationDate,2020-11-15T02:55:59+01:00*%
%TF.ProjectId,ISA8019,49534138-3031-4392-9e6b-696361645f70,rev?*%
%TF.SameCoordinates,Original*%
%TF.FileFunction,Soldermask,Bot*%
%TF.FilePolarity,Negative*%
%FSLAX46Y46*%
G04 Gerber Fmt 4.6, Leading zero omitted, Abs format (unit mm)*
G04 Created by KiCad (PCBNEW 5.1.7) date 2020-11-15 02:55:59*
%MOMM*%
%LPD*%
G01*
G04 APERTURE LIST*
%ADD10C,0.600000*%
%ADD11R,1.780000X7.620000*%
%ADD12C,1.400000*%
%ADD13C,2.500000*%
%ADD14C,3.200000*%
%ADD15O,1.600000X2.400000*%
%ADD16R,1.600000X2.400000*%
%ADD17C,0.800000*%
%ADD18C,6.400000*%
%ADD19R,1.700000X1.700000*%
%ADD20O,1.700000X1.700000*%
%ADD21C,1.152000*%
G04 APERTURE END LIST*
D10*
X80345357Y-93584571D02*
X78440595Y-93584571D01*
X79631071Y-91917904D02*
X79631071Y-96203619D01*
X79392976Y-96679809D01*
X78916785Y-96917904D01*
X78440595Y-96917904D01*
X76773928Y-96917904D02*
X76773928Y-91917904D01*
X76773928Y-93822666D02*
X76297738Y-93584571D01*
X75345357Y-93584571D01*
X74869166Y-93822666D01*
X74631071Y-94060761D01*
X74392976Y-94536952D01*
X74392976Y-95965523D01*
X74631071Y-96441714D01*
X74869166Y-96679809D01*
X75345357Y-96917904D01*
X76297738Y-96917904D01*
X76773928Y-96679809D01*
X72488214Y-96679809D02*
X72012023Y-96917904D01*
X71059642Y-96917904D01*
X70583452Y-96679809D01*
X70345357Y-96203619D01*
X70345357Y-95965523D01*
X70583452Y-95489333D01*
X71059642Y-95251238D01*
X71773928Y-95251238D01*
X72250119Y-95013142D01*
X72488214Y-94536952D01*
X72488214Y-94298857D01*
X72250119Y-93822666D01*
X71773928Y-93584571D01*
X71059642Y-93584571D01*
X70583452Y-93822666D01*
X68202500Y-93584571D02*
X68202500Y-98584571D01*
X68202500Y-93822666D02*
X67726309Y-93584571D01*
X66773928Y-93584571D01*
X66297738Y-93822666D01*
X66059642Y-94060761D01*
X65821547Y-94536952D01*
X65821547Y-95965523D01*
X66059642Y-96441714D01*
X66297738Y-96679809D01*
X66773928Y-96917904D01*
X67726309Y-96917904D01*
X68202500Y-96679809D01*
X61535833Y-96917904D02*
X61535833Y-94298857D01*
X61773928Y-93822666D01*
X62250119Y-93584571D01*
X63202500Y-93584571D01*
X63678690Y-93822666D01*
X61535833Y-96679809D02*
X62012023Y-96917904D01*
X63202500Y-96917904D01*
X63678690Y-96679809D01*
X63916785Y-96203619D01*
X63916785Y-95727428D01*
X63678690Y-95251238D01*
X63202500Y-95013142D01*
X62012023Y-95013142D01*
X61535833Y-94775047D01*
X57012023Y-96679809D02*
X57488214Y-96917904D01*
X58440595Y-96917904D01*
X58916785Y-96679809D01*
X59154880Y-96441714D01*
X59392976Y-95965523D01*
X59392976Y-94536952D01*
X59154880Y-94060761D01*
X58916785Y-93822666D01*
X58440595Y-93584571D01*
X57488214Y-93584571D01*
X57012023Y-93822666D01*
X52964404Y-96679809D02*
X53440595Y-96917904D01*
X54392976Y-96917904D01*
X54869166Y-96679809D01*
X55107261Y-96203619D01*
X55107261Y-94298857D01*
X54869166Y-93822666D01*
X54392976Y-93584571D01*
X53440595Y-93584571D01*
X52964404Y-93822666D01*
X52726309Y-94298857D01*
X52726309Y-94775047D01*
X55107261Y-95251238D01*
X50583452Y-96441714D02*
X50345357Y-96679809D01*
X50583452Y-96917904D01*
X50821547Y-96679809D01*
X50583452Y-96441714D01*
X50583452Y-96917904D01*
X46059642Y-96917904D02*
X46059642Y-91917904D01*
X46059642Y-96679809D02*
X46535833Y-96917904D01*
X47488214Y-96917904D01*
X47964404Y-96679809D01*
X48202500Y-96441714D01*
X48440595Y-95965523D01*
X48440595Y-94536952D01*
X48202500Y-94060761D01*
X47964404Y-93822666D01*
X47488214Y-93584571D01*
X46535833Y-93584571D01*
X46059642Y-93822666D01*
X41773928Y-96679809D02*
X42250119Y-96917904D01*
X43202500Y-96917904D01*
X43678690Y-96679809D01*
X43916785Y-96203619D01*
X43916785Y-94298857D01*
X43678690Y-93822666D01*
X43202500Y-93584571D01*
X42250119Y-93584571D01*
X41773928Y-93822666D01*
X41535833Y-94298857D01*
X41535833Y-94775047D01*
X43916785Y-95251238D01*
D11*
%TO.C,J1*%
X38160000Y-159300000D03*
X40700000Y-159300000D03*
X43240000Y-159300000D03*
X45780000Y-159300000D03*
X48320000Y-159300000D03*
X50860000Y-159300000D03*
X53400000Y-159300000D03*
X55940000Y-159300000D03*
X58480000Y-159300000D03*
X61020000Y-159300000D03*
X63560000Y-159300000D03*
X66100000Y-159300000D03*
X68640000Y-159300000D03*
X71180000Y-159300000D03*
X73720000Y-159300000D03*
X76260000Y-159300000D03*
X78800000Y-159300000D03*
X81340000Y-159300000D03*
X91500000Y-159300000D03*
X94040000Y-159300000D03*
X96580000Y-159300000D03*
X99120000Y-159300000D03*
X101660000Y-159300000D03*
X104200000Y-159300000D03*
X106740000Y-159300000D03*
X109280000Y-159300000D03*
X111820000Y-159300000D03*
X114360000Y-159300000D03*
X116900000Y-159300000D03*
X119440000Y-159300000D03*
X121980000Y-159300000D03*
X124520000Y-159300000D03*
X127060000Y-159300000D03*
X129600000Y-159300000D03*
X132140000Y-159300000D03*
X134680000Y-159300000D03*
X137220000Y-159300000D03*
X139760000Y-159300000D03*
X142300000Y-159300000D03*
X144840000Y-159300000D03*
X147380000Y-159300000D03*
X149920000Y-159300000D03*
X152460000Y-159300000D03*
X155000000Y-159300000D03*
X157540000Y-159300000D03*
X160080000Y-159300000D03*
X162620000Y-159300000D03*
X165160000Y-159300000D03*
X167700000Y-159300000D03*
%TD*%
D12*
%TO.C,J2*%
X177770000Y-117730000D03*
X177770000Y-120020000D03*
X177770000Y-108590000D03*
X177770000Y-106300000D03*
X182570000Y-116730000D03*
X184350000Y-115710000D03*
X182570000Y-114690000D03*
X184350000Y-113670000D03*
X182570000Y-112650000D03*
X184350000Y-111630000D03*
X182570000Y-110610000D03*
X184350000Y-109590000D03*
D13*
X183330000Y-121360000D03*
X183330000Y-104960000D03*
D14*
X186890000Y-119510000D03*
X186890000Y-106810000D03*
%TD*%
D15*
%TO.C,U3*%
X40700000Y-102150000D03*
X78800000Y-117390000D03*
X43240000Y-102150000D03*
X76260000Y-117390000D03*
X45780000Y-102150000D03*
X73720000Y-117390000D03*
X48320000Y-102150000D03*
X71180000Y-117390000D03*
X50860000Y-102150000D03*
X68640000Y-117390000D03*
X53400000Y-102150000D03*
X66100000Y-117390000D03*
X55940000Y-102150000D03*
X63560000Y-117390000D03*
X58480000Y-102150000D03*
X61020000Y-117390000D03*
X61020000Y-102150000D03*
X58480000Y-117390000D03*
X63560000Y-102150000D03*
X55940000Y-117390000D03*
X66100000Y-102150000D03*
X53400000Y-117390000D03*
X68640000Y-102150000D03*
X50860000Y-117390000D03*
X71180000Y-102150000D03*
X48320000Y-117390000D03*
X73720000Y-102150000D03*
X45780000Y-117390000D03*
X76260000Y-102150000D03*
X43240000Y-117390000D03*
X78800000Y-102150000D03*
D16*
X40700000Y-117390000D03*
%TD*%
D17*
%TO.C,H4*%
X189848056Y-93402944D03*
X188151000Y-92700000D03*
X186453944Y-93402944D03*
X185751000Y-95100000D03*
X186453944Y-96797056D03*
X188151000Y-97500000D03*
X189848056Y-96797056D03*
X190551000Y-95100000D03*
D18*
X188151000Y-95100000D03*
%TD*%
D17*
%TO.C,H3*%
X189848056Y-149917944D03*
X188151000Y-149215000D03*
X186453944Y-149917944D03*
X185751000Y-151615000D03*
X186453944Y-153312056D03*
X188151000Y-154015000D03*
X189848056Y-153312056D03*
X190551000Y-151615000D03*
D18*
X188151000Y-151615000D03*
%TD*%
D19*
%TO.C,J9*%
X128270000Y-99060000D03*
D20*
X128270000Y-96520000D03*
X130810000Y-99060000D03*
X130810000Y-96520000D03*
X133350000Y-99060000D03*
X133350000Y-96520000D03*
%TD*%
D19*
%TO.C,J8*%
X140970000Y-99060000D03*
D20*
X140970000Y-96520000D03*
X143510000Y-99060000D03*
X143510000Y-96520000D03*
%TD*%
D19*
%TO.C,J7*%
X90170000Y-99060000D03*
D20*
X90170000Y-96520000D03*
X92710000Y-99060000D03*
X92710000Y-96520000D03*
X95250000Y-99060000D03*
X95250000Y-96520000D03*
X97790000Y-99060000D03*
X97790000Y-96520000D03*
%TD*%
D19*
%TO.C,J6*%
X107950000Y-99060000D03*
D20*
X107950000Y-96520000D03*
X110490000Y-99060000D03*
X110490000Y-96520000D03*
X113030000Y-99060000D03*
X113030000Y-96520000D03*
X115570000Y-99060000D03*
X115570000Y-96520000D03*
X118110000Y-99060000D03*
X118110000Y-96520000D03*
%TD*%
D19*
%TO.C,J5*%
X156210000Y-99060000D03*
D20*
X156210000Y-96520000D03*
%TD*%
D19*
%TO.C,J4*%
X149860000Y-99060000D03*
D20*
X149860000Y-96520000D03*
%TD*%
D21*
%TO.C,H2*%
X191770000Y-162179000D03*
%TD*%
%TO.C,H1*%
X36703000Y-90551000D03*
%TD*%
M02*
